<svg width="1297" height="244" viewBox="0 0 1297 244" fill="none" xmlns="http://www.w3.org/2000/svg">
<path d="M358.661 243.26C345.811 243.26 334.844 240.602 325.761 235.285C316.899 229.746 310.363 222.435 306.154 213.351H304.16L300.836 239.273H282.891V0H306.154V99.6969C310.585 91.9427 317.342 85.1855 326.425 79.4252C335.509 73.4434 346.254 70.4525 358.661 70.4525C373.061 70.4525 385.69 73.7757 396.546 80.4222C407.402 87.0686 415.931 96.8168 422.134 109.667C428.338 122.516 431.439 138.136 431.439 156.524C431.439 174.913 428.338 190.643 422.134 203.714C415.931 216.564 407.291 226.423 396.213 233.291C385.357 239.937 372.84 243.26 358.661 243.26ZM356.999 221.327C371.843 221.327 384.028 216.01 393.555 205.376C403.081 194.741 407.845 178.568 407.845 156.856C407.845 135.145 403.081 118.972 393.555 108.337C384.028 97.703 371.843 92.3858 356.999 92.3858C342.155 92.3858 329.97 97.703 320.444 108.337C310.917 118.972 306.154 135.145 306.154 156.856C306.154 178.568 310.917 194.741 320.444 205.376C329.97 216.01 342.155 221.327 356.999 221.327Z" fill="white"/>
<path d="M453.908 239.273V219.333H497.774V101.026C497.774 99.2538 497.11 97.7029 495.78 96.3737C494.451 95.0444 492.9 94.3797 491.128 94.3797H458.892V74.4403H499.436C505.861 74.4403 510.846 76.102 514.39 79.4252C517.935 82.7484 519.708 87.6225 519.708 94.0474V103.352H521.037C523.474 92.9397 528.237 84.8531 535.327 79.0929C542.638 73.3326 552.054 70.4525 563.574 70.4525H596.806V95.0444H563.574C550.06 95.0444 539.536 99.4753 532.003 108.337C524.692 117.199 521.037 129.052 521.037 143.896V219.333H573.211V239.273H453.908Z" fill="white"/>
<path d="M677.099 243.26C664.028 243.26 653.172 240.934 644.531 236.282C636.112 231.629 629.798 225.426 625.589 217.672C621.601 209.917 619.607 201.498 619.607 192.415C619.607 175.134 625.921 162.284 638.549 153.866C651.399 145.225 667.572 140.905 687.069 140.905H734.258V137.914C734.258 122.406 730.492 110.774 722.959 103.02C715.648 95.0444 705.125 91.0565 691.389 91.0565C679.868 91.0565 670.342 93.6043 662.809 98.6999C655.498 103.574 650.845 111.328 648.852 121.963H624.259C625.367 110.885 629.023 101.58 635.226 94.0474C641.651 86.2932 649.738 80.4222 659.486 76.4343C669.234 72.4464 679.868 70.4525 691.389 70.4525C714.43 70.4525 731.156 76.7666 741.569 89.3949C752.204 101.802 757.521 117.975 757.521 137.914V239.273H737.581L735.255 212.687H733.261C728.387 220.884 721.63 228.084 712.99 234.288C704.349 240.27 692.386 243.26 677.099 243.26ZM680.754 221.992C691.832 221.992 701.358 219.222 709.334 213.684C717.31 208.145 723.402 200.945 727.612 192.083C732.043 183.221 734.258 173.916 734.258 164.168V160.844H688.73C672.336 160.844 660.704 163.724 653.836 169.485C647.19 175.245 643.867 182.667 643.867 191.75C643.867 201.055 646.968 208.477 653.171 214.016C659.375 219.333 668.569 221.992 680.754 221.992Z" fill="white"/>
<path d="M801.258 239.273V74.4403H820.2L823.191 99.3646H824.52C828.951 91.6104 835.93 84.8531 845.457 79.0929C855.205 73.3326 866.504 70.4525 879.354 70.4525C899.515 70.4525 914.58 76.4343 924.55 88.3979C934.519 100.14 939.504 116.867 939.504 138.579V239.273H916.241V141.237C916.241 125.95 912.807 113.987 905.939 105.346C899.071 96.706 888.548 92.3858 874.369 92.3858C860.633 92.3858 848.891 97.1491 839.142 106.676C829.394 115.981 824.52 129.495 824.52 147.219V239.273H801.258Z" fill="white"/>
<path d="M1051.7 243.26C1037.52 243.26 1024.67 239.937 1013.15 233.291C1001.63 226.423 992.435 216.564 985.567 203.714C978.699 190.864 975.265 175.245 975.265 156.856C975.265 138.468 978.699 122.849 985.567 109.999C992.657 97.1491 1001.96 87.4009 1013.48 80.7545C1025 73.8865 1037.74 70.4525 1051.7 70.4525C1071.86 70.4525 1087.7 75.4373 1099.22 85.407C1110.96 95.3767 1118.5 108.559 1121.82 124.953H1098.56C1095.68 114.984 1090.14 107.119 1081.94 101.359C1073.97 95.3767 1063.88 92.3858 1051.7 92.3858C1042.62 92.3858 1034.09 94.712 1026.11 99.3646C1018.13 104.017 1011.6 111.107 1006.5 120.633C1001.63 129.938 999.192 142.013 999.192 156.856C999.192 171.479 1001.63 183.664 1006.5 193.412C1011.6 202.939 1018.13 210.028 1026.11 214.681C1034.09 219.333 1042.62 221.659 1051.7 221.659C1064.77 221.659 1075.18 218.669 1082.94 212.687C1090.69 206.483 1095.9 198.508 1098.56 188.759H1121.82C1117.83 205.819 1109.75 219.222 1097.56 228.971C1085.6 238.497 1070.31 243.26 1051.7 243.26Z" fill="white"/>
<path d="M1155.25 239.273V0H1178.52V99.3646C1182.95 90.9457 1190.37 84.0777 1200.78 78.7605C1211.2 73.2218 1222.49 70.4525 1234.68 70.4525C1254.84 70.4525 1270.13 76.5451 1280.54 88.7302C1290.95 100.915 1296.16 117.532 1296.16 138.579V239.273H1272.9V141.237C1272.9 125.95 1269.13 113.987 1261.6 105.346C1254.07 96.706 1243.43 92.3858 1229.69 92.3858C1220.61 92.3858 1212.08 94.4905 1204.11 98.6999C1196.35 102.909 1190.15 109.113 1185.5 117.31C1180.84 125.286 1178.52 135.255 1178.52 147.219V239.273H1155.25Z" fill="white"/>
<path d="M33.9177 189.069C32.8131 189.069 31.9177 188.174 31.9177 187.069L31.9177 123.566H53.1298L53.1298 166.34C53.1298 166.892 53.5775 167.34 54.1298 167.34L140.769 167.34C141.321 167.34 141.769 166.892 141.769 166.34V123.566H162.981V187.069C162.981 188.174 162.086 189.069 160.981 189.069L33.9177 189.069Z" fill="white"/>
<path d="M76.2449 238.927V181.246L118.669 181.246V238.927H76.2449Z" fill="white"/>
<path d="M122.179 127.479C121.627 127.479 121.179 127.031 121.179 126.479V96.4535H131.785V117.635C131.785 117.911 132.009 118.135 132.285 118.135H172.322C172.598 118.135 172.822 117.911 172.822 117.635V96.4535L183.428 96.4535V126.479C183.428 127.031 182.98 127.479 182.428 127.479L122.179 127.479Z" fill="white"/>
<path d="M12.3361 127.479C11.7839 127.479 11.3361 127.031 11.3361 126.479L11.3361 96.4535H21.9422L21.9422 117.635C21.9422 117.911 22.166 118.135 22.4422 118.135L62.4785 118.135C62.7546 118.135 62.9785 117.911 62.9785 117.635V96.4535H73.5845V126.479C73.5845 127.031 73.1368 127.479 72.5845 127.479L12.3361 127.479Z" fill="white"/>
<path d="M55.2242 98.5415L55.2242 85.7128H60.8794V92.8442H75.6767V85.7128L81.3388 85.7128V98.5415H55.2242Z" fill="white"/>
<path d="M71.9553 87.016V79.382H75.4906V82.8873H81.3322V79.382H84.8676V87.016H71.9553Z" fill="white"/>
<path d="M51.4961 87.016V79.382H55.0314V82.8873H60.873V79.382H64.4084V87.016H51.4961Z" fill="white"/>
<path d="M3.71967 98.5415L3.71967 85.7128H9.37485L9.37485 92.8442H24.1722V85.7128H29.8343L29.8343 98.5415L3.71967 98.5415Z" fill="white"/>
<path d="M20.4634 87.016V79.382H23.9988L23.9988 82.8874H29.8404V79.382H33.3757L33.3757 87.016H20.4634Z" fill="white"/>
<path d="M0 87.016L6.67387e-07 79.382H3.53535L3.53535 82.8874H9.37697L9.37697 79.382H12.9123L12.9123 87.016H0Z" fill="white"/>
<path d="M165.072 98.5415L165.072 85.7128L170.727 85.7128V92.8442L185.524 92.8442V85.7128H191.186V98.5415L165.072 98.5415Z" fill="white"/>
<path d="M181.807 87.016V79.382H185.342V82.8873L191.184 82.8874V79.382H194.719V87.016H181.807Z" fill="white"/>
<path d="M161.352 87.016V79.382H164.887V82.8873L170.729 82.8874V79.382H174.264V87.016H161.352Z" fill="white"/>
<path d="M113.576 98.5415V85.7128H119.231V92.8442H134.028V85.7128H139.69V98.5415H113.576Z" fill="white"/>
<path d="M130.315 87.016V79.382L133.85 79.382V82.8873H139.692V79.382H143.227V87.016L130.315 87.016Z" fill="white"/>
<path d="M109.856 87.016V79.382H113.391V82.8873H119.233V79.382H122.768V87.016L109.856 87.016Z" fill="white"/>
</svg>
