<svg width="100" height="100" viewBox="0 0 100 100" fill="none" xmlns="http://www.w3.org/2000/svg">
<path d="M5.84601 99.8158C2.61896 99.8158 0.00390625 97.1984 0.00390625 93.9713V6.03201C0.00390625 2.80376 2.62017 0.1875 5.84601 0.1875C9.07185 0.1875 11.6893 2.80496 11.6893 6.03201V93.9713C11.6893 97.1984 9.07305 99.8158 5.84601 99.8158Z" fill="#CEDC21"/>
<path d="M53.373 68.354C55.0285 69.5755 55.9216 71.5742 55.7246 73.6216C55.5273 75.6654 54.2707 77.4566 52.4121 78.3403L8.34956 99.2515C7.5428 99.6326 6.6878 99.8149 5.84858 99.8149C3.66281 99.8149 1.56689 98.5825 0.565378 96.4761C-0.817877 93.5618 0.424199 90.0773 3.34077 88.6899L38.5771 71.9702L18.6093 57.2593L28.455 50.0063L11.6914 37.6479V37.646L53.373 68.354Z" fill="#51B13E"/>
<path d="M0.565106 3.52468C1.9502 0.60825 5.43507 -0.6339 8.34929 0.748311L52.4128 21.6624C54.2713 22.5437 55.528 24.3371 55.7253 26.3821C55.9224 28.4284 55.0292 30.4274 53.3737 31.6477L9.3112 64.1096C8.26639 64.8779 7.05354 65.2503 5.85124 65.2503C4.05625 65.2502 2.28685 64.4261 1.14225 62.8704C-0.771848 60.2746 -0.21769 56.6134 2.38054 54.7005L11.6891 47.8421V62.3567L28.4548 50.0061L18.6071 42.7454L38.5778 28.0335L3.3405 11.3098C0.423903 9.92585 -0.817514 6.4402 0.565106 3.52468Z" fill="#CEDC21"/>
<path d="M11.6895 37.6455V62.3569L28.4547 50.0066L11.6895 37.6455Z" fill="#1E7A44"/>
</svg>
