<svg width="100" height="100" viewBox="0 0 100 100" fill="none" xmlns="http://www.w3.org/2000/svg">
<g clip-path="url(#clip0_169_100)">
<mask id="mask0_169_100" style="mask-type:luminance" maskUnits="userSpaceOnUse" x="-1" y="16" width="93" height="68">
<path d="M92 16H-1V84H92V16Z" fill="white"/>
</mask>
<g mask="url(#mask0_169_100)">
<path d="M0.171875 16.9346H18.5313C21.5912 16.9346 23.8132 17.625 25.1975 19.0059C26.5818 20.3868 27.274 22.6033 27.274 25.6556V30.016C27.274 33.0683 26.5818 35.2849 25.1975 36.6658C23.8132 38.0467 21.5912 38.7369 18.5313 38.7366H8.04033V47.4577H0.171875V16.9346ZM19.4055 25.6556C19.4055 23.9108 18.531 23.0384 16.7819 23.0384H8.04033V32.6323H16.7828C18.5319 32.6323 19.4065 31.7599 19.4065 30.0151L19.4055 25.6556ZM50.8789 16.9346H58.7474V39.1731C58.7474 42.2254 58.0552 44.442 56.6709 45.8229C55.2866 47.2038 53.0645 47.8942 50.0046 47.8942H39.9508C36.8909 47.8942 34.6689 47.2038 33.2846 45.8229C31.9003 44.442 31.2081 42.2254 31.2081 39.1731V16.9346H39.0766V39.1731C39.0766 40.9179 39.9511 41.7903 41.7002 41.7903H48.2571C50.0062 41.7903 50.8808 40.9179 50.8808 39.1731L50.8789 16.9346ZM63.9928 16.9346H81.478C84.3339 16.9346 86.4322 17.5811 87.7727 18.8741C89.1133 20.1671 89.7836 22.1366 89.7836 24.7826C89.7836 26.5274 89.4047 27.9446 88.647 29.0341C87.9671 30.0613 86.9919 30.8596 85.8492 31.3242C88.2098 31.9637 89.8126 33.5334 90.6576 36.0335C90.9658 37.051 91.1133 38.1101 91.0947 39.1729C91.0947 42.0217 90.4244 44.1148 89.0839 45.452C87.7433 46.7893 85.645 47.4579 82.7891 47.4579H63.9928V16.9346ZM83.2265 37.865C83.2265 36.1202 82.3519 35.2478 80.6028 35.2478H71.8613V41.3538H80.604C82.3531 41.3538 83.2277 40.4814 83.2277 38.7366L83.2265 37.865ZM81.9147 25.6556C81.9147 23.9108 81.0401 23.0384 79.291 23.0384H71.8613V29.144H79.2924C81.0415 29.144 81.9161 28.2716 81.9161 26.5268L81.9147 25.6556Z" fill="#5474F6"/>
<path d="M0.171875 51.9775H18.5313C21.5912 51.9775 23.8132 52.668 25.1975 54.0489C26.5818 55.4297 27.274 57.6463 27.274 60.6986V65.059C27.274 68.1113 26.5818 70.3279 25.1975 71.7088C23.8132 73.0896 21.5912 73.7799 18.5313 73.7796H8.04033V82.5007H0.171875V51.9775ZM19.4055 60.6986C19.4055 58.9538 18.531 58.0814 16.7819 58.0814H8.04033V67.6753H16.7828C18.5319 67.6753 19.4065 66.8029 19.4065 65.0581L19.4055 60.6986ZM37.9835 82.5007H29.4596L41.0436 51.9775H49.7863L61.3703 82.5009H52.8462L50.8784 77.0504H39.9508L37.9835 82.5007ZM41.9176 71.3814H48.9116L45.4149 61.1346L41.9176 71.3814ZM60.4959 51.9775H68.8014L76.014 66.8032L83.2267 51.9775H91.5321L79.9481 74.4339V82.5009H72.0799V74.4339L60.4959 51.9775Z" fill="white"/>
</g>
</g>
<defs>
<clipPath id="clip0_169_100">
<rect width="100" height="100" fill="white"/>
</clipPath>
</defs>
</svg>
