<svg width="100" height="100" viewBox="0 0 100 100" fill="none" xmlns="http://www.w3.org/2000/svg">
<path d="M42.0566 7.94385C65.2834 7.94411 84.1123 26.7737 84.1123 50.0005C84.112 73.2271 65.2832 92.0559 42.0566 92.0562C18.8298 92.0562 0.000261858 73.2272 0 50.0005C0 26.7735 18.8297 7.94385 42.0566 7.94385ZM15.875 50.5249C13.244 50.5249 11.3865 52.0042 11.3779 54.145V54.1528C11.3779 55.9842 12.4612 57.1539 14.9805 57.687L16.3389 57.979C17.9809 58.3315 18.6512 58.9506 18.6514 59.9048V59.9136C18.6514 61.0657 17.5254 61.8569 15.9434 61.8569C14.2839 61.8569 13.0885 61.1346 12.9854 60.0083L12.9766 59.9136H11.085L11.0938 60.0259C11.2659 62.115 13.0634 63.5337 15.8662 63.5337C18.755 63.5336 20.6035 62.0541 20.6035 59.6812V59.6733C20.6035 57.8335 19.5375 56.784 16.9326 56.2251L15.582 55.9243C13.9743 55.5804 13.3213 54.978 13.3213 54.0581V54.0503C13.3213 52.881 14.3956 52.2017 15.8486 52.2017C17.3533 52.1931 18.3249 52.9322 18.4883 53.9468L18.5059 54.0581H20.3711L20.3623 53.938C20.2246 52.0123 18.5057 50.5251 15.875 50.5249ZM32.7119 50.5249C29.2383 50.5249 26.9942 53.0784 26.9941 57.0161V57.0337C26.9942 61.0229 29.2121 63.5336 32.7285 63.5337C35.9785 63.5337 38.0849 61.4958 38.085 58.3491V56.8101H32.9951V58.3657H36.1855V58.6411C36.1684 60.5497 34.7838 61.8304 32.7549 61.8306C30.4248 61.8306 28.9629 59.9911 28.9629 57.0249V57.0073C28.963 54.0842 30.4163 52.2271 32.7119 52.2271C34.4141 52.2272 35.6008 53.0528 36.0479 54.5229L36.0732 54.6089H37.999L37.9824 54.5229C37.5353 52.1242 35.5319 50.525 32.7119 50.5249ZM22.8018 50.8257V63.2329H24.7275V50.8257H22.8018ZM40.4033 50.8257V63.2329H42.2783V54.2222H42.415L48.7871 63.2329H50.5234V50.8257H48.6494V59.854H48.5205L42.1406 50.8257H40.4033ZM53.3057 50.8257V63.2329H61.1816V61.5728H55.2314V57.7124H60.8633V56.1138H55.2314V52.4849H61.1816V50.8257H53.3057ZM63.6289 50.8257V63.2329H65.5547V58.4604H68.2715L70.7998 63.2329H73.0264L70.2412 58.1597C71.7541 57.6523 72.6483 56.2941 72.6484 54.6265V54.6089C72.6484 52.3048 71.0663 50.8258 68.5215 50.8257H63.6289ZM68.2715 52.4419C69.7589 52.4419 70.6709 53.285 70.6709 54.6606V54.6772C70.6709 56.0873 69.8109 56.896 68.332 56.896H65.5547V52.4419H68.2715ZM31.2646 34.9478C28.6336 34.9478 26.7762 36.427 26.7676 38.5679V38.5767C26.7677 40.4079 27.8511 41.5768 30.3701 42.1099L31.7285 42.4028C33.3707 42.7553 34.042 43.3743 34.042 44.3286V44.3374C34.0418 45.4893 32.9149 46.2798 31.333 46.2798C29.6737 46.2797 28.4791 45.5574 28.376 44.4312L28.3672 44.3374H26.4756L26.4844 44.4487C26.6563 46.538 28.4529 47.9565 31.2559 47.9565C34.1448 47.9565 35.9931 46.4779 35.9932 44.105V44.0962C35.9931 42.2564 34.9272 41.2078 32.3223 40.6489L30.9717 40.3472C29.3642 40.0032 28.711 39.4018 28.7109 38.4819V38.4731C28.711 37.304 29.7855 36.6246 31.2383 36.6245C32.7429 36.6159 33.7146 37.3561 33.8779 38.3706L33.8955 38.4819H35.7617L35.7529 38.3618C35.6154 36.4359 33.8955 34.9478 31.2646 34.9478ZM41.7168 35.2495L37.2363 47.6558H39.2578L40.3838 44.3022H45.1299L46.248 47.6558H48.2764L43.7969 35.2495H41.7168ZM47.9121 35.2495V36.9087H51.8154V47.6558H53.7422V36.9087H57.6367V35.2495H47.9121ZM42.8252 37.4243L44.6143 42.7554H40.8994L42.6797 37.4243H42.8252Z" fill="white"/>
<path d="M42.0566 7.94385C65.2834 7.94411 84.1123 26.7737 84.1123 50.0005C84.112 73.2271 65.2832 92.0559 42.0566 92.0562C18.8298 92.0562 0.000261858 73.2272 0 50.0005C0 26.7735 18.8297 7.94385 42.0566 7.94385ZM15.875 50.5249C13.244 50.5249 11.3865 52.0042 11.3779 54.145V54.1528C11.3779 55.9842 12.4612 57.1539 14.9805 57.687L16.3389 57.979C17.9809 58.3315 18.6512 58.9506 18.6514 59.9048V59.9136C18.6514 61.0657 17.5254 61.8569 15.9434 61.8569C14.2839 61.8569 13.0885 61.1346 12.9854 60.0083L12.9766 59.9136H11.085L11.0938 60.0259C11.2659 62.115 13.0634 63.5337 15.8662 63.5337C18.755 63.5336 20.6035 62.0541 20.6035 59.6812V59.6733C20.6035 57.8335 19.5375 56.784 16.9326 56.2251L15.582 55.9243C13.9743 55.5804 13.3213 54.978 13.3213 54.0581V54.0503C13.3213 52.881 14.3956 52.2017 15.8486 52.2017C17.3533 52.1931 18.3249 52.9322 18.4883 53.9468L18.5059 54.0581H20.3711L20.3623 53.938C20.2246 52.0123 18.5057 50.5251 15.875 50.5249ZM32.7119 50.5249C29.2383 50.5249 26.9942 53.0784 26.9941 57.0161V57.0337C26.9942 61.0229 29.2121 63.5336 32.7285 63.5337C35.9785 63.5337 38.0849 61.4958 38.085 58.3491V56.8101H32.9951V58.3657H36.1855V58.6411C36.1684 60.5497 34.7838 61.8304 32.7549 61.8306C30.4248 61.8306 28.9629 59.9911 28.9629 57.0249V57.0073C28.963 54.0842 30.4163 52.2271 32.7119 52.2271C34.4141 52.2272 35.6008 53.0528 36.0479 54.5229L36.0732 54.6089H37.999L37.9824 54.5229C37.5353 52.1242 35.5319 50.525 32.7119 50.5249ZM22.8018 50.8257V63.2329H24.7275V50.8257H22.8018ZM40.4033 50.8257V63.2329H42.2783V54.2222H42.415L48.7871 63.2329H50.5234V50.8257H48.6494V59.854H48.5205L42.1406 50.8257H40.4033ZM53.3057 50.8257V63.2329H61.1816V61.5728H55.2314V57.7124H60.8633V56.1138H55.2314V52.4849H61.1816V50.8257H53.3057ZM63.6289 50.8257V63.2329H65.5547V58.4604H68.2715L70.7998 63.2329H73.0264L70.2412 58.1597C71.7541 57.6523 72.6483 56.2941 72.6484 54.6265V54.6089C72.6484 52.3048 71.0663 50.8258 68.5215 50.8257H63.6289ZM68.2715 52.4419C69.7589 52.4419 70.6709 53.285 70.6709 54.6606V54.6772C70.6709 56.0873 69.8109 56.896 68.332 56.896H65.5547V52.4419H68.2715ZM31.2646 34.9478C28.6336 34.9478 26.7762 36.427 26.7676 38.5679V38.5767C26.7677 40.4079 27.8511 41.5768 30.3701 42.1099L31.7285 42.4028C33.3707 42.7553 34.042 43.3743 34.042 44.3286V44.3374C34.0418 45.4893 32.9149 46.2798 31.333 46.2798C29.6737 46.2797 28.4791 45.5574 28.376 44.4312L28.3672 44.3374H26.4756L26.4844 44.4487C26.6563 46.538 28.4529 47.9565 31.2559 47.9565C34.1448 47.9565 35.9931 46.4779 35.9932 44.105V44.0962C35.9931 42.2564 34.9272 41.2078 32.3223 40.6489L30.9717 40.3472C29.3642 40.0032 28.711 39.4018 28.7109 38.4819V38.4731C28.711 37.304 29.7855 36.6246 31.2383 36.6245C32.7429 36.6159 33.7146 37.3561 33.8779 38.3706L33.8955 38.4819H35.7617L35.7529 38.3618C35.6154 36.4359 33.8955 34.9478 31.2646 34.9478ZM41.7168 35.2495L37.2363 47.6558H39.2578L40.3838 44.3022H45.1299L46.248 47.6558H48.2764L43.7969 35.2495H41.7168ZM47.9121 35.2495V36.9087H51.8154V47.6558H53.7422V36.9087H57.6367V35.2495H47.9121ZM42.8252 37.4243L44.6143 42.7554H40.8994L42.6797 37.4243H42.8252Z" fill="url(#paint0_radial_169_116)" fill-opacity="0.2"/>
<defs>
<radialGradient id="paint0_radial_169_116" cx="0" cy="0" r="1" gradientUnits="userSpaceOnUse" gradientTransform="translate(23.2335 31.5078) rotate(46.7848) scale(60.5029 61.4366)">
<stop offset="0.050607" stop-color="white"/>
<stop offset="1" stop-color="#666666"/>
</radialGradient>
</defs>
</svg>
