<svg width="2227" height="407" viewBox="0 0 2227 407" fill="none" xmlns="http://www.w3.org/2000/svg">
<path d="M615.547 148.1C626.864 148.1 636.525 150.032 644.806 154.034C653.086 158.037 659.85 163.42 665.232 170.32C670.615 177.083 674.617 185.087 677.239 194.334C679.861 203.443 681.103 213.38 681.103 224.007C681.103 240.292 678.067 255.612 671.995 270.241C666.06 284.594 658.055 297.154 647.704 307.919C637.353 318.546 625.209 326.964 610.993 333.313C596.916 339.386 581.596 342.422 565.173 342.422C563.103 342.422 559.238 342.421 553.856 342.007C548.749 342.007 542.677 341.594 535.914 340.628C529.152 339.662 521.837 338.281 514.108 336.349C506.655 334.417 499.479 331.933 492.578 328.621L553.579 72.3311L608.233 63.9121L586.427 154.862C591.119 152.792 595.812 151.136 600.504 149.894C605.197 148.652 610.303 148.1 615.685 148.1H615.547ZM569.727 298.948C578.007 298.948 585.736 297.015 593.051 293.013C600.366 289.011 606.577 283.766 611.683 277.142C617.066 270.379 621.344 262.65 624.38 254.232C627.416 245.813 628.935 236.98 628.935 227.733C628.935 216.416 627.002 207.583 623.276 201.235C619.549 194.886 612.649 191.712 602.436 191.712C599.123 191.712 594.846 192.264 589.325 193.506C584.219 194.748 579.388 197.095 575.248 200.959L551.923 297.568C553.304 297.844 554.546 297.982 555.512 298.258C556.754 298.534 557.858 298.672 559.1 298.948H569.727Z" fill="white"/>
<path d="M740.438 337.445H688.27L732.296 151.956H784.878L740.438 337.445ZM765.833 129.322C758.518 129.322 752.031 127.252 746.097 122.974C740.162 118.557 737.264 111.795 737.264 102.824C737.264 97.8554 738.23 93.301 740.024 89.0226C742.094 84.6062 744.854 80.7417 748.167 77.7055C751.479 74.3932 755.205 71.771 759.484 69.9768C763.9 68.0446 768.593 67.2168 773.561 67.2168C780.876 67.2168 787.362 69.4249 793.297 73.9793C799.231 78.2577 802.13 84.7442 802.13 93.715C802.13 98.6834 801.026 103.376 798.956 107.793C797.024 112.071 794.54 115.797 791.227 119.109C787.915 122.146 784.05 124.63 779.634 126.562C775.355 128.494 770.801 129.322 765.833 129.322Z" fill="white"/>
<path d="M831.549 105.733L886.202 97.3145L872.815 151.967H931.332L920.705 195.027H862.602L847.145 259.893C845.764 265.276 844.798 270.382 844.384 275.075C844.108 279.767 844.798 283.907 846.178 287.358C847.835 290.67 850.594 293.292 854.321 295.086C858.047 297.019 863.292 297.847 869.779 297.847C875.437 297.847 880.82 297.433 886.064 296.467C891.447 295.224 896.829 293.707 902.35 291.912L906.214 332.074C899.175 334.696 891.585 336.904 883.304 338.837C875.023 340.769 865.362 341.597 854.045 341.597C837.76 341.597 825.2 339.251 816.367 334.558C807.396 329.59 801.049 323.103 797.322 314.822C793.596 306.404 791.939 296.742 792.353 285.977C792.767 275.212 794.424 263.758 797.322 251.751L831.825 105.733H831.549Z" fill="white"/>
<path d="M926.096 263.328C926.096 247.318 928.718 232.275 933.824 218.198C938.931 204.121 946.384 191.699 956.045 181.21C965.706 170.583 977.299 162.303 990.962 156.23C1004.76 150.157 1020.22 147.121 1037.2 147.121C1047.82 147.121 1057.21 148.225 1065.35 150.296C1073.77 152.228 1081.5 154.712 1088.26 158.024L1070.32 198.876C1065.63 196.944 1060.66 195.288 1055.55 193.908C1050.58 192.251 1044.51 191.423 1037.2 191.423C1019.53 191.423 1005.73 197.358 995.655 209.365C985.58 221.096 980.473 237.243 980.473 257.669C980.473 269.676 983.095 279.475 988.201 286.928C993.308 294.243 1002.83 297.831 1016.77 297.831C1023.53 297.831 1030.16 297.141 1036.51 295.761C1042.85 294.381 1048.51 292.587 1053.48 290.516L1057.35 332.472C1050.72 335.095 1043.54 337.303 1035.54 339.235C1027.81 341.305 1018.29 342.409 1006.97 342.409C992.342 342.409 980.059 340.339 969.984 336.06C959.909 331.782 951.49 326.124 945.003 319.085C938.379 311.77 933.548 303.351 930.512 293.69C927.752 284.03 926.234 273.955 926.234 263.328H926.096Z" fill="white"/>
<path d="M1152.83 342.309C1140.41 342.309 1129.51 340.377 1120.4 336.65C1111.29 332.924 1103.56 327.541 1097.49 320.779C1091.55 314.016 1087.14 306.011 1084.1 296.764C1081.06 287.379 1079.54 277.029 1079.54 265.711C1079.54 251.634 1081.75 237.557 1086.31 223.342C1091 209.265 1097.76 196.567 1106.73 185.25C1115.7 173.933 1126.61 164.825 1139.58 157.786C1152.55 150.471 1167.32 146.883 1184.02 146.883C1196.3 146.883 1206.93 148.815 1216.04 152.541C1225.42 156.268 1233.02 161.65 1238.95 168.413C1245.02 175.175 1249.58 183.318 1252.75 192.703C1255.79 201.812 1257.31 212.025 1257.31 223.342C1257.31 237.419 1255.1 251.496 1250.54 265.711C1246.13 279.789 1239.5 292.486 1230.81 303.803C1222.11 315.12 1211.21 324.367 1197.96 331.682C1184.99 338.72 1169.94 342.309 1152.83 342.309ZM1178.91 191.461C1171.19 191.461 1164.29 193.669 1158.49 198.224C1152.55 202.64 1147.72 208.299 1143.72 215.199C1139.72 221.962 1136.68 229.552 1134.61 237.695C1132.68 245.7 1131.85 253.29 1131.85 260.605C1131.85 272.612 1133.78 281.859 1137.51 288.484C1141.24 294.832 1148.14 298.007 1157.94 298.007C1165.66 298.007 1172.57 295.798 1178.36 291.244C1184.3 286.828 1189.13 281.169 1193.13 274.269C1197.13 267.506 1200.03 260.053 1201.96 252.048C1204.03 243.768 1205.14 236.039 1205.14 228.724C1205.14 216.717 1203.2 207.608 1199.48 201.26C1195.75 194.635 1188.85 191.323 1179.05 191.323L1178.91 191.461Z" fill="white"/>
<path d="M1316.51 337.445H1264.34L1308.37 151.956H1360.95L1316.51 337.445ZM1341.91 129.322C1334.59 129.322 1328.11 127.252 1322.17 122.974C1316.24 118.557 1313.34 111.795 1313.34 102.824C1313.34 97.8554 1314.3 93.301 1316.1 89.0226C1318.17 84.6062 1320.93 80.7417 1324.24 77.7055C1327.55 74.3932 1331.28 71.771 1335.56 69.9768C1339.98 68.0446 1344.67 67.2168 1349.64 67.2168C1356.95 67.2168 1363.44 69.4249 1369.37 73.9793C1375.31 78.2577 1378.2 84.7442 1378.2 93.715C1378.2 98.6834 1377.1 103.376 1375.03 107.793C1373.1 112.071 1370.61 115.797 1367.3 119.109C1363.99 122.146 1360.12 124.63 1355.71 126.562C1351.43 128.494 1346.88 129.322 1341.91 129.322Z" fill="white"/>
<path d="M1399.73 160.428C1403.73 159.186 1408.01 157.944 1412.84 156.563C1417.81 154.907 1423.19 153.527 1429.13 152.285C1435.2 150.905 1441.96 149.801 1449.28 149.111C1456.73 148.145 1465.29 147.73 1474.67 147.73C1502.41 147.73 1521.46 155.735 1531.81 171.745C1542.16 187.754 1543.95 209.56 1537.05 237.301L1513.04 337.36H1460.46L1483.78 239.371C1485.16 233.299 1486.27 227.364 1486.96 221.705C1487.92 215.771 1487.92 210.802 1486.96 206.524C1485.99 202.108 1483.78 198.519 1480.19 195.897C1476.88 193.136 1471.77 191.618 1464.74 191.618C1457.7 191.618 1450.93 192.308 1443.9 193.688L1409.67 337.222H1357.09L1399.73 160.29V160.428Z" fill="white"/>
<path d="M1733.88 257.315C1730.57 270.702 1729.61 284.227 1730.99 297.891C1732.37 311.278 1735.13 323.285 1739.13 333.912L1691.79 340.675C1690.41 337.914 1689.03 335.154 1687.93 332.532C1686.68 329.91 1685.58 327.011 1684.34 323.699C1677.71 329.082 1670.26 333.636 1662.26 337.086C1654.11 340.675 1645.14 342.331 1635.2 342.331C1623.34 342.331 1613.12 340.399 1604.57 336.396C1596.29 332.118 1589.38 326.597 1583.86 319.835C1578.62 312.796 1574.89 304.653 1572.41 295.544C1570.06 286.159 1568.82 276.085 1568.82 265.596C1568.82 249.31 1571.72 234.129 1577.38 219.776C1583.31 205.422 1591.45 193.001 1601.53 182.374C1612.02 171.609 1624.16 163.053 1638.24 156.98C1652.32 150.907 1667.5 147.871 1683.79 147.871C1685.86 147.871 1689.58 147.871 1694.83 148.285C1700.35 148.561 1706.42 149.113 1713.32 150.079C1720.22 150.769 1727.4 152.012 1734.99 153.944C1742.58 155.876 1749.89 158.36 1756.66 161.672L1733.47 257.591L1733.88 257.315ZM1696.76 192.449C1693.72 192.035 1690.82 191.621 1688.2 191.345C1685.86 191.069 1682.82 190.931 1679.23 190.931C1671.09 190.931 1663.5 192.863 1656.46 196.865C1649.56 200.868 1643.49 206.112 1638.24 212.737C1633 219.085 1628.86 226.538 1625.82 234.957C1622.92 243.376 1621.54 252.208 1621.54 261.455C1621.54 272.772 1623.47 281.743 1627.2 288.23C1631.06 294.854 1637.96 298.167 1648.18 298.167C1653.7 298.167 1658.53 297.063 1662.81 294.993C1667.36 292.922 1672.05 289.334 1677.02 284.365C1677.44 278.431 1678.26 272.358 1679.09 266.01C1680.33 259.385 1681.44 253.45 1682.68 248.068L1696.62 192.311L1696.76 192.449Z" fill="#FF9500"/>
<path d="M1828.58 300.1C1840.72 300.1 1849 298.444 1853.56 295.132C1858.11 291.543 1860.32 287.817 1860.32 283.815C1860.32 281.193 1859.91 278.984 1858.94 277.052C1858.25 275.12 1856.87 273.464 1855.07 271.808C1853.14 270.151 1850.52 268.495 1847.21 266.839C1843.9 264.907 1839.62 262.837 1834.37 260.491C1828.44 257.869 1822.92 255.246 1817.67 252.348C1812.43 249.311 1807.87 245.723 1803.73 241.721C1799.87 237.442 1796.83 232.75 1794.49 227.644C1792.42 222.261 1791.31 215.913 1791.31 208.598C1791.31 189.552 1798.35 174.509 1812.29 163.468C1826.51 152.427 1847.21 146.906 1874.26 146.906C1887.09 146.906 1898.55 148.286 1908.49 151.185C1918.42 153.945 1926.57 157.119 1932.78 160.293L1914.56 199.489C1909.59 196.867 1903.1 194.382 1895.37 192.036C1887.51 189.69 1879.78 188.448 1872.19 188.448C1868.88 188.448 1865.56 188.724 1862.25 189.138C1859.22 189.414 1856.18 190.104 1853.28 191.208C1850.66 192.45 1848.59 193.969 1846.93 196.177C1845.28 198.247 1844.45 201.145 1844.45 204.595C1844.45 209.288 1846.24 212.876 1849.83 215.223C1853.69 217.569 1858.8 220.329 1865.56 223.641C1874.81 228.058 1882.54 232.198 1888.75 235.925C1894.96 239.651 1899.79 243.653 1903.38 247.932C1907.24 252.21 1909.87 257.04 1911.52 262.423C1913.18 267.805 1914.01 274.154 1914.01 281.469C1914.01 288.783 1912.35 296.374 1909.04 303.688C1906 311.003 1901.03 317.49 1894.13 323.148C1887.23 328.807 1878.4 333.361 1867.77 336.95C1857.15 340.538 1844.31 342.194 1829.27 342.194C1820.02 342.194 1811.6 341.642 1804.01 340.4C1796.7 339.158 1790.07 337.778 1784.41 336.121C1778.75 334.189 1773.79 332.395 1769.78 330.463C1765.92 328.531 1763.02 327.013 1760.81 325.909L1779.03 285.747C1783.03 288.093 1789.38 290.992 1797.94 294.58C1806.49 298.168 1816.85 299.824 1828.99 299.824L1828.58 300.1Z" fill="#FF9500"/>
<path d="M1984.38 337.486H1931.66L1973.76 170.49H2026.89L1984.52 337.486H1984.38ZM2006.19 147.994C1999.15 147.994 1992.8 145.924 1987.14 141.922C1981.48 137.643 1978.72 131.295 1978.72 122.738C1978.72 118.046 1979.69 113.629 1981.49 109.627C1983.56 105.348 1986.18 101.76 1989.35 98.8618C1992.53 95.6875 1996.11 93.2035 2000.25 91.4094C2004.53 89.6152 2009.09 88.7871 2013.78 88.7871C2020.82 88.7871 2027.17 90.8572 2032.83 95.1356C2038.48 99.1379 2041.24 105.486 2041.24 113.905C2041.24 118.598 2040.28 123.014 2038.21 127.292C2036.41 131.295 2033.93 134.883 2030.76 138.057C2027.58 140.956 2023.86 143.302 2019.58 145.096C2015.57 146.89 2011.16 147.718 2006.33 147.718L2006.19 147.994Z" fill="#FF9500"/>
<path d="M2203.96 257.315C2200.65 270.702 2199.68 284.227 2201.06 297.891C2202.44 311.278 2205.2 323.285 2209.2 333.912L2161.87 340.675C2160.49 337.914 2159.11 335.154 2158 332.532C2156.76 329.91 2155.66 327.011 2154.41 323.699C2147.79 329.082 2140.34 333.636 2132.33 337.086C2124.19 340.675 2115.22 342.331 2105.28 342.331C2093.41 342.331 2083.2 340.399 2074.64 336.396C2066.36 332.118 2059.46 326.597 2053.94 319.835C2048.7 312.796 2044.97 304.653 2042.48 295.544C2040.14 286.159 2038.9 276.085 2038.9 265.596C2038.9 249.31 2041.79 234.129 2047.45 219.776C2053.39 205.422 2061.53 193.001 2071.61 182.374C2082.09 171.609 2094.24 163.053 2108.32 156.98C2122.39 150.907 2137.58 147.871 2153.86 147.871C2155.93 147.871 2159.66 147.871 2164.9 148.285C2170.42 148.561 2176.5 149.113 2183.4 150.079C2190.3 150.769 2197.47 152.012 2205.06 153.944C2212.65 155.876 2219.97 158.36 2226.73 161.672L2203.55 257.591L2203.96 257.315ZM2166.97 192.449C2163.94 192.035 2161.04 191.621 2158.42 191.345C2156.07 191.069 2153.03 190.931 2149.44 190.931C2141.3 190.931 2133.71 192.863 2126.67 196.865C2119.77 200.868 2113.7 206.112 2108.46 212.737C2103.21 219.085 2099.07 226.538 2096.03 234.957C2093.14 243.376 2091.76 252.208 2091.76 261.455C2091.76 272.772 2093.69 281.743 2097.41 288.23C2101.28 294.854 2108.18 298.167 2118.39 298.167C2123.91 298.167 2128.74 297.063 2133.02 294.993C2137.58 292.922 2142.27 289.334 2147.24 284.365C2147.65 278.431 2148.48 272.358 2149.31 266.01C2150.55 259.385 2151.65 253.45 2152.9 248.068L2166.83 192.311L2166.97 192.449Z" fill="#FF9500"/>
<path d="M375.946 193.356V192.942H317.015C317.015 192.942 317.567 197.358 317.567 202.879C317.567 208.399 317.015 213.092 317.015 213.092H375.946V212.678C375.946 212.678 376.223 206.881 376.223 203.017C376.223 199.153 376.222 194.046 375.946 193.356ZM210.469 29.9489C208.123 29.8109 199.843 29.8108 197.772 29.8108C196.668 29.9488 195.426 29.9489 195.012 29.9489H194.184V60.4496H211.849V29.9489H210.469ZM194.184 345.722V376.084H196.254C197.358 376.222 200.394 376.223 203.016 376.223C205.638 376.223 208.675 376.222 209.779 376.084H211.849V345.722H194.184ZM89.0183 192.942H30.0866V193.356C30.0866 193.356 29.8104 199.291 29.8104 203.017C29.8104 206.743 29.9486 211.987 30.0866 212.678V213.092H89.0183C89.0183 213.092 88.6039 207.709 88.6039 203.017C88.6039 198.324 89.0183 192.942 89.0183 192.942ZM375.946 192.942H317.015C317.015 192.942 317.567 197.358 317.567 202.879C317.567 208.399 317.015 213.092 317.015 213.092H375.946V212.678C375.946 212.678 376.223 206.881 376.223 203.017C376.223 199.153 376.222 194.046 375.946 193.356V192.942ZM203.016 0C90.9498 0 0 90.8126 0 203.017C0 315.221 90.9498 406.033 203.016 406.033C315.082 406.033 406.033 315.083 406.033 203.017C406.033 90.9506 315.22 0 203.016 0ZM182.452 90.3985C182.452 90.3985 186.455 89.7082 189.767 89.2942C193.218 88.8802 197.22 88.7424 197.22 88.7424V72.0426H182.452V19.184H183.005C186.041 18.7699 191.147 18.3558 194.736 18.2178C196.392 18.2178 197.772 18.08 197.91 18.08C198.462 18.08 209.641 18.2178 211.711 18.2178C215.161 18.3558 220.544 18.7699 223.028 19.184H223.581V72.0426H208.813V88.7424C208.813 88.7424 212.402 88.8802 215.852 89.2942C219.164 89.5702 223.581 90.3985 223.581 90.3985V101.992H222.89C216.403 100.749 209.779 100.059 203.016 100.059C196.253 100.059 189.63 100.749 183.143 101.992H182.452V90.3985ZM164.925 327.918C164.925 367.942 164.925 384.089 164.925 384.089C164.649 384.089 159.68 382.985 157.334 382.295C138.288 377.465 120.347 369.598 103.786 359.109C72.4569 339.097 47.7519 309.977 33.1225 275.888C28.8441 265.951 25.2559 254.909 22.9097 244.558C22.6337 243.592 22.4961 242.764 22.4961 242.626C22.4961 242.488 26.4982 242.488 50.6504 242.488H59.2071V224.823H19.4594C19.4594 224.823 19.1838 222.476 19.0458 220.406C18.4938 215.576 18.2178 208.399 18.2178 203.017C18.2178 197.634 18.4938 190.458 19.0458 185.627C19.1838 183.557 19.3214 181.625 19.4594 181.487V181.211H59.2071V163.545H50.6504C26.4982 163.545 22.4961 163.545 22.4961 163.407C22.4961 163.407 22.6337 162.441 22.9097 161.475C25.2559 151.262 28.8441 140.083 33.1225 130.146C47.7519 96.0571 72.4569 66.9365 103.786 46.9246C120.347 36.4357 138.288 28.7066 157.334 23.7382C159.68 23.1861 164.649 22.0821 164.925 22.0821C164.925 22.0821 164.925 38.0915 164.925 78.1152V107.512C160.785 109.03 156.92 110.962 153.194 113.032C153.194 113.032 152.366 113.446 150.986 114.274C148.916 115.517 146.845 116.759 144.913 118.139C142.843 119.519 140.635 121.037 138.841 122.693C134.286 126.144 130.146 130.146 126.419 134.286H63.3473L64.3135 132.492C67.3498 126.696 69.8344 122.279 73.2847 117.035C87.0859 96.333 105.856 79.0813 127.662 66.9362C129.594 65.8321 133.32 63.9002 134.562 63.3482L135.528 62.796V99.5074H123.797V82.9457C123.797 82.9457 117.449 87.3623 114.688 89.5705C103.509 98.2653 93.1583 109.168 85.1536 120.485C84.8775 120.899 84.3252 121.59 84.0492 122.004L83.6356 122.555H121.589C130.284 114.137 138.84 107.098 153.194 99.9214V79.9094C153.194 56.4473 153.194 37.1254 153.194 37.1254C152.918 37.1254 147.121 39.0578 143.947 40.2999C124.763 47.2005 106.546 57.8275 91.2261 70.9387C77.2869 82.6698 65.556 96.3331 56.0331 111.514C48.7184 123.246 43.1978 135.114 38.6434 148.916L37.539 151.952H113.86C111.652 155.678 109.72 159.543 108.064 163.683H70.9387V181.349H102.543C101.025 188.249 100.197 195.564 100.197 203.017C100.197 210.47 101.025 217.784 102.543 224.823H70.9387V242.488H108.064C109.72 246.629 111.652 250.493 113.86 254.219H37.539L38.6434 257.256C41.6796 266.365 44.7157 273.679 48.718 281.684C55.4806 294.795 63.4858 306.526 73.2847 317.705C77.5631 322.536 83.2217 328.194 88.0521 332.611C104.476 347.24 123.521 358.419 143.947 365.872C147.121 367.114 152.918 369.046 153.194 369.046C153.194 369.046 153.194 349.724 153.194 326.262V306.112C136.218 297.97 125.453 287.481 121.589 283.616H83.6356L84.1874 284.168C84.1874 284.168 84.8777 285.272 85.2917 285.686C93.1584 297.003 103.509 307.906 114.688 316.601C117.449 318.809 123.521 323.226 123.797 323.226V306.664H135.528V343.376L134.562 342.824C133.32 342.272 129.732 340.339 127.662 339.235C105.856 327.09 87.0859 309.839 73.2847 289.137C69.9724 283.892 67.3498 279.476 64.3135 273.679L63.3473 271.885H126.419C130.422 276.301 134.7 280.304 139.392 284.03C139.806 284.306 140.221 284.582 140.635 284.996C147.95 290.517 156.092 295.209 164.925 298.66V327.918ZM166.305 266.641L171.273 245.386C168.375 244.696 165.477 243.869 162.578 243.04L146.707 238.9L152.78 224.409C152.78 224.409 161.336 226.755 161.612 226.755C165.063 227.583 166.581 225.237 167.271 223.719L175.138 190.32C175.138 190.32 176.104 190.596 176.518 190.596C175.966 190.458 175.552 190.319 175.276 190.181L180.934 166.444C181.072 163.683 180.107 160.233 175.276 158.991L166.305 156.644L169.617 143.119L186.455 147.398C188.939 148.226 191.562 148.778 194.184 149.468L199.152 128.49L211.297 131.664L206.466 152.228C209.641 152.918 212.953 153.746 216.127 154.574L221.096 134.286L233.241 137.323L228.273 158.301C243.592 163.821 254.771 172.102 252.563 187.56C251.045 198.877 244.972 204.397 237.106 206.329C248.009 212.264 253.529 221.373 248.285 237.106C241.66 256.842 226.065 258.498 205.363 254.358L200.256 275.474L188.111 272.299L193.08 251.459C189.905 250.631 186.731 249.803 183.418 248.837L178.45 269.815L166.305 266.641ZM223.581 315.635C223.581 315.635 219.578 316.325 216.266 316.739C212.815 317.153 208.813 317.291 208.813 317.291V333.991H223.581V386.849H223.028C220.268 387.263 215.162 387.678 211.297 387.816C207.847 387.954 198.186 387.954 194.736 387.816C190.871 387.678 185.765 387.264 183.005 386.988H182.452V333.991H197.22V317.291C197.22 317.291 192.804 317.153 189.905 316.739C187.007 316.325 182.452 315.635 182.452 315.635V304.042H182.59C189.215 305.284 195.977 305.974 203.016 305.974C210.055 305.974 216.818 305.284 223.442 304.042V315.635H223.581ZM386.712 224.547L347.101 224.685V242.351H355.521C379.673 242.351 383.675 242.35 383.675 242.488C383.675 242.626 383.675 243.455 383.399 244.421C381.052 254.772 377.326 265.812 373.048 275.749C358.556 309.839 333.714 338.959 302.385 358.971C285.824 369.598 268.02 377.327 248.836 382.157C246.49 382.847 241.522 383.951 241.384 383.951C241.246 383.951 241.384 367.942 241.384 327.78V298.66C256.151 292.725 269.263 283.478 279.752 271.747H342.823L341.858 273.541C338.959 279.338 336.337 283.754 332.886 288.998C319.085 309.7 300.315 326.952 278.509 339.097C276.577 340.201 272.851 342.134 271.747 342.686L270.643 343.238V306.526H282.373V323.088C282.373 323.088 288.722 318.671 291.483 316.601C302.662 307.906 313.151 296.865 321.017 285.686C321.294 285.134 321.845 284.444 322.121 284.03L322.535 283.478H284.582C280.028 287.894 271.195 297.142 252.977 306.112V326.124C252.977 349.724 253.115 368.908 253.115 368.908C253.391 368.908 259.188 366.976 262.362 365.872C281.546 358.833 299.764 348.344 315.083 335.095C329.022 323.364 340.753 309.701 350.276 294.519C357.591 282.788 363.111 270.919 367.666 257.118L368.769 254.219H305.008L292.449 254.081C294.657 250.355 296.589 246.491 298.245 242.488H335.37V224.823H303.904V224.547C305.284 217.508 306.112 210.332 306.112 203.017C306.112 195.702 305.284 188.388 303.904 181.487V181.211H335.37V163.545H298.245C296.589 159.543 294.657 155.54 292.449 151.814H368.769L367.666 148.778C364.63 139.669 361.593 132.354 357.59 124.35C350.828 111.238 342.823 99.5074 333.025 88.3284C328.746 83.498 323.088 77.8392 318.257 73.4228C301.834 58.9315 282.788 47.6144 262.362 40.1617C259.188 39.0576 253.391 36.9877 253.115 36.9877C252.977 36.9877 252.977 56.3091 252.977 79.7713V99.9214C271.333 108.478 284.582 122.555 284.582 122.555H322.535L321.984 121.865C321.984 121.865 321.294 120.899 321.017 120.347C313.013 109.03 302.662 98.1271 291.483 89.4323C288.722 87.2241 282.649 82.8076 282.373 82.8076V99.5074H270.643V62.796L271.609 63.21C272.851 63.7621 276.439 65.6944 278.509 66.7985C300.315 78.9436 319.085 96.195 332.886 117.035C336.337 122.141 338.821 126.558 341.858 132.354L342.823 134.148H279.752C276.026 130.008 271.747 126.006 267.33 122.555C264.156 119.657 260.154 117.173 257.118 115.241C256.842 115.103 256.427 114.827 256.151 114.689C254.219 113.585 252.977 112.895 252.977 112.895C249.251 110.824 245.386 108.892 241.246 107.374V78.1152C241.246 38.0915 241.384 21.9444 241.384 21.9444C241.66 21.9444 246.628 23.1861 248.974 23.7382C268.02 28.5686 285.962 36.4357 302.523 46.9246C333.852 66.9365 358.556 96.0571 373.186 130.146C377.464 140.083 381.052 151.262 383.399 161.475C383.675 162.441 383.813 163.407 383.813 163.407C383.813 163.545 379.811 163.545 355.659 163.545H347.101V181.211H386.849C386.849 181.211 387.125 183.557 387.263 185.627C387.815 190.458 388.091 197.634 388.091 203.017C388.091 208.399 387.815 215.576 387.263 220.406C386.987 222.338 386.85 224.271 386.712 224.547ZM228.687 187.283C232.275 172.378 210.193 169.066 203.292 167.272L197.22 192.666C204.12 194.46 225.237 201.775 228.687 187.283ZM224.96 228.411C228.825 211.85 202.465 207.571 194.184 205.501L187.421 233.518C195.702 235.588 221.234 244.145 224.96 228.411ZM194.184 376.084H196.254C197.358 376.222 200.394 376.223 203.016 376.223C205.638 376.223 208.675 376.222 209.779 376.084H211.849V345.722H194.184V376.084ZM211.711 29.9489H210.331C207.985 29.8109 199.704 29.8108 197.634 29.8108C196.53 29.9488 195.288 29.9489 194.874 29.9489H194.046V60.4496H211.711V29.9489ZM88.6039 203.017C88.6039 198.324 89.0183 192.942 89.0183 192.942H30.0866V193.356C30.0866 193.356 29.8104 199.291 29.8104 203.017C29.8104 206.743 29.9486 211.987 30.0866 212.678V213.092H89.0183C89.0183 213.092 88.6039 207.709 88.6039 203.017ZM194.184 345.722V376.084H196.254C197.358 376.222 200.394 376.223 203.016 376.223C205.638 376.223 208.675 376.222 209.779 376.084H211.849V345.722H194.184ZM89.0183 192.942H30.0866V193.356C30.0866 193.356 29.8104 199.291 29.8104 203.017C29.8104 206.743 29.9486 211.987 30.0866 212.678V213.092H89.0183C89.0183 213.092 88.6039 207.709 88.6039 203.017C88.6039 198.324 89.0183 192.942 89.0183 192.942ZM375.946 193.356V192.942H317.015C317.015 192.942 317.567 197.358 317.567 202.879C317.567 208.399 317.015 213.092 317.015 213.092H375.946V212.678C375.946 212.678 376.223 206.881 376.223 203.017C376.223 199.153 376.222 194.046 375.946 193.356ZM210.469 29.9489C208.123 29.8109 199.843 29.8108 197.772 29.8108C196.668 29.9488 195.426 29.9489 195.012 29.9489H194.184V60.4496H211.849V29.9489H210.469Z" fill="#FF9500"/>
<path d="M252.539 187.528C254.747 172.071 243.568 163.79 228.249 158.269L233.217 137.292L221.073 134.255L216.104 154.543C212.929 153.715 209.617 152.887 206.442 152.197L211.273 131.633L199.128 128.459L194.16 149.437C191.538 148.747 188.916 148.194 186.431 147.504L169.593 143.088L166.281 156.613C166.281 156.613 175.252 158.822 175.252 158.96C180.083 160.202 181.048 163.652 180.91 166.412L175.252 190.15C175.252 190.15 175.942 190.427 176.494 190.565C176.08 190.565 175.666 190.426 175.114 190.288L167.247 223.688C166.557 225.206 165.039 227.552 161.588 226.724C161.312 226.724 152.756 224.378 152.756 224.378L146.684 238.869L162.555 243.009C165.453 243.837 168.351 244.665 171.249 245.355L166.281 266.609L178.426 269.784L183.395 248.806C186.707 249.772 189.881 250.6 193.056 251.428L188.087 272.268L200.233 275.442L205.339 254.326C226.041 258.467 241.636 256.811 248.261 237.075C253.505 221.341 247.985 212.232 237.082 206.298C244.948 204.366 251.021 198.845 252.539 187.528ZM224.937 228.38C221.21 244.113 195.678 235.557 187.397 233.486L194.16 205.47C202.441 207.54 228.801 211.818 224.937 228.38ZM228.663 187.252C225.213 201.743 204.096 194.429 197.196 192.635L203.268 167.24C210.169 169.035 232.251 172.347 228.663 187.252Z" fill="white"/>
</svg>
