<svg width="1663" height="334" viewBox="0 0 1663 334" fill="none" xmlns="http://www.w3.org/2000/svg">
<path d="M695.668 39.1738C698.661 39.1738 701.216 39.6849 703.407 40.7435C705.597 41.8021 707.386 43.2259 708.809 45.0511C710.233 46.8398 711.292 48.957 711.985 51.4028C712.679 53.812 713.007 56.4403 713.007 59.2512C713.007 63.5586 712.204 67.6106 710.598 71.4801C709.028 75.2765 706.911 78.5984 704.173 81.4458C701.435 84.2566 698.223 86.4833 694.463 88.1625C690.74 89.7687 686.688 90.5718 682.344 90.5718C681.796 90.5718 680.774 90.5717 679.35 90.4622C678 90.4622 676.394 90.3528 674.605 90.0973C672.816 89.8417 670.881 89.4767 668.837 88.9656C666.866 88.4546 664.968 87.7975 663.143 86.9214L679.277 19.1331L693.733 16.9062L687.965 40.9625C689.207 40.4149 690.448 39.9769 691.689 39.6484C692.93 39.3199 694.281 39.1738 695.704 39.1738H695.668ZM683.548 79.0729C685.739 79.0729 687.783 78.5619 689.718 77.5033C691.652 76.4446 693.295 75.0575 694.646 73.3053C696.069 71.5166 697.201 69.4723 698.004 67.2456C698.807 65.0188 699.209 62.6825 699.209 60.2367C699.209 57.2434 698.698 54.9072 697.712 53.228C696.726 51.5488 694.901 50.7092 692.2 50.7092C691.324 50.7092 690.192 50.8552 688.732 51.1838C687.381 51.5123 686.104 52.1329 685.009 53.155L678.839 78.708C679.204 78.781 679.533 78.8174 679.788 78.8904C680.117 78.9634 680.409 78.9999 680.738 79.0729H683.548Z" fill="white"/>
<path d="M728.701 89.2545H714.902L726.547 40.1928H740.455L728.701 89.2545ZM735.418 34.2062C733.483 34.2062 731.767 33.6586 730.198 32.5269C728.628 31.3588 727.861 29.5701 727.861 27.1973C727.861 25.8832 728.117 24.6785 728.591 23.5469C729.139 22.3788 729.869 21.3566 730.745 20.5535C731.621 19.6774 732.607 18.9839 733.738 18.5093C734.907 17.9983 736.148 17.7793 737.462 17.7793C739.397 17.7793 741.112 18.3633 742.682 19.568C744.252 20.6996 745.018 22.4153 745.018 24.788C745.018 26.1022 744.726 27.3434 744.179 28.5115C743.668 29.6432 743.011 30.6287 742.135 31.5048C741.258 32.3079 740.236 32.965 739.068 33.4761C737.936 33.9871 736.732 34.2062 735.418 34.2062Z" fill="white"/>
<path d="M752.798 27.9689L767.253 25.7422L763.713 40.1978H779.19L776.379 51.5871H761.011L756.923 68.7441C756.558 70.1678 756.302 71.5185 756.193 72.7596C756.12 74.0008 756.302 75.0958 756.667 76.0084C757.105 76.8845 757.835 77.5781 758.821 78.0527C759.806 78.5637 761.194 78.7828 762.91 78.7828C764.406 78.7828 765.83 78.6733 767.217 78.4177C768.641 78.0892 770.064 77.6877 771.524 77.2131L772.546 87.8359C770.685 88.5295 768.677 89.1135 766.487 89.6246C764.297 90.1356 761.741 90.3546 758.748 90.3546C754.44 90.3546 751.118 89.7341 748.782 88.4929C746.409 87.1788 744.73 85.4631 743.745 83.2729C742.759 81.0461 742.321 78.4907 742.43 75.6434C742.54 72.7961 742.978 69.7663 743.745 66.5904L752.871 27.9689H752.798Z" fill="white"/>
<path d="M777.805 69.6487C777.805 65.4142 778.498 61.4353 779.849 57.7119C781.2 53.9884 783.171 50.703 785.726 47.9287C788.282 45.1178 791.348 42.9276 794.962 41.3214C798.612 39.7152 802.701 38.9121 807.191 38.9121C810.001 38.9121 812.484 39.2042 814.638 39.7517C816.864 40.2628 818.908 40.9199 820.697 41.796L815.952 52.6012C814.71 52.0901 813.396 51.6521 812.046 51.2871C810.732 50.849 809.125 50.63 807.191 50.63C802.518 50.63 798.868 52.1997 796.203 55.3755C793.538 58.4784 792.187 62.7494 792.187 68.152C792.187 71.3279 792.881 73.9197 794.232 75.8909C795.582 77.8256 798.101 78.7748 801.788 78.7748C803.577 78.7748 805.329 78.5923 807.008 78.2272C808.687 77.8622 810.184 77.3876 811.498 76.84L812.52 87.9373C810.768 88.6309 808.87 89.215 806.752 89.726C804.708 90.2736 802.189 90.5657 799.196 90.5657C795.327 90.5657 792.078 90.018 789.413 88.8864C786.748 87.7547 784.521 86.2581 782.806 84.3964C781.054 82.4617 779.776 80.2349 778.973 77.6796C778.243 75.1243 777.841 72.4595 777.841 69.6487H777.805Z" fill="white"/>
<path d="M837.78 90.5396C834.495 90.5396 831.611 90.0285 829.202 89.0429C826.793 88.0573 824.748 86.6336 823.142 84.8449C821.573 83.0562 820.404 80.9389 819.601 78.4931C818.798 76.0108 818.396 73.273 818.396 70.2797C818.396 66.5563 818.981 62.8329 820.185 59.073C821.426 55.3495 823.215 51.9911 825.588 48.9978C827.961 46.0044 830.845 43.5952 834.276 41.7335C837.707 39.7988 841.613 38.8496 846.03 38.8496C849.279 38.8496 852.09 39.3607 854.499 40.3463C856.981 41.3319 858.989 42.7556 860.559 44.5443C862.165 46.333 863.37 48.4867 864.209 50.969C865.013 53.3783 865.414 56.0796 865.414 59.073C865.414 62.7964 864.83 66.5197 863.625 70.2797C862.457 74.0031 860.705 77.3615 858.405 80.3549C856.105 83.3482 853.222 85.794 849.717 87.7287C846.286 89.5904 842.307 90.5396 837.78 90.5396ZM844.68 50.6405C842.635 50.6405 840.81 51.2245 839.277 52.4292C837.707 53.5973 836.43 55.094 835.371 56.9192C834.312 58.7079 833.509 60.7156 832.962 62.8693C832.451 64.9866 832.232 66.9943 832.232 68.929C832.232 72.1049 832.743 74.5508 833.728 76.303C834.714 77.9822 836.539 78.8218 839.131 78.8218C841.175 78.8218 843 78.2376 844.534 77.033C846.103 75.8648 847.381 74.3682 848.44 72.543C849.498 70.7543 850.265 68.783 850.776 66.6658C851.323 64.4755 851.615 62.4313 851.615 60.4966C851.615 57.3207 851.104 54.9115 850.119 53.2323C849.133 51.4801 847.308 50.604 844.716 50.604L844.68 50.6405Z" fill="white"/>
<path d="M881.07 89.2545H867.271L878.916 40.1928H892.824L881.07 89.2545ZM887.787 34.2062C885.852 34.2062 884.136 33.6586 882.567 32.5269C880.997 31.3588 880.23 29.5701 880.23 27.1973C880.23 25.8832 880.486 24.6785 880.961 23.5469C881.508 22.3788 882.238 21.3566 883.114 20.5535C883.991 19.6774 884.976 18.9839 886.108 18.5093C887.276 17.9983 888.517 17.7793 889.831 17.7793C891.766 17.7793 893.481 18.3633 895.051 19.568C896.621 20.6996 897.387 22.4153 897.387 24.788C897.387 26.1022 897.095 27.3434 896.548 28.5115C896.037 29.6432 895.38 30.6287 894.504 31.5048C893.628 32.3079 892.605 32.965 891.437 33.4761C890.306 33.9871 889.101 34.2062 887.787 34.2062Z" fill="white"/>
<path d="M903.08 42.4327C904.139 42.1041 905.271 41.7756 906.548 41.4105C907.863 40.9725 909.286 40.6073 910.856 40.2788C912.462 39.9138 914.251 39.6218 916.186 39.4393C918.157 39.1838 920.42 39.0742 922.902 39.0742C930.24 39.0742 935.277 41.1914 938.015 45.4259C940.753 49.6604 941.227 55.4281 939.402 62.7654L933.05 89.231H919.142L925.312 63.3131C925.677 61.7069 925.969 60.1372 926.151 58.6405C926.407 57.0709 926.407 55.7567 926.151 54.625C925.896 53.4569 925.312 52.5077 924.362 51.8142C923.486 51.0841 922.136 50.6825 920.274 50.6825C918.412 50.6825 916.624 50.865 914.762 51.2301L905.709 89.1945H891.801L903.08 42.3961V42.4327Z" fill="white"/>
<path d="M991.468 68.0552C990.592 71.5961 990.336 75.1736 990.701 78.7875C991.066 82.3284 991.796 85.5042 992.855 88.315L980.334 90.1038C979.969 89.3737 979.604 88.6437 979.312 87.9501C978.983 87.2565 978.691 86.4898 978.363 85.6137C976.61 87.0374 974.639 88.2421 972.522 89.1547C970.368 90.1038 967.995 90.5418 965.367 90.5418C962.228 90.5418 959.527 90.0308 957.263 88.9722C955.073 87.8406 953.248 86.3803 951.788 84.5916C950.4 82.7299 949.415 80.5761 948.758 78.1669C948.137 75.6846 947.809 73.0198 947.809 70.2455C947.809 65.938 948.575 61.9225 950.072 58.1261C951.642 54.3296 953.795 51.0443 956.46 48.2335C959.234 45.3861 962.447 43.1229 966.17 41.5167C969.894 39.9105 973.909 39.1074 978.217 39.1074C978.764 39.1074 979.75 39.1074 981.137 39.2169C982.597 39.2899 984.203 39.436 986.029 39.6915C987.854 39.874 989.752 40.2026 991.76 40.7136C993.767 41.2247 995.702 41.8817 997.491 42.7578L991.358 68.1282L991.468 68.0552ZM981.648 50.8982C980.845 50.7887 980.078 50.6792 979.385 50.6062C978.764 50.5332 977.961 50.4967 977.012 50.4967C974.858 50.4967 972.851 51.0077 970.989 52.0664C969.164 53.125 967.557 54.5121 966.17 56.2643C964.783 57.9435 963.688 59.9148 962.885 62.1416C962.118 64.3683 961.753 66.7045 961.753 69.1503C961.753 72.1437 962.264 74.5164 963.25 76.2321C964.272 77.9843 966.097 78.8604 968.799 78.8604C970.259 78.8604 971.536 78.5685 972.668 78.0209C973.873 77.4734 975.114 76.5242 976.428 75.21C976.538 73.6403 976.756 72.0342 976.975 70.355C977.304 68.6028 977.596 67.0331 977.925 65.6094L981.612 50.8618L981.648 50.8982Z" fill="#FF9500"/>
<path d="M1016.51 79.3771C1019.73 79.3771 1021.92 78.939 1023.12 78.0629C1024.33 77.1138 1024.91 76.1283 1024.91 75.0696C1024.91 74.3761 1024.8 73.7919 1024.54 73.2809C1024.36 72.7698 1024 72.3317 1023.52 71.8937C1023.01 71.4556 1022.32 71.0176 1021.44 70.5796C1020.57 70.0685 1019.43 69.521 1018.05 68.9004C1016.48 68.2068 1015.02 67.5132 1013.63 66.7466C1012.24 65.9435 1011.04 64.9944 1009.94 63.9358C1008.92 62.8042 1008.12 61.5631 1007.5 60.2124C1006.95 58.7887 1006.66 57.1095 1006.66 55.1748C1006.66 50.1372 1008.52 46.1583 1012.21 43.238C1015.97 40.3176 1021.44 38.8574 1028.6 38.8574C1031.99 38.8574 1035.02 39.2225 1037.65 39.989C1040.28 40.7191 1042.43 41.5587 1044.07 42.3983L1039.26 52.7655C1037.94 52.0719 1036.23 51.4148 1034.18 50.7943C1032.1 50.1737 1030.06 49.8452 1028.05 49.8452C1027.17 49.8452 1026.3 49.9182 1025.42 50.0277C1024.62 50.1007 1023.81 50.2832 1023.05 50.5752C1022.35 50.9038 1021.81 51.3054 1021.37 51.8895C1020.93 52.437 1020.71 53.2036 1020.71 54.1162C1020.71 55.3573 1021.19 56.3065 1022.13 56.9271C1023.16 57.5476 1024.51 58.2777 1026.3 59.1538C1028.74 60.3219 1030.79 61.4171 1032.43 62.4027C1034.07 63.3883 1035.35 64.4469 1036.3 65.5785C1037.32 66.7102 1038.01 67.9878 1038.45 69.4114C1038.89 70.8351 1039.11 72.5143 1039.11 74.449C1039.11 76.3838 1038.67 78.3914 1037.8 80.3262C1036.99 82.2609 1035.68 83.9766 1033.85 85.4733C1032.03 86.9699 1029.69 88.1746 1026.88 89.1237C1024.07 90.0728 1020.67 90.5109 1016.7 90.5109C1014.25 90.5109 1012.02 90.3648 1010.02 90.0363C1008.08 89.7077 1006.33 89.3427 1004.83 88.9047C1003.34 88.3936 1002.02 87.919 1000.96 87.408C999.94 86.8969 999.174 86.4954 998.59 86.2034L1003.41 75.5807C1004.47 76.2012 1006.15 76.9679 1008.41 77.917C1010.67 78.8661 1013.41 79.304 1016.62 79.304L1016.51 79.3771Z" fill="#FF9500"/>
<path d="M1057.73 89.2649H1043.78L1054.92 45.0948H1068.97L1057.76 89.2649H1057.73ZM1063.49 39.1446C1061.63 39.1446 1059.95 38.597 1058.46 37.5384C1056.96 36.4068 1056.23 34.7276 1056.23 32.4644C1056.23 31.2232 1056.48 30.0551 1056.96 28.9964C1057.51 27.8648 1058.2 26.9157 1059.04 26.1491C1059.88 25.3095 1060.83 24.6525 1061.92 24.178C1063.06 23.7034 1064.26 23.4844 1065.5 23.4844C1067.36 23.4844 1069.04 24.0319 1070.54 25.1635C1072.04 26.2222 1072.77 27.9013 1072.77 30.1281C1072.77 31.3692 1072.51 32.5373 1071.96 33.669C1071.49 34.7276 1070.83 35.6767 1069.99 36.5163C1069.15 37.2829 1068.17 37.9035 1067.03 38.378C1065.98 38.8526 1064.81 39.0716 1063.53 39.0716L1063.49 39.1446Z" fill="#FF9500"/>
<path d="M1115.8 68.0552C1114.92 71.5961 1114.67 75.1736 1115.03 78.7875C1115.4 82.3284 1116.13 85.5042 1117.19 88.315L1104.67 90.1038C1104.3 89.3737 1103.94 88.6437 1103.64 87.9501C1103.32 87.2565 1103.02 86.4898 1102.69 85.6137C1100.94 87.0374 1098.97 88.2421 1096.85 89.1547C1094.7 90.1038 1092.33 90.5418 1089.7 90.5418C1086.56 90.5418 1083.86 90.0308 1081.6 88.9722C1079.41 87.8406 1077.58 86.3803 1076.12 84.5916C1074.73 82.7299 1073.75 80.5761 1073.09 78.1669C1072.47 75.6846 1072.14 73.0198 1072.14 70.2455C1072.14 65.938 1072.91 61.9225 1074.4 58.1261C1075.97 54.3296 1078.13 51.0443 1080.79 48.2335C1083.57 45.3861 1086.78 43.1229 1090.5 41.5167C1094.23 39.9105 1098.24 39.1074 1102.55 39.1074C1103.1 39.1074 1104.08 39.1074 1105.47 39.2169C1106.93 39.2899 1108.54 39.436 1110.36 39.6915C1112.19 39.874 1114.08 40.2026 1116.09 40.7136C1118.1 41.2247 1120.03 41.8817 1121.82 42.7578L1115.69 68.1282L1115.8 68.0552ZM1106.02 50.8982C1105.21 50.7887 1104.45 50.6792 1103.75 50.6062C1103.13 50.5332 1102.33 50.4967 1101.38 50.4967C1099.23 50.4967 1097.22 51.0077 1095.36 52.0664C1093.53 53.125 1091.93 54.5121 1090.54 56.2643C1089.15 57.9435 1088.06 59.9148 1087.25 62.1416C1086.49 64.3683 1086.12 66.7045 1086.12 69.1503C1086.12 72.1437 1086.63 74.5164 1087.62 76.2321C1088.64 77.9843 1090.47 78.8604 1093.17 78.8604C1094.63 78.8604 1095.9 78.5685 1097.04 78.0209C1098.24 77.4734 1099.48 76.5242 1100.8 75.21C1100.91 73.6403 1101.12 72.0342 1101.34 70.355C1101.67 68.6028 1101.96 67.0331 1102.29 65.6094L1105.98 50.8618L1106.02 50.8982Z" fill="#FF9500"/>
<path d="M632.295 51.1424V51.0329H616.707C616.707 51.0329 616.854 52.2011 616.854 53.6612C616.854 55.1214 616.707 56.3625 616.707 56.3625H632.295V56.253C632.295 56.253 632.368 54.7199 632.368 53.6978C632.368 52.6757 632.368 51.325 632.295 51.1424ZM588.526 7.92146C587.906 7.88496 585.716 7.88492 585.168 7.88492C584.876 7.92143 584.547 7.92146 584.438 7.92146H584.219V15.9889H588.891V7.92146H588.526ZM584.219 91.4431V99.474H584.766C585.058 99.5105 585.861 99.5105 586.555 99.5105C587.249 99.5105 588.052 99.5105 588.344 99.474H588.891V91.4431H584.219ZM556.403 51.0329H540.815V51.1424C540.815 51.1424 540.742 52.7122 540.742 53.6978C540.742 54.6834 540.779 56.0705 540.815 56.253V56.3625H556.403C556.403 56.3625 556.293 54.9389 556.293 53.6978C556.293 52.4566 556.403 51.0329 556.403 51.0329ZM632.295 51.0329H616.707C616.707 51.0329 616.854 52.2011 616.854 53.6612C616.854 55.1214 616.707 56.3625 616.707 56.3625H632.295V56.253C632.295 56.253 632.368 54.7199 632.368 53.6978C632.368 52.6757 632.368 51.325 632.295 51.1424V51.0329ZM586.555 0C556.914 0 532.857 24.0198 532.857 53.6978C532.857 83.3757 556.914 107.395 586.555 107.395C616.196 107.395 640.253 83.3392 640.253 53.6978C640.253 24.0564 616.233 0 586.555 0ZM581.116 23.9103C581.116 23.9103 582.175 23.7277 583.051 23.6182C583.963 23.5087 585.022 23.4723 585.022 23.4723V19.0552H581.116V5.07414H581.262C582.065 4.96463 583.416 4.85509 584.365 4.81858C584.803 4.81858 585.168 4.78215 585.204 4.78215C585.35 4.78215 588.307 4.81858 588.855 4.81858C589.767 4.85509 591.191 4.96463 591.848 5.07414H591.994V19.0552H588.088V23.4723C588.088 23.4723 589.037 23.5087 589.95 23.6182C590.826 23.6912 591.994 23.9103 591.994 23.9103V26.9767H591.812C590.096 26.6481 588.344 26.4656 586.555 26.4656C584.766 26.4656 583.014 26.6481 581.299 26.9767H581.116V23.9103ZM576.48 86.734C576.48 97.3203 576.48 101.591 576.48 101.591C576.407 101.591 575.093 101.299 574.472 101.117C569.435 99.8391 564.689 97.7583 560.309 94.984C552.022 89.6909 545.488 81.9885 541.618 72.972C540.487 70.3437 539.538 67.4233 538.917 64.6855C538.844 64.4299 538.808 64.211 538.808 64.1745C538.808 64.138 539.866 64.1379 546.254 64.1379H548.518V59.4654H538.004C538.004 59.4654 537.932 58.8448 537.895 58.2972C537.749 57.0196 537.676 55.1214 537.676 53.6978C537.676 52.2741 537.749 50.3759 537.895 49.0982C537.932 48.5506 537.968 48.0396 538.004 48.0031V47.93H548.518V43.2575H546.254C539.866 43.2575 538.808 43.2576 538.808 43.2211C538.808 43.2211 538.844 42.9655 538.917 42.71C539.538 40.0087 540.487 37.0519 541.618 34.4236C545.488 25.407 552.022 17.7046 560.309 12.4115C564.689 9.6372 569.435 7.59288 574.472 6.27873C575.093 6.13271 576.407 5.8407 576.48 5.8407C576.48 5.8407 576.48 10.0752 576.48 20.6614V28.4368C575.385 28.8384 574.363 29.3494 573.377 29.897C573.377 29.897 573.158 30.0065 572.793 30.2255C572.245 30.554 571.698 30.8827 571.187 31.2477C570.639 31.6127 570.055 32.0142 569.581 32.4523C568.376 33.3649 567.281 34.4235 566.295 35.5186H549.613L549.868 35.0441C550.671 33.5109 551.329 32.3428 552.241 30.9556C555.892 25.48 560.856 20.9169 566.624 17.7046C567.135 17.4125 568.12 16.9015 568.449 16.7555L568.705 16.6095V26.3196H565.602V21.9391C565.602 21.9391 563.922 23.1072 563.192 23.6913C560.236 25.9911 557.498 28.8749 555.38 31.8682C555.307 31.9777 555.161 32.1603 555.088 32.2698L554.979 32.4158H565.018C567.317 30.189 569.581 28.3273 573.377 26.4291V21.136C573.377 14.9303 573.377 9.81964 573.377 9.81964C573.304 9.81964 571.771 10.3307 570.931 10.6593C565.857 12.4845 561.039 15.2953 556.987 18.7632C553.3 21.8661 550.197 25.48 547.678 29.4955C545.743 32.5983 544.283 35.7377 543.079 39.3881L542.786 40.1912H562.973C562.389 41.1768 561.878 42.1989 561.44 43.294H551.621V47.9666H559.98C559.578 49.7918 559.36 51.7265 559.36 53.6978C559.36 55.669 559.578 57.6037 559.98 59.4654H551.621V64.1379H561.44C561.878 65.233 562.389 66.2552 562.973 67.2408H542.786L543.079 68.0439C543.882 70.4532 544.685 72.3879 545.743 74.5051C547.532 77.973 549.649 81.0759 552.241 84.0328C553.373 85.3104 554.869 86.807 556.147 87.9752C560.491 91.8446 565.529 94.8015 570.931 96.7727C571.771 97.1012 573.304 97.6123 573.377 97.6123C573.377 97.6123 573.377 92.5017 573.377 86.296V80.9664C568.887 78.8127 566.04 76.0383 565.018 75.0162H554.979L555.125 75.1623C555.125 75.1623 555.307 75.4542 555.417 75.5638C557.498 78.5571 560.236 81.4409 563.192 83.7407C563.922 84.3247 565.529 85.4929 565.602 85.4929V81.1124H568.705V90.8225L568.449 90.6766C568.12 90.5305 567.171 90.0194 566.624 89.7274C560.856 86.515 555.892 81.952 552.241 76.4764C551.365 75.0892 550.671 73.9211 549.868 72.3879L549.613 71.9133H566.295C567.354 73.0815 568.485 74.1401 569.727 75.1257C569.836 75.1987 569.946 75.2718 570.055 75.3813C571.99 76.8414 574.144 78.0826 576.48 78.9952V86.734ZM576.845 70.5262L578.159 64.9045C577.392 64.722 576.626 64.503 575.859 64.284L571.661 63.1889L573.268 59.3559C573.268 59.3559 575.531 59.9765 575.604 59.9765C576.516 60.1955 576.918 59.575 577.101 59.1734L579.181 50.3393C579.181 50.3393 579.437 50.4124 579.546 50.4124C579.4 50.3759 579.291 50.3393 579.218 50.3028L580.714 44.0242C580.751 43.2941 580.495 42.3815 579.218 42.0529L576.845 41.4323L577.721 37.855L582.175 38.9866C582.832 39.2056 583.525 39.3516 584.219 39.5341L585.533 33.9855L588.745 34.825L587.468 40.2641C588.307 40.4467 589.183 40.6657 590.023 40.8848L591.337 35.5186L594.549 36.3217L593.235 41.8703C597.287 43.3305 600.244 45.5208 599.66 49.6093C599.259 52.6027 597.652 54.0628 595.572 54.5738C598.455 56.1435 599.916 58.5528 598.528 62.7143C596.776 67.9344 592.651 68.3725 587.176 67.2773L585.825 72.8625L582.613 72.0228L583.927 66.5107C583.087 66.2916 582.248 66.0726 581.371 65.8171L580.057 71.3658L576.845 70.5262ZM591.994 83.4852C591.994 83.4852 590.936 83.6677 590.059 83.7772C589.147 83.8867 588.088 83.9233 588.088 83.9233V88.3402H591.994V102.321H591.848C591.118 102.431 589.767 102.54 588.745 102.577C587.833 102.613 585.277 102.613 584.365 102.577C583.343 102.54 581.992 102.431 581.262 102.358H581.116V88.3402H585.022V83.9233C585.022 83.9233 583.854 83.8867 583.087 83.7772C582.321 83.6677 581.116 83.4852 581.116 83.4852V80.4188H581.152C582.905 80.7473 584.693 80.9299 586.555 80.9299C588.417 80.9299 590.206 80.7473 591.958 80.4188V83.4852H591.994ZM635.142 59.3924L624.665 59.4288V64.1015H626.892C633.281 64.1015 634.339 64.1014 634.339 64.1379C634.339 64.1744 634.339 64.3935 634.266 64.649C633.645 67.3868 632.66 70.3071 631.528 72.9354C627.695 81.952 621.125 89.6544 612.838 94.9475C608.458 97.7583 603.748 99.8025 598.674 101.08C598.054 101.263 596.74 101.555 596.703 101.555C596.667 101.555 596.703 97.3202 596.703 86.6975V78.9952C600.609 77.4255 604.077 74.9797 606.852 71.8768H623.534L623.278 72.3514C622.512 73.8845 621.818 75.0527 620.906 76.4398C617.255 81.9155 612.291 86.4785 606.523 89.6909C606.012 89.9829 605.026 90.494 604.734 90.64L604.442 90.7861V81.0759H607.545V85.4564C607.545 85.4564 609.224 84.2882 609.954 83.7407C612.911 81.4409 615.686 78.5206 617.766 75.5638C617.839 75.4177 617.985 75.2352 618.058 75.1257L618.168 74.9797H608.129C606.924 76.1478 604.588 78.5936 599.77 80.9664V86.2595C599.77 92.5017 599.806 97.5758 599.806 97.5758C599.879 97.5758 601.412 97.0647 602.252 96.7727C607.326 94.911 612.145 92.1366 616.197 88.6322C619.884 85.5294 622.986 81.9155 625.505 77.9001C627.44 74.7972 628.9 71.6578 630.105 68.0074L630.397 67.2408H613.532L610.21 67.2043C610.794 66.2187 611.305 65.1965 611.743 64.1379H621.563V59.4654H613.24V59.3924C613.605 57.5307 613.824 55.6325 613.824 53.6978C613.824 51.7631 613.605 49.8283 613.24 48.0031V47.93H621.563V43.2575H611.743C611.305 42.1989 610.794 41.1402 610.21 40.1546H630.397L630.105 39.3515C629.302 36.9423 628.498 35.0076 627.44 32.8903C625.651 29.4224 623.534 26.3196 620.942 23.3628C619.81 22.0851 618.314 20.5884 617.036 19.4203C612.692 15.5873 607.655 12.594 602.252 10.6227C601.412 10.3307 599.879 9.78321 599.806 9.78321C599.77 9.78321 599.77 14.8937 599.77 21.0994V26.4291C604.625 28.6924 608.129 32.4158 608.129 32.4158H618.168L618.022 32.2333C618.022 32.2333 617.839 31.9777 617.766 31.8317C615.649 28.8383 612.911 25.9545 609.954 23.6548C609.224 23.0707 607.618 21.9025 607.545 21.9025V26.3196H604.442V16.6095L604.698 16.719C605.026 16.865 605.975 17.3761 606.523 17.6681C612.291 20.8805 617.255 25.4435 620.906 30.9556C621.818 32.3063 622.475 33.4745 623.278 35.0076L623.534 35.4821H606.852C605.866 34.387 604.734 33.3284 603.566 32.4158C602.726 31.6492 601.668 30.9921 600.865 30.481C600.792 30.4445 600.682 30.3716 600.609 30.3351C600.098 30.0431 599.77 29.8605 599.77 29.8605C598.784 29.313 597.762 28.8018 596.667 28.4003V20.6614C596.667 10.0752 596.703 5.80427 596.703 5.80427C596.776 5.80427 598.09 6.13271 598.711 6.27873C603.749 7.55638 608.494 9.6372 612.875 12.4115C621.161 17.7046 627.695 25.407 631.565 34.4236C632.696 37.0519 633.645 40.0087 634.266 42.71C634.339 42.9655 634.376 43.2211 634.376 43.2211C634.376 43.2576 633.317 43.2575 626.929 43.2575H624.665V47.93H635.179C635.179 47.93 635.252 48.5506 635.288 49.0982C635.434 50.3759 635.507 52.2741 635.507 53.6978C635.507 55.1214 635.434 57.0196 635.288 58.2972C635.215 58.8083 635.179 59.3194 635.142 59.3924ZM593.345 49.5362C594.294 45.5938 588.453 44.7178 586.628 44.2432L585.022 50.96C586.847 51.4345 592.432 53.3692 593.345 49.5362ZM592.359 60.4145C593.381 56.034 586.409 54.9024 584.219 54.3548L582.43 61.7652C584.62 62.3127 591.374 64.576 592.359 60.4145ZM584.219 99.474H584.766C585.058 99.5105 585.861 99.5105 586.555 99.5105C587.249 99.5105 588.052 99.5105 588.344 99.474H588.891V91.4431H584.219V99.474ZM588.855 7.92146H588.49C587.869 7.88496 585.679 7.88492 585.131 7.88492C584.839 7.92143 584.511 7.92146 584.401 7.92146H584.182V15.9889H588.855V7.92146ZM556.293 53.6978C556.293 52.4566 556.403 51.0329 556.403 51.0329H540.815V51.1424C540.815 51.1424 540.742 52.7122 540.742 53.6978C540.742 54.6834 540.779 56.0705 540.815 56.253V56.3625H556.403C556.403 56.3625 556.293 54.9389 556.293 53.6978ZM584.219 91.4431V99.474H584.766C585.058 99.5105 585.861 99.5105 586.555 99.5105C587.249 99.5105 588.052 99.5105 588.344 99.474H588.891V91.4431H584.219ZM556.403 51.0329H540.815V51.1424C540.815 51.1424 540.742 52.7122 540.742 53.6978C540.742 54.6834 540.779 56.0705 540.815 56.253V56.3625H556.403C556.403 56.3625 556.293 54.9389 556.293 53.6978C556.293 52.4566 556.403 51.0329 556.403 51.0329ZM632.295 51.1424V51.0329H616.707C616.707 51.0329 616.854 52.2011 616.854 53.6612C616.854 55.1214 616.707 56.3625 616.707 56.3625H632.295V56.253C632.295 56.253 632.368 54.7199 632.368 53.6978C632.368 52.6757 632.368 51.325 632.295 51.1424ZM588.526 7.92146C587.906 7.88496 585.716 7.88492 585.168 7.88492C584.876 7.92143 584.547 7.92146 584.438 7.92146H584.219V15.9889H588.891V7.92146H588.526Z" fill="#FF9500"/>
<path d="M599.653 49.6004C600.237 45.5119 597.28 43.3215 593.228 41.8614L594.542 36.3128L591.33 35.5097L590.016 40.8758C589.176 40.6568 588.3 40.4377 587.46 40.2552L588.738 34.8161L585.526 33.9766L584.212 39.5252C583.518 39.3426 582.825 39.1966 582.168 39.0141L577.714 37.846L576.838 41.4233C576.838 41.4233 579.211 42.0075 579.211 42.044C580.488 42.3725 580.744 43.2851 580.707 44.0152L579.211 50.2938C579.211 50.2938 579.393 50.367 579.539 50.4035C579.43 50.4035 579.32 50.3669 579.174 50.3304L577.093 59.1644C576.911 59.566 576.509 60.1866 575.597 59.9675C575.524 59.9675 573.26 59.3469 573.26 59.3469L571.654 63.1799L575.852 64.275C576.619 64.494 577.385 64.713 578.152 64.8955L576.838 70.5172L580.05 71.3568L581.364 65.8081C582.24 66.0637 583.08 66.2827 583.92 66.5017L582.606 72.0139L585.818 72.8535L587.169 67.2684C592.644 68.3635 596.769 67.9255 598.521 62.7054C599.909 58.5439 598.448 56.1346 595.565 54.5649C597.645 54.0538 599.251 52.5937 599.653 49.6004ZM592.352 60.4056C591.367 64.5671 584.613 62.3038 582.423 61.7562L584.212 54.3459C586.402 54.8934 593.374 56.0251 592.352 60.4056ZM593.338 49.5273C592.425 53.3602 586.84 51.4256 585.015 50.951L586.621 44.2342C588.446 44.7088 594.287 45.5848 593.338 49.5273Z" fill="white"/>
<path d="M1505.21 226.648L1475.86 268.803L1488.92 277.895L1518.27 235.741L1505.21 226.648Z" fill="#FF9500"/>
<path d="M1660.1 149.977H1635.75V165.888H1660.1V149.977Z" fill="#FF9500"/>
<path d="M1552.53 208.3L1558.56 200.227H1539.18L1517.46 230.822L1530.53 239.915L1548.4 214.257V281.249H1652.44V259.432H1636.53V265.311H1564.31V247.675H1631.64V222.801L1621.01 208.326H1552.53V208.3ZM1615.73 231.737H1564.31V224.212H1615.73V231.737Z" fill="#FF9500"/>
<path d="M1649.52 239.912L1662.58 230.82L1638.94 196.854H1660.1V180.942H1631.65V165.919H1631.67V149.981H1631.65V135.297H1615.73V149.981H1568.39V165.919H1615.73V180.942H1564.31V177.415V165.919V149.981V135.297H1548.4V149.981H1519.95V165.919H1548.4V180.942H1519.95V196.854H1533.98H1541.11H1560.5H1570.38H1619.55L1631.65 214.255L1649.52 239.912Z" fill="#FF9500"/>
<path d="M1486.04 177.361L1478.49 191.367L1507.31 206.903L1514.86 192.897L1486.04 177.361Z" fill="#FF9500"/>
<path d="M1486.08 135.382L1478.53 149.389L1507.35 164.925L1514.9 150.918L1486.08 135.382Z" fill="#FF9500"/>
<path d="M7.89055 228.571L24.5601 219.034V280.382H40.4718V274.19H141.377V280.382H157.289V224.181L140.332 213.704H98.8674V185.591L147.961 213.704L157.289 219.034L173.958 228.571L181.849 214.749L127.895 183.866H178.165V167.954H98.8674V152.043H157.289V136.131H24.5601V152.043H82.9817V167.954H0.94064V183.866H82.9817V185.591V213.704H33.8877L79.6635 187.785H47.6309L0 214.749L7.89055 228.571ZM40.4718 251.903H135.394V235.991H98.8674H82.9557H40.4718V229.616H141.377V258.278H98.8935H82.9817H40.498V251.903H40.4718Z" fill="#FF9500"/>
<path d="M205.779 279.37V272.08C211.527 271.819 215.812 271.166 218.686 270.121C221.56 269.049 223.468 267.038 224.382 264.033C225.323 261.028 225.793 256.613 225.793 250.76V163.938C225.793 158.085 225.375 153.669 224.565 150.743C223.755 147.817 222.057 145.779 219.523 144.655C216.962 143.532 213.069 142.852 207.817 142.591V135.301H269.949V142.591C264.332 142.722 260.177 143.375 257.512 144.551C254.821 145.726 253.018 147.895 252.078 151.004C251.137 154.113 250.667 158.869 250.667 165.218V200.203H322.152V163.911C322.152 158.059 321.708 153.643 320.846 150.717C319.984 147.791 318.129 145.753 315.333 144.629C312.537 143.506 308.383 142.826 302.896 142.565V135.275H365.002V142.565C359.881 142.696 356.04 143.349 353.506 144.525C350.945 145.7 349.273 147.869 348.463 150.978C347.653 154.087 347.235 158.843 347.235 165.192V249.401C347.235 255.75 347.705 260.532 348.646 263.719C349.586 266.907 351.442 269.023 354.263 270.068C357.059 271.14 361.344 271.793 367.092 272.028V279.318H301.041V272.028C307.024 271.767 311.544 271.114 314.601 270.068C317.658 268.997 319.67 266.985 320.689 263.981C321.682 260.976 322.179 256.56 322.179 250.708V211.046H250.693V249.401C250.693 255.75 251.189 260.532 252.182 263.719C253.175 266.907 255.187 269.023 258.166 270.068C261.17 271.14 265.716 271.793 271.83 272.028V279.318H205.779V279.37Z" fill="white"/>
<path d="M441.79 133.416C452.894 133.416 463.241 135.323 472.856 139.112C482.471 142.927 490.884 148.204 498.121 155.024C505.359 161.817 511.002 169.786 515.052 178.878C519.102 187.997 521.14 197.847 521.14 208.429C521.14 219.011 519.102 228.025 515.052 236.856C511.002 245.713 505.359 253.447 498.121 260.057C490.884 266.667 482.471 271.841 472.856 275.577C463.241 279.313 452.894 281.195 441.79 281.195C430.686 281.195 420.522 279.313 410.907 275.577C401.292 271.841 392.879 266.667 385.642 260.057C378.404 253.447 372.761 245.713 368.711 236.856C364.661 227.998 362.623 218.514 362.623 208.429C362.623 197.821 364.661 187.971 368.711 178.878C372.761 169.786 378.378 161.817 385.537 155.024C392.696 148.23 401.083 142.927 410.698 139.112C420.313 135.297 430.66 133.416 441.764 133.416H441.79ZM441.973 269.62C452.084 269.62 460.785 267.164 468.075 262.226C475.364 257.288 481.034 250.285 485.11 241.167C489.16 232.074 491.198 221.336 491.198 208.977C491.198 195.887 489.212 184.522 485.214 174.933C481.217 165.318 475.547 157.95 468.179 152.751C460.811 147.577 452.032 144.991 441.79 144.991C431.548 144.991 422.952 147.577 415.584 152.751C408.216 157.924 402.546 165.318 398.549 174.933C394.551 184.548 392.565 195.887 392.565 208.977C392.565 221.336 394.551 232.048 398.549 241.167C402.546 250.285 408.216 257.288 415.584 262.226C422.952 267.164 431.731 269.62 441.973 269.62Z" fill="white"/>
<path d="M636.466 281.22L551.525 163.541H550.767V243.805C550.767 252.036 551.237 258.123 552.178 262.043C553.118 265.962 554.947 268.548 557.691 269.803C560.434 271.057 564.562 271.788 570.049 272.049V279.339H516.174V272.049C522.157 271.788 526.651 271.057 529.656 269.803C532.66 268.548 534.672 266.066 535.743 262.33C536.815 258.594 537.337 252.846 537.337 245.112V169.524C537.337 162.417 536.893 156.983 536.031 153.247C535.169 149.51 533.314 146.845 530.518 145.304C527.722 143.736 523.568 142.848 518.081 142.587V135.297H565.425L642.893 243.805H643.651V170.831C643.651 162.6 643.181 156.513 642.24 152.593C641.3 148.674 639.497 146.035 636.806 144.729C634.114 143.423 629.986 142.691 624.369 142.587V135.297H678.244V142.587C672.261 142.717 667.767 143.423 664.762 144.729C661.758 146.035 659.746 148.57 658.674 152.306C657.603 156.042 657.081 161.79 657.081 169.524V281.22H636.492H636.466Z" fill="white"/>
<path d="M744.633 281.219C729.923 281.219 717.198 278.319 706.46 272.519C695.721 266.719 687.439 258.488 681.586 247.828C675.734 237.168 672.781 224.522 672.781 209.943C672.781 195.364 675.917 181.385 682.239 169.889C688.536 158.419 697.263 149.457 708.446 143.03C719.602 136.602 732.483 133.389 747.088 133.389C754.692 133.389 761.955 134.46 768.879 136.576C775.803 138.693 783.197 142.141 791.061 146.871L794.798 135.27H801.539L800.598 181.307H791.427C790.304 173.338 787.796 166.649 783.955 161.293C780.088 155.937 775.15 151.835 769.166 149.039C763.183 146.243 756.494 144.833 749.153 144.833C739.433 144.833 731.124 147.367 724.279 152.41C717.407 157.452 712.156 164.742 708.472 174.2C704.788 183.685 702.959 195.102 702.959 208.428C702.959 228.023 706.956 243.073 714.925 253.602C722.894 264.132 734.39 269.41 749.362 269.41C756.73 269.41 763.026 268.156 768.252 265.673C773.504 263.191 777.475 259.742 780.219 255.379C782.962 251.016 784.347 245.895 784.347 240.042C784.347 233.798 782.857 229.382 779.853 226.769C776.848 224.156 771.936 222.641 765.064 222.275V214.986H823.251V222.275C817.137 222.275 812.957 223.555 810.71 226.116C808.463 228.677 807.339 233.38 807.339 240.251V263.818C803.838 263.818 800.912 264.001 798.534 264.367C796.156 264.733 793.596 265.569 790.852 266.797C788.109 268.051 784.425 270.037 779.8 272.78C775.176 275.393 769.924 277.457 763.993 278.946C758.062 280.436 751.609 281.193 744.633 281.193V281.219Z" fill="white"/>
<path d="M1096.76 309.798C1096.76 322.706 1082 333.575 1055.95 333.575C1018.85 333.575 974.873 307.029 917.548 214.066L907.437 225.066V249.391C907.437 255.636 907.881 260.339 908.743 263.5C909.606 266.688 911.382 268.856 914.073 269.954C916.738 271.077 920.788 271.757 926.144 272.018V279.307H862.523V272.018C868.245 271.757 872.53 271.129 875.326 270.058C878.148 268.987 880.029 266.975 881.048 263.97C882.041 260.966 882.563 256.524 882.563 250.671V163.849C882.563 157.996 882.067 153.528 881.153 150.471C880.212 147.415 878.461 145.377 875.901 144.384C873.34 143.391 869.578 142.79 864.587 142.503V135.213H926.719V142.503C921.232 142.633 917.157 143.26 914.439 144.384C911.774 145.533 909.919 147.676 908.926 150.837C907.933 154.025 907.437 158.78 907.437 165.155V208.188L955.538 154.887C958.255 151.752 959.64 149.191 959.64 147.206C959.64 145.69 958.752 144.567 956.923 143.731C955.12 142.921 951.959 142.503 947.491 142.503V135.213H996.689V142.32C993.188 142.45 990.157 142.868 987.597 143.626C985.036 144.358 982.371 145.873 979.55 148.198C976.754 150.498 973.044 154.103 968.419 158.963L935.655 194.418L936.961 193.19C995.827 291.039 1029.48 320.145 1050.8 320.145C1068.44 320.145 1064.75 296.16 1082.81 296.16C1091.64 296.16 1096.76 303.136 1096.76 309.694V309.798Z" fill="white"/>
<path d="M1069.59 133.416C1080.69 133.416 1091.04 135.323 1100.65 139.112C1110.27 142.927 1118.68 148.204 1125.92 155.024C1133.15 161.817 1138.8 169.786 1142.85 178.878C1146.9 187.997 1148.94 197.847 1148.94 208.429C1148.94 219.011 1146.9 228.025 1142.85 236.856C1138.8 245.713 1133.15 253.447 1125.92 260.057C1118.68 266.667 1110.27 271.841 1100.65 275.577C1091.04 279.313 1080.69 281.195 1069.59 281.195C1058.48 281.195 1048.32 279.313 1038.7 275.577C1029.09 271.841 1020.67 266.667 1013.44 260.057C1006.2 253.447 1000.56 245.713 996.506 236.856C992.456 227.998 990.418 218.514 990.418 208.429C990.418 197.821 992.456 187.971 996.506 178.878C1000.56 169.786 1006.17 161.817 1013.36 155.024C1020.52 148.23 1028.9 142.927 1038.52 139.112C1048.13 135.297 1058.48 133.416 1069.59 133.416ZM1069.77 269.62C1079.88 269.62 1088.58 267.164 1095.87 262.226C1103.16 257.288 1108.83 250.285 1112.9 241.167C1116.95 232.074 1118.99 221.336 1118.99 208.977C1118.99 195.887 1117.01 184.522 1113.01 174.933C1109.01 165.318 1103.34 157.95 1095.97 152.751C1088.61 147.577 1079.83 144.991 1069.59 144.991C1059.34 144.991 1050.75 147.577 1043.38 152.751C1036.01 157.924 1030.34 165.318 1026.34 174.933C1022.35 184.548 1020.36 195.887 1020.36 208.977C1020.36 221.336 1022.35 232.048 1026.34 241.167C1030.34 250.285 1036.01 257.288 1043.38 262.226C1050.75 267.164 1059.53 269.62 1069.77 269.62Z" fill="white"/>
<path d="M1265.47 281.22L1180.53 163.541H1179.77V243.805C1179.77 252.036 1180.24 258.123 1181.18 262.043C1182.12 265.962 1183.95 268.548 1186.69 269.803C1189.44 271.057 1193.54 271.788 1199.05 272.049V279.339H1145.18V272.049C1151.16 271.788 1155.65 271.057 1158.66 269.803C1161.66 268.548 1163.67 266.066 1164.75 262.33C1165.82 258.594 1166.34 252.846 1166.34 245.112V169.524C1166.34 162.417 1165.9 156.983 1165.03 153.247C1164.17 149.51 1162.32 146.845 1159.52 145.304C1156.72 143.736 1152.57 142.848 1147.08 142.587V135.297H1194.43L1271.9 243.805H1272.65V170.831C1272.65 162.6 1272.18 156.513 1271.24 152.593C1270.3 148.674 1268.5 146.035 1265.81 144.729C1263.12 143.423 1258.99 142.691 1253.37 142.587V135.297H1307.25V142.587C1301.26 142.717 1296.77 143.423 1293.76 144.729C1290.76 146.035 1288.75 148.57 1287.68 152.306C1286.61 156.042 1286.08 161.79 1286.08 169.524V281.22H1265.49H1265.47Z" fill="white"/>
<path d="M1373.66 281.219C1358.95 281.219 1346.23 278.319 1335.49 272.519C1324.75 266.719 1316.47 258.488 1310.62 247.828C1304.76 237.168 1301.81 224.522 1301.81 209.943C1301.81 195.364 1304.95 181.385 1311.27 169.889C1317.57 158.419 1326.29 149.457 1337.47 143.03C1348.63 136.602 1361.51 133.389 1376.12 133.389C1383.72 133.389 1390.98 134.46 1397.91 136.576C1404.83 138.693 1412.23 142.141 1420.09 146.871L1423.83 135.27H1430.57L1429.63 181.307H1420.46C1419.33 173.338 1416.82 166.649 1412.98 161.293C1409.12 155.937 1404.18 151.835 1398.2 149.039C1392.21 146.243 1385.52 144.833 1378.18 144.833C1368.46 144.833 1360.15 147.367 1353.31 152.41C1346.44 157.452 1341.18 164.742 1337.5 174.2C1333.82 183.685 1331.99 195.102 1331.99 208.428C1331.99 228.023 1335.99 243.073 1343.95 253.602C1351.92 264.132 1363.42 269.41 1378.39 269.41C1385.76 269.41 1392.06 268.156 1397.28 265.673C1402.53 263.191 1406.5 259.742 1409.25 255.379C1411.99 251.016 1413.38 245.895 1413.38 240.042C1413.38 233.798 1411.89 229.382 1408.88 226.769C1405.88 224.156 1400.97 222.641 1394.09 222.275V214.986H1452.28V222.275C1446.17 222.275 1441.99 223.555 1439.74 226.116C1437.49 228.677 1436.37 233.38 1436.37 240.251V263.818C1432.87 263.818 1429.94 264.001 1427.56 264.367C1425.19 264.733 1422.63 265.569 1419.88 266.797C1417.14 268.051 1413.45 270.037 1408.83 272.78C1404.21 275.393 1398.95 277.457 1393.02 278.946C1387.09 280.436 1380.64 281.193 1373.66 281.193V281.219Z" fill="white"/>
</svg>
