<svg width="3074" height="339" viewBox="0 0 3074 339" fill="none" xmlns="http://www.w3.org/2000/svg">
<g opacity="0.92" filter="url(#filter0_d_4585_3)">
<path d="M110.033 151.759C123.239 151.759 135.21 154.635 145.945 160.388C156.681 166.093 165.208 174.532 171.525 185.704C177.843 196.829 181.003 210.521 181.003 226.78C181.003 243.039 177.843 256.756 171.525 267.928C165.208 279.052 156.681 287.491 145.945 293.243C135.21 298.948 123.239 301.801 110.033 301.801C96.7326 301.801 84.7141 298.924 73.9785 293.172C63.2906 287.372 54.7875 278.909 48.4697 267.784C42.1996 256.612 39.0645 242.944 39.0645 226.78C39.0645 210.521 42.1995 196.829 48.4697 185.704C54.7875 174.532 63.2905 166.093 73.9785 160.388C84.7141 154.635 96.7326 151.759 110.033 151.759ZM1292.29 151.759C1305.5 151.759 1317.47 154.635 1328.21 160.388C1338.94 166.093 1347.47 174.532 1353.79 185.704C1360.1 196.829 1363.26 210.521 1363.26 226.78C1363.26 243.039 1360.1 256.756 1353.79 267.928C1347.47 279.052 1338.94 287.491 1328.21 293.243C1317.47 298.948 1305.5 301.801 1292.29 301.801C1278.99 301.801 1266.97 298.924 1256.24 293.172C1245.55 287.372 1237.05 278.909 1230.73 267.784C1224.46 256.612 1221.32 242.944 1221.32 226.78C1221.32 210.521 1224.46 196.829 1230.73 185.704C1237.05 174.532 1245.55 166.093 1256.24 160.388C1266.97 154.635 1278.99 151.759 1292.29 151.759ZM1971.04 151.759C1980.25 151.759 1988.73 153.018 1996.47 155.538C2004.22 158.058 2011.01 161.743 2016.85 166.592C2022.7 171.394 2027.4 177.312 2030.96 184.349C2034.52 191.385 2036.69 199.443 2037.45 208.523H1997.26C1996.97 205.196 1996.21 202.177 1994.98 199.467C1993.79 196.757 1992.13 194.428 1989.99 192.479C1987.9 190.482 1985.36 188.96 1982.37 187.914C1979.37 186.821 1975.98 186.274 1972.18 186.274C1965.53 186.274 1959.9 187.89 1955.29 191.123C1950.73 194.356 1947.26 198.992 1944.89 205.029C1942.56 211.067 1941.4 218.318 1941.4 226.78C1941.4 235.718 1942.58 243.205 1944.96 249.243C1947.38 255.233 1950.87 259.75 1955.43 262.793C1959.99 265.788 1965.48 267.285 1971.89 267.285C1975.55 267.285 1978.83 266.834 1981.73 265.931C1984.62 264.98 1987.14 263.624 1989.28 261.865C1991.42 260.106 1993.15 257.991 1994.48 255.519C1995.86 252.999 1996.78 250.17 1997.26 247.032L2037.45 247.318C2036.97 253.499 2035.24 259.798 2032.24 266.216C2029.25 272.586 2025 278.482 2019.49 283.901C2014.03 289.273 2007.26 293.6 1999.18 296.88C1991.11 300.16 1981.73 301.801 1971.04 301.801C1957.64 301.801 1945.62 298.924 1934.98 293.172C1924.39 287.419 1916.01 278.956 1909.83 267.784C1903.7 256.612 1900.64 242.944 1900.64 226.78C1900.64 210.521 1903.77 196.829 1910.04 185.704C1916.31 174.532 1924.77 166.093 1935.41 160.388C1946.05 154.635 1957.93 151.759 1971.04 151.759ZM1067 151.759C1078.78 151.759 1088.96 153.732 1097.56 157.678C1106.16 161.624 1112.79 167.186 1117.44 174.365C1122.15 181.496 1124.52 189.84 1124.57 199.396H1086.66C1086.28 194.641 1084.5 190.934 1081.32 188.271C1078.18 185.609 1073.41 184.277 1067 184.277C1062.91 184.277 1059.56 184.777 1056.95 185.775C1054.38 186.726 1052.48 188.033 1051.25 189.697C1050.01 191.361 1049.37 193.263 1049.32 195.402C1049.23 197.161 1049.54 198.754 1050.25 200.181C1051.01 201.559 1052.2 202.819 1053.81 203.96C1055.43 205.053 1057.49 206.052 1060.01 206.955C1062.53 207.858 1065.52 208.667 1068.99 209.38L1080.96 211.947C1089.04 213.659 1095.95 215.917 1101.7 218.722C1107.44 221.527 1112.15 224.83 1115.8 228.634C1119.46 232.39 1122.15 236.621 1123.86 241.328C1125.61 246.035 1126.52 251.169 1126.56 256.731C1126.52 266.335 1124.12 274.464 1119.37 281.12C1114.62 287.776 1107.82 292.839 1098.99 296.31C1090.2 299.78 1079.63 301.516 1067.28 301.516C1054.6 301.516 1043.53 299.638 1034.08 295.882C1024.67 292.126 1017.35 286.35 1012.13 278.553C1006.95 270.708 1004.34 260.677 1004.29 248.459H1041.91C1042.15 252.928 1043.27 256.684 1045.26 259.727C1047.26 262.769 1050.06 265.075 1053.67 266.644C1057.33 268.212 1061.67 268.997 1066.71 268.997C1070.94 268.997 1074.48 268.474 1077.33 267.428C1080.18 266.382 1082.34 264.932 1083.81 263.078C1085.28 261.224 1086.04 259.108 1086.09 256.731C1086.04 254.497 1085.31 252.548 1083.88 250.884C1082.5 249.172 1080.22 247.65 1077.04 246.319C1073.86 244.941 1069.56 243.657 1064.14 242.469L1049.61 239.331C1036.69 236.526 1026.5 231.843 1019.04 225.282C1011.63 218.674 1007.95 209.665 1008 198.255C1007.95 188.984 1010.42 180.879 1015.41 173.938C1020.44 166.949 1027.4 161.505 1036.28 157.606C1045.21 153.708 1055.45 151.759 1067 151.759ZM1501.47 243.895C1501.47 248.411 1502.47 252.452 1504.46 256.018C1506.46 259.536 1509.21 262.293 1512.73 264.29C1516.29 266.287 1520.33 267.285 1524.84 267.285C1529.4 267.285 1533.44 266.287 1536.95 264.29C1540.47 262.293 1543.22 259.536 1545.22 256.018C1547.21 252.452 1548.21 248.411 1548.21 243.895V153.756H1587.83V247.318C1587.83 258.443 1585.17 268.07 1579.85 276.199C1574.58 284.281 1567.21 290.534 1557.76 294.955C1548.31 299.329 1537.33 301.516 1524.84 301.516C1512.25 301.516 1501.23 299.329 1491.78 294.955C1482.33 290.534 1474.96 284.281 1469.69 276.199C1464.47 268.07 1461.85 258.443 1461.85 247.318V153.756H1501.47V243.895ZM2731.36 243.895C2731.36 248.411 2732.36 252.452 2734.35 256.018C2736.35 259.536 2739.1 262.293 2742.62 264.29C2746.18 266.287 2750.22 267.285 2754.73 267.285C2759.29 267.285 2763.33 266.287 2766.84 264.29C2770.36 262.293 2773.12 259.536 2775.11 256.018C2777.11 252.452 2778.1 248.411 2778.1 243.895V153.756H2817.72V247.318C2817.72 258.443 2815.06 268.07 2809.74 276.199C2804.47 284.281 2797.1 290.534 2787.65 294.955C2778.2 299.329 2767.22 301.516 2754.73 301.516C2742.14 301.516 2731.12 299.329 2721.67 294.955C2712.22 290.534 2704.85 284.281 2699.58 276.199C2694.36 268.07 2691.74 258.443 2691.74 247.318V153.756H2731.36V243.895ZM342.582 153.756C353.412 153.756 362.889 155.895 371.012 160.174C379.135 164.453 385.453 170.467 389.966 178.216C394.479 185.965 396.734 195.022 396.734 205.386C396.734 215.845 394.407 224.902 389.752 232.557C385.144 240.211 378.66 246.106 370.3 250.242C361.987 254.378 352.272 256.446 341.156 256.446H319.21V299.804H279.593V153.756H342.582ZM596.702 185.704H531.148V210.806H591.286V242.754H531.148V267.855H596.417V299.804H491.531V153.756H596.702V185.704ZM782.115 230.203H783.256V153.756H822.873V299.804H789.811L737.083 223.071H736.228V299.804H696.61V153.756H730.242L782.115 230.203ZM1749.91 153.756C1760.74 153.756 1770.21 155.729 1778.34 159.675C1786.46 163.621 1792.78 169.302 1797.29 176.719C1801.8 184.135 1804.06 193.026 1804.06 203.39C1804.06 213.849 1801.73 222.668 1797.08 229.847C1792.78 236.547 1786.84 241.714 1779.27 245.35L1808.91 299.804H1765.87L1740.25 251.597H1726.54V299.804H1686.92V153.756H1749.91ZM2240.85 185.704H2175.3V210.806H2235.44V242.754H2175.3V267.855H2240.57V299.804H2135.68V153.756H2240.85V185.704ZM2500.61 210.806H2553.05V153.756H2592.67V299.804H2553.05V242.754H2500.61V299.804H2460.99V153.756H2500.61V210.806ZM2980.08 153.756C2991.2 153.756 3000.53 155.253 3008.09 158.248C3015.69 161.243 3021.41 165.475 3025.26 170.942C3029.15 176.41 3031.1 182.851 3031.1 190.268C3031.1 195.64 3029.91 200.537 3027.54 204.958C3025.21 209.379 3021.93 213.088 3017.71 216.083C3013.48 219.031 3008.54 221.075 3002.88 222.216V223.642C3009.15 223.879 3014.86 225.472 3019.99 228.42C3025.12 231.32 3029.2 235.337 3032.24 240.472C3035.28 245.559 3036.8 251.549 3036.8 258.442C3036.8 266.429 3034.71 273.538 3030.53 279.766C3026.4 285.993 3020.51 290.89 3012.86 294.455C3005.21 298.021 2996.09 299.804 2985.5 299.804H2916.81V153.756H2980.08ZM2956.43 268.142H2974.95C2981.6 268.142 2986.59 266.905 2989.92 264.433C2993.24 261.913 2994.9 258.205 2994.9 253.309C2994.9 249.886 2994.12 246.985 2992.55 244.608C2990.99 242.231 2988.75 240.425 2985.85 239.188C2983 237.952 2979.56 237.334 2975.52 237.334H2956.43V268.142ZM110.033 186.274C103.478 186.274 97.9443 187.843 93.4316 190.98C88.9664 194.071 85.5698 198.635 83.2422 204.673C80.9621 210.663 79.8213 218.033 79.8213 226.78C79.8213 235.528 80.9621 242.92 83.2422 248.958C85.5698 254.948 88.9664 259.513 93.4316 262.65C97.9443 265.74 103.478 267.285 110.033 267.285C116.589 267.285 122.099 265.741 126.564 262.65C131.077 259.513 134.474 254.948 136.754 248.958C139.081 242.92 140.245 235.528 140.245 226.78C140.245 218.033 139.082 210.663 136.754 204.673C134.474 198.635 131.077 194.071 126.564 190.98C122.099 187.843 116.588 186.274 110.033 186.274ZM1292.29 186.274C1285.74 186.274 1280.2 187.843 1275.69 190.98C1271.23 194.071 1267.83 198.635 1265.5 204.673C1263.22 210.663 1262.08 218.033 1262.08 226.78C1262.08 235.528 1263.22 242.92 1265.5 248.958C1267.83 254.948 1271.23 259.513 1275.69 262.65C1280.2 265.741 1285.74 267.285 1292.29 267.285C1298.85 267.285 1304.36 265.74 1308.82 262.65C1313.34 259.513 1316.73 254.948 1319.01 248.958C1321.34 242.92 1322.5 235.528 1322.5 226.78C1322.5 218.033 1321.34 210.663 1319.01 204.673C1316.73 198.635 1313.34 194.071 1308.82 190.98C1304.36 187.843 1298.85 186.274 1292.29 186.274ZM319.21 225.639H333.176C337.831 225.639 341.798 224.83 345.075 223.214C348.4 221.55 350.942 219.197 352.699 216.154C354.504 213.112 355.407 209.522 355.407 205.386C355.407 201.202 354.504 197.637 352.699 194.689C350.942 191.694 348.4 189.412 345.075 187.843C341.798 186.226 337.831 185.419 333.176 185.419H319.21V225.639ZM1726.54 220.79H1740.5C1745.16 220.79 1749.12 220.219 1752.4 219.078C1755.73 217.89 1758.27 216.012 1760.03 213.444C1761.83 210.877 1762.73 207.526 1762.73 203.39C1762.73 199.206 1761.83 195.806 1760.03 193.191C1758.27 190.529 1755.73 188.58 1752.4 187.344C1749.12 186.06 1745.16 185.419 1740.5 185.419H1726.54V220.79ZM2956.43 212.803H2972.67C2976.14 212.803 2979.2 212.256 2981.86 211.162C2984.52 210.069 2986.59 208.5 2988.06 206.456C2989.58 204.364 2990.34 201.82 2990.34 198.825C2990.34 194.309 2988.73 190.862 2985.5 188.485C2982.27 186.061 2978.18 184.848 2973.24 184.848H2956.43V212.803ZM2306.92 36.8916C2308.51 36.8916 2309.97 37.2006 2311.29 37.8184C2312.62 38.4174 2313.81 39.2408 2314.86 40.2891C2315.92 41.3374 2316.85 42.5638 2317.64 43.9678C2318.44 45.3718 2319.1 46.8793 2319.63 48.4893C2320.17 50.0802 2320.57 51.7274 2320.83 53.4307C2321.1 55.1342 2321.23 56.801 2321.23 58.4297C2321.23 60.1144 2321.12 61.8179 2320.89 63.54C2320.67 65.2621 2320.31 66.9187 2319.82 68.5098C2319.34 70.101 2318.71 71.5989 2317.94 73.0029C2317.2 74.3882 2316.29 75.5954 2315.22 76.625C2314.18 77.6546 2312.96 78.4693 2311.58 79.0684C2310.19 79.6674 2308.64 79.9668 2306.92 79.9668C2305.33 79.9668 2303.87 79.6673 2302.54 79.0684C2301.21 78.4506 2300.02 77.6176 2298.95 76.5693C2297.9 75.521 2296.98 74.2946 2296.17 72.8906C2295.39 71.4866 2294.72 69.9887 2294.18 68.3975C2293.66 66.7877 2293.26 65.1311 2293 63.4277C2292.74 61.7244 2292.61 60.0582 2292.61 58.4297C2292.61 56.7449 2292.72 55.0406 2292.95 53.3184C2293.17 51.5963 2293.53 49.9397 2294.01 48.3486C2294.5 46.7575 2295.12 45.2691 2295.86 43.8838C2296.63 42.4798 2297.54 41.263 2298.58 40.2334C2299.65 39.2038 2300.87 38.3891 2302.23 37.79C2303.62 37.1911 2305.18 36.8916 2306.92 36.8916ZM2407.1 70.6445C2407.73 70.6445 2408.33 70.7656 2408.89 71.0088C2409.45 71.2522 2409.94 71.5899 2410.35 72.0205C2410.78 72.4323 2411.12 72.919 2411.36 73.4805C2411.61 74.042 2411.73 74.6409 2411.73 75.2773C2411.73 75.9138 2411.61 76.5222 2411.36 77.1025C2411.12 77.6641 2410.79 78.1603 2410.38 78.5908C2409.97 79.0026 2409.48 79.3299 2408.92 79.5732C2408.38 79.8353 2407.79 79.9668 2407.15 79.9668C2406.52 79.9668 2405.91 79.8353 2405.33 79.5732C2404.77 79.3299 2404.27 79.0027 2403.84 78.5908C2403.43 78.1603 2403.1 77.664 2402.86 77.1025C2402.62 76.5222 2402.5 75.9138 2402.5 75.2773C2402.5 74.6409 2402.62 74.0421 2402.86 73.4805C2403.1 72.919 2403.43 72.4323 2403.84 72.0205C2404.27 71.5899 2404.76 71.2522 2405.3 71.0088C2405.86 70.7654 2406.46 70.6445 2407.1 70.6445ZM2627.15 70.6445C2627.79 70.6445 2628.39 70.7654 2628.95 71.0088C2629.51 71.2522 2630 71.5899 2630.41 72.0205C2630.84 72.4323 2631.17 72.9189 2631.42 73.4805C2631.66 74.042 2631.78 74.6409 2631.78 75.2773C2631.78 75.9138 2631.66 76.5222 2631.42 77.1025C2631.17 77.6641 2630.85 78.1603 2630.44 78.5908C2630.03 79.0026 2629.54 79.3299 2628.98 79.5732C2628.44 79.8353 2627.84 79.9668 2627.21 79.9668C2626.57 79.9667 2625.97 79.8353 2625.39 79.5732C2624.82 79.3299 2624.33 79.0025 2623.9 78.5908C2623.49 78.1603 2623.16 77.6641 2622.92 77.1025C2622.67 76.5222 2622.55 75.9138 2622.55 75.2773C2622.55 74.6409 2622.67 74.042 2622.92 73.4805C2623.16 72.9189 2623.49 72.4324 2623.9 72.0205C2624.33 71.59 2624.82 71.2521 2625.36 71.0088C2625.92 70.7655 2626.52 70.6446 2627.15 70.6445ZM2747.03 36.8916C2748.62 36.8916 2750.08 37.2006 2751.41 37.8184C2752.73 38.4174 2753.92 39.2408 2754.97 40.2891C2756.04 41.3373 2756.96 42.5638 2757.75 43.9678C2758.55 45.3718 2759.22 46.8793 2759.74 48.4893C2760.28 50.0802 2760.68 51.7274 2760.95 53.4307C2761.21 55.1342 2761.34 56.801 2761.34 58.4297C2761.34 60.1144 2761.23 61.8179 2761 63.54C2760.78 65.2621 2760.42 66.9187 2759.94 68.5098C2759.45 70.101 2758.82 71.5989 2758.06 73.0029C2757.31 74.3882 2756.4 75.5954 2755.33 76.625C2754.29 77.6546 2753.07 78.4693 2751.69 79.0684C2750.3 79.6673 2748.75 79.9668 2747.03 79.9668C2745.44 79.9668 2743.98 79.6674 2742.65 79.0684C2741.32 78.4507 2740.13 77.6175 2739.06 76.5693C2738.01 75.5211 2737.09 74.2945 2736.28 72.8906C2735.5 71.4866 2734.83 69.9887 2734.29 68.3975C2733.77 66.7876 2733.38 65.1312 2733.11 63.4277C2732.85 61.7244 2732.72 60.0582 2732.72 58.4297C2732.72 56.7449 2732.83 55.0406 2733.06 53.3184C2733.28 51.5963 2733.64 49.9397 2734.12 48.3486C2734.61 46.7575 2735.23 45.269 2735.97 43.8838C2736.74 42.4798 2737.65 41.263 2738.7 40.2334C2739.76 39.2038 2740.98 38.3891 2742.34 37.79C2743.73 37.191 2745.29 36.8916 2747.03 36.8916ZM2847.21 70.6445C2847.85 70.6446 2848.44 70.7656 2849 71.0088C2849.5 71.2218 2849.93 71.5069 2850.31 71.8633L2850.62 72.1777C2850.98 72.5545 2851.26 72.989 2851.47 73.4805C2851.72 74.0421 2851.84 74.6409 2851.84 75.2773C2851.84 75.9138 2851.72 76.5222 2851.47 77.1025C2851.23 77.6641 2850.9 78.1603 2850.49 78.5908C2850.08 79.0026 2849.59 79.3299 2849.03 79.5732C2848.49 79.8353 2847.9 79.9668 2847.27 79.9668C2846.63 79.9668 2846.02 79.8353 2845.44 79.5732C2844.88 79.3299 2844.39 79.0025 2843.96 78.5908C2843.54 78.1603 2843.22 77.6641 2842.97 77.1025C2842.73 76.5223 2842.61 75.9138 2842.61 75.2773C2842.61 74.641 2842.73 74.042 2842.97 73.4805C2843.22 72.9189 2843.54 72.4323 2843.96 72.0205C2844.39 71.5899 2844.87 71.2522 2845.41 71.0088C2845.98 70.7656 2846.57 70.6445 2847.21 70.6445ZM106.012 36.8848C107.882 36.8848 109.529 37.1755 110.95 37.7559C112.39 38.3361 113.634 39.103 114.682 40.0576C115.729 41.0123 116.599 42.1082 117.291 43.3438C118.002 44.5791 118.562 45.8615 118.974 47.1904C119.404 48.5194 119.704 49.8391 119.872 51.1494C120.059 52.4598 120.152 53.668 120.152 54.7725C120.152 56.9439 119.928 59.0686 119.479 61.1465C119.049 63.2057 118.403 65.1527 117.543 66.9873C116.701 68.8217 115.663 70.5157 114.429 72.0693C113.194 73.6043 111.782 74.9431 110.192 76.085C108.621 77.2269 106.881 78.1347 104.974 78.8086C103.066 79.4825 101.008 79.8664 98.8008 79.96L97.9316 75.2705C100.176 75.1581 102.28 74.6246 104.244 73.6699C106.227 72.7152 107.967 71.4514 109.463 69.8789C110.978 68.2878 112.194 66.4442 113.11 64.3477C114.046 62.2323 114.578 59.9763 114.709 57.5801L112.465 60.8652C111.361 61.7264 110.248 62.3635 109.126 62.7754C108.022 63.1872 106.769 63.3926 105.366 63.3926C103.533 63.3926 101.821 63.0932 100.231 62.4941C98.6417 61.8764 97.2574 61.0059 96.0791 59.8828C94.9008 58.7596 93.9751 57.4113 93.3018 55.8389C92.6285 54.2478 92.292 52.4789 92.292 50.5322C92.292 48.5104 92.6101 46.6661 93.2461 45C93.9007 43.3341 94.8169 41.9021 95.9951 40.7041C97.1922 39.4873 98.633 38.5507 100.316 37.8955C102.018 37.2217 103.917 36.8848 106.012 36.8848ZM168.994 36.8848C169.275 36.8848 169.583 36.8944 169.92 36.9131C170.256 36.9131 170.518 36.9323 170.705 36.9697L170.004 41.7432C169.873 41.7057 169.677 41.6865 169.415 41.6865C169.172 41.6678 168.947 41.6582 168.741 41.6582C167.395 41.6582 166.085 41.8741 164.813 42.3047C163.542 42.7165 162.344 43.3057 161.222 44.0732C160.099 44.8408 159.061 45.7582 158.107 46.8252C157.172 47.8922 156.34 49.0716 155.61 50.3633C154.9 51.6362 154.31 53.0028 153.843 54.4629C153.375 55.9231 153.067 57.4306 152.917 58.9844L155.246 55.6992C155.714 55.3997 156.256 55.1185 156.873 54.8564C157.509 54.5756 158.173 54.3319 158.865 54.126C159.557 53.9201 160.259 53.7617 160.97 53.6494C161.68 53.5184 162.353 53.4522 162.989 53.4521C164.616 53.4521 166.179 53.6768 167.675 54.126C169.19 54.5753 170.528 55.2681 171.688 56.2041C172.866 57.14 173.801 58.3474 174.493 59.8262C175.204 61.2862 175.56 63.0368 175.56 65.0771C175.56 67.0989 175.214 69.0182 174.521 70.834C173.848 72.6311 172.894 74.2135 171.659 75.5801C170.425 76.9278 168.947 77.9951 167.227 78.7812C165.506 79.5675 163.598 79.9599 161.503 79.96C159.67 79.96 158.043 79.6701 156.621 79.0898C155.218 78.4908 153.993 77.7039 152.945 76.7305C151.898 75.7571 151.018 74.6438 150.308 73.3896C149.616 72.1354 149.046 70.8524 148.597 69.542C148.167 68.213 147.858 66.9029 147.671 65.6113C147.484 64.3197 147.39 63.1402 147.39 62.0732C147.39 59.8456 147.615 57.6739 148.063 55.5586C148.531 53.4432 149.195 51.4588 150.056 49.6055C150.935 47.7335 152.001 46.0205 153.254 44.4668C154.507 42.8943 155.929 41.5557 157.519 40.4512C159.127 39.328 160.885 38.4576 162.793 37.8398C164.72 37.2034 166.787 36.8848 168.994 36.8848ZM381.082 36.8848C382.952 36.8848 384.598 37.1756 386.02 37.7559C387.46 38.3361 388.704 39.1031 389.751 40.0576C390.798 41.0123 391.668 42.1082 392.36 43.3438C393.071 44.5792 393.632 45.8614 394.044 47.1904C394.474 48.5194 394.773 49.8391 394.941 51.1494C395.128 52.4598 395.223 53.668 395.223 54.7725C395.223 56.9439 394.998 59.0686 394.549 61.1465C394.119 63.2057 393.474 65.1528 392.613 66.9873C391.772 68.8217 390.733 70.5157 389.499 72.0693C388.265 73.6044 386.852 74.943 385.262 76.085C383.691 77.2268 381.951 78.1347 380.043 78.8086C378.135 79.4824 376.078 79.8663 373.871 79.96L373.001 75.2705C375.245 75.1582 377.35 74.6246 379.313 73.6699C381.296 72.7152 383.036 71.4514 384.532 69.8789C386.047 68.2878 387.263 66.4442 388.18 64.3477C389.115 62.2323 389.648 59.9763 389.779 57.5801L387.535 60.8652C386.432 61.7263 385.318 62.3635 384.196 62.7754C383.093 63.1872 381.839 63.3925 380.437 63.3926C378.603 63.3926 376.892 63.0932 375.302 62.4941C373.712 61.8764 372.328 61.006 371.149 59.8828C369.971 58.7596 369.045 57.4114 368.372 55.8389C367.699 54.2477 367.361 52.479 367.361 50.5322C367.361 48.5104 367.679 46.6661 368.315 45C368.97 43.334 369.887 41.9022 371.065 40.7041C372.263 39.4873 373.702 38.5507 375.386 37.8955C377.088 37.2216 378.987 36.8848 381.082 36.8848ZM2255.89 37.3691V74.9971H2265.57V79.4893H2240.32V74.9971H2250V47.8711L2251.62 41.4971L2247.81 46.7197L2241.86 51.999L2238.83 48.6016L2251.68 36.8076L2255.89 37.3691ZM2372.34 41.2998C2372.12 42.0486 2371.73 42.8355 2371.19 43.6592C2370.67 44.4641 2370.04 45.2876 2369.31 46.1299C2368.6 46.9536 2367.81 47.7683 2366.95 48.5732C2366.11 49.3782 2365.26 50.1459 2364.4 50.876L2360.7 52.9531C2360.88 52.9157 2361.12 52.8975 2361.4 52.8975C2361.7 52.8787 2361.98 52.8691 2362.24 52.8691C2364.05 52.8691 2365.74 53.0937 2367.29 53.543C2368.86 53.9922 2370.22 54.6757 2371.36 55.5928C2372.52 56.4913 2373.43 57.643 2374.08 59.0469C2374.75 60.4321 2375.09 62.0702 2375.09 63.9609C2375.09 65.7768 2374.75 67.4244 2374.08 68.9033C2373.41 70.3821 2372.48 71.7017 2371.3 72.8623C2370.14 74.0042 2368.78 74.9965 2367.21 75.8389C2365.63 76.6625 2363.95 77.3458 2362.16 77.8887C2360.38 78.4315 2358.54 78.8346 2356.63 79.0967C2354.72 79.3588 2352.85 79.4893 2351.02 79.4893V74.9971C2352.57 74.9409 2354.09 74.7998 2355.59 74.5752C2357.09 74.3506 2358.51 74.0416 2359.86 73.6484C2361.2 73.2366 2362.45 72.7405 2363.59 72.1602C2364.73 71.5798 2365.71 70.9062 2366.53 70.1387C2367.37 69.3524 2368.03 68.4725 2368.5 67.499C2368.96 66.507 2369.2 65.4214 2369.2 64.2422C2369.2 62.8943 2368.91 61.7706 2368.33 60.8721C2367.77 59.9737 2366.99 59.2624 2366 58.7383C2365.01 58.2142 2363.84 57.8485 2362.49 57.6426C2361.17 57.4179 2359.73 57.3057 2358.2 57.3057C2357.6 57.3057 2356.95 57.3249 2356.24 57.3623C2355.54 57.381 2354.92 57.4089 2354.36 57.4463V53.0938C2355.12 52.5322 2355.96 51.8959 2356.85 51.1846C2357.75 50.4732 2358.66 49.7333 2359.58 48.9658C2360.49 48.1797 2361.38 47.3936 2362.24 46.6074C2363.12 45.8025 2363.91 45.0443 2364.62 44.333C2365.34 43.603 2365.93 42.9292 2366.42 42.3115C2366.91 41.675 2367.23 41.1501 2367.38 40.7383L2363.11 41.8623H2350.04L2350.46 37.3691H2372.34V41.2998ZM2475.94 37.3691V74.9971H2485.62V79.4893H2460.37V74.9971H2470.05V47.8711L2471.68 41.4971L2467.86 46.7197L2461.92 51.999L2458.88 48.6016L2471.74 36.8076L2475.94 37.3691ZM2531.83 37.3691L2520.18 62.6416L2517.57 66.5723H2529.64V55.1436L2535.53 55.6211V66.5723H2541L2540.58 71.0654H2535.53V79.4893H2529.64V71.0654H2512.95V66.2637L2526.52 36.8076L2531.83 37.3691ZM2586.84 37.3691L2575.2 62.6416L2572.59 66.5723H2584.65V55.1436L2590.54 55.6211V66.5723H2596.02L2595.6 71.0654H2590.54V79.4893H2584.65V71.0654H2567.96V66.2637L2581.54 36.8076L2586.84 37.3691ZM2691.59 36.8916C2693.48 36.8916 2695.17 37.2286 2696.64 37.9023C2698.12 38.5763 2699.37 39.4658 2700.38 40.5703C2701.41 41.6559 2702.18 42.8914 2702.71 44.2764C2703.25 45.6617 2703.52 47.0665 2703.52 48.4893C2703.52 49.9305 2703.25 51.306 2702.71 52.6162C2702.18 53.9079 2701.52 55.1439 2700.71 56.3232C2699.93 57.4838 2699.08 58.5789 2698.16 59.6084C2697.24 60.638 2696.4 61.6024 2695.63 62.501C2694.66 63.6428 2693.69 64.7657 2692.72 65.8701C2691.74 66.9746 2690.81 68.0609 2689.91 69.1279C2689.03 70.1762 2688.21 71.1964 2687.44 72.1885C2686.68 73.1619 2686.01 74.0985 2685.45 74.9971H2705.09V79.4893H2678.88V74.7715C2679.75 73.4051 2680.68 72.0575 2681.69 70.7285C2682.7 69.3994 2683.72 68.1173 2684.75 66.8818C2685.8 65.6277 2686.82 64.4386 2687.81 63.3154C2688.8 62.1735 2689.71 61.1247 2690.56 60.1699C2691.53 59.0468 2692.46 58.017 2693.36 57.0811C2694.28 56.1264 2695.08 55.1907 2695.78 54.2734C2696.47 53.3562 2697.02 52.4109 2697.43 51.4375C2697.84 50.4453 2698.05 49.3591 2698.05 48.1797C2698.05 47.2812 2697.88 46.4385 2697.54 45.6523C2697.21 44.8476 2696.73 44.1554 2696.11 43.5752C2695.51 42.9761 2694.79 42.5079 2693.95 42.1709C2693.11 41.8153 2692.18 41.6377 2691.17 41.6377C2690.03 41.6377 2689.04 41.796 2688.2 42.1143C2687.38 42.4138 2686.65 42.8169 2686.01 43.3223C2685.39 43.8276 2684.85 44.3988 2684.38 45.0352C2683.93 45.6529 2683.51 46.2796 2683.12 46.916L2679.17 45.2314C2679.65 44.0146 2680.27 42.9005 2681.02 41.8896C2681.78 40.86 2682.68 39.9801 2683.71 39.25C2684.74 38.5013 2685.91 37.9216 2687.22 37.5098C2688.53 37.0979 2689.99 36.8916 2691.59 36.8916ZM2801.62 36.8916C2803.51 36.8916 2805.2 37.2285 2806.67 37.9023C2808.15 38.5763 2809.39 39.4659 2810.4 40.5703C2811.43 41.656 2812.21 42.8912 2812.73 44.2764C2813.28 45.6617 2813.55 47.0665 2813.55 48.4893C2813.55 49.9304 2813.28 51.306 2812.73 52.6162C2812.21 53.9079 2811.55 55.1439 2810.74 56.3232C2809.96 57.4838 2809.1 58.5789 2808.19 59.6084C2807.27 60.638 2806.43 61.6024 2805.66 62.501C2804.69 63.6428 2803.72 64.7657 2802.75 65.8701C2801.77 66.9746 2800.84 68.0609 2799.94 69.1279C2799.06 70.1763 2798.24 71.1963 2797.47 72.1885C2796.7 73.1619 2796.04 74.0985 2795.48 74.9971H2815.12V79.4893H2788.91V74.7715C2789.77 73.405 2790.71 72.0576 2791.72 70.7285C2792.73 69.3996 2793.75 68.1172 2794.78 66.8818C2795.82 65.6276 2796.84 64.4386 2797.83 63.3154C2798.83 62.1735 2799.74 61.1246 2800.58 60.1699C2801.56 59.0467 2802.49 58.0171 2803.39 57.0811C2804.31 56.1265 2805.11 55.1905 2805.8 54.2734C2806.49 53.3562 2807.05 52.4109 2807.46 51.4375C2807.87 50.4453 2808.08 49.3591 2808.08 48.1797C2808.08 47.2812 2807.91 46.4385 2807.57 45.6523C2807.23 44.8476 2806.76 44.1554 2806.14 43.5752C2805.54 42.9762 2804.82 42.5079 2803.98 42.1709C2803.14 41.8153 2802.21 41.6377 2801.2 41.6377C2800.06 41.6377 2799.07 41.796 2798.23 42.1143C2797.4 42.4138 2796.68 42.8168 2796.04 43.3223C2795.42 43.8277 2794.88 44.3987 2794.41 45.0352C2793.96 45.6529 2793.54 46.2796 2793.15 46.916L2789.19 45.2314C2789.68 44.0147 2790.3 42.9005 2791.04 41.8896C2791.81 40.8601 2792.71 39.98 2793.74 39.25C2794.77 38.5013 2795.94 37.9216 2797.25 37.5098C2798.55 37.0979 2800.01 36.8916 2801.62 36.8916ZM2911.65 36.8916C2913.54 36.8916 2915.22 37.2284 2916.7 37.9023C2918.18 38.5763 2919.42 39.4659 2920.43 40.5703C2921.46 41.6559 2922.24 42.8913 2922.76 44.2764C2923.3 45.6617 2923.58 47.0665 2923.58 48.4893C2923.58 49.9305 2923.3 51.306 2922.76 52.6162C2922.24 53.9079 2921.57 55.1439 2920.77 56.3232C2919.98 57.4839 2919.13 58.5788 2918.22 59.6084C2917.3 60.638 2916.46 61.6024 2915.69 62.501C2914.72 63.6428 2913.75 64.7657 2912.77 65.8701C2911.8 66.9746 2910.86 68.0609 2909.97 69.1279C2909.09 70.1761 2908.26 71.1964 2907.5 72.1885C2906.73 73.1619 2906.07 74.0985 2905.51 74.9971H2925.15V79.4893H2898.94V74.7715C2899.8 73.4051 2900.74 72.0575 2901.75 70.7285C2902.76 69.3995 2903.78 68.1173 2904.8 66.8818C2905.85 65.6277 2906.87 64.4385 2907.86 63.3154C2908.85 62.1735 2909.77 61.1247 2910.61 60.1699C2911.58 59.0467 2912.52 58.017 2913.42 57.0811C2914.33 56.1263 2915.14 55.1907 2915.83 54.2734C2916.52 53.3562 2917.07 52.4109 2917.49 51.4375C2917.9 50.4453 2918.1 49.3591 2918.1 48.1797C2918.1 47.2812 2917.94 46.4385 2917.6 45.6523C2917.26 44.8477 2916.78 44.1554 2916.17 43.5752C2915.57 42.9761 2914.85 42.5079 2914.01 42.1709C2913.17 41.8153 2912.24 41.6377 2911.23 41.6377C2910.09 41.6377 2909.1 41.7961 2908.26 42.1143C2907.43 42.4138 2906.7 42.8168 2906.07 43.3223C2905.45 43.8277 2904.91 44.3987 2904.44 45.0352C2903.99 45.6528 2903.57 46.2796 2903.18 46.916L2899.22 45.2314C2899.71 44.0147 2900.33 42.9005 2901.07 41.8896C2901.84 40.8602 2902.74 39.98 2903.77 39.25C2904.8 38.5013 2905.96 37.9216 2907.27 37.5098C2908.58 37.0979 2910.04 36.8916 2911.65 36.8916ZM2976.91 41.8623H2961.61V51.915C2961.75 51.8402 2961.97 51.7183 2962.29 51.5498C2962.62 51.3814 2963.04 51.2124 2963.52 51.0439C2964.01 50.8755 2964.56 50.7353 2965.18 50.623C2965.81 50.492 2966.52 50.4268 2967.28 50.4268C2969.23 50.4268 2970.96 50.7348 2972.47 51.3525C2974.01 51.9516 2975.3 52.7855 2976.34 53.8525C2977.41 54.9008 2978.21 56.1359 2978.76 57.5586C2979.32 58.9812 2979.6 60.4976 2979.6 62.1074C2979.6 63.998 2979.26 65.7486 2978.59 67.3584C2977.92 68.9496 2976.99 70.3919 2975.81 71.6836C2974.65 72.9565 2973.29 74.0793 2971.71 75.0527C2970.16 76.0261 2968.5 76.8495 2966.72 77.5234C2964.96 78.1786 2963.15 78.6748 2961.28 79.0117C2959.41 79.3299 2957.57 79.4893 2955.78 79.4893V74.9971C2957.18 74.9596 2958.6 74.7907 2960.04 74.4912C2961.48 74.1917 2962.87 73.78 2964.2 73.2559C2965.54 72.7317 2966.8 72.1041 2967.96 71.374C2969.13 70.644 2970.15 69.8302 2971.01 68.9316C2971.89 68.0331 2972.58 67.0591 2973.09 66.0107C2973.59 64.9625 2973.85 63.8578 2973.85 62.6973C2973.85 61.7427 2973.69 60.8163 2973.37 59.918C2973.07 59.0194 2972.61 58.2229 2972 57.5303C2971.4 56.8191 2970.64 56.2479 2969.72 55.8174C2968.81 55.3869 2967.74 55.1719 2966.52 55.1719C2965.57 55.1719 2964.71 55.2372 2963.94 55.3682C2963.18 55.4805 2962.49 55.6302 2961.89 55.8174C2961.3 56.0046 2960.77 56.2109 2960.32 56.4355C2959.89 56.6414 2959.54 56.8383 2959.26 57.0254H2955.78V37.3691H2976.91V41.8623ZM3031.92 41.8623H3016.63V51.915C3016.76 51.8402 3016.98 51.7183 3017.3 51.5498C3017.64 51.3814 3018.05 51.2124 3018.54 51.0439C3019.02 50.8755 3019.57 50.7353 3020.19 50.623C3020.83 50.492 3021.53 50.4268 3022.3 50.4268C3024.24 50.4268 3025.97 50.7348 3027.49 51.3525C3029.02 51.9516 3030.31 52.7855 3031.36 53.8525C3032.42 54.9008 3033.23 56.136 3033.77 57.5586C3034.33 58.9812 3034.61 60.4976 3034.61 62.1074C3034.61 63.9981 3034.28 65.7485 3033.6 67.3584C3032.93 68.9496 3032 70.3919 3030.83 71.6836C3029.67 72.9565 3028.3 74.0793 3026.73 75.0527C3025.18 76.0261 3023.51 76.8495 3021.73 77.5234C3019.98 78.1786 3018.16 78.6748 3016.29 79.0117C3014.42 79.3299 3012.59 79.4893 3010.79 79.4893V74.9971C3012.19 74.9596 3013.62 74.7907 3015.06 74.4912C3016.5 74.1917 3017.88 73.7799 3019.21 73.2559C3020.56 72.7317 3021.81 72.1041 3022.97 71.374C3024.15 70.644 3025.17 69.8301 3026.03 68.9316C3026.91 68.0331 3027.6 67.0591 3028.1 66.0107C3028.61 64.9625 3028.86 63.8579 3028.86 62.6973C3028.86 61.7427 3028.7 60.8164 3028.38 59.918C3028.08 59.0194 3027.63 58.2229 3027.01 57.5303C3026.41 56.8191 3025.65 56.2479 3024.74 55.8174C3023.82 55.3869 3022.75 55.1719 3021.54 55.1719C3020.58 55.1719 3019.72 55.2372 3018.96 55.3682C3018.19 55.4805 3017.51 55.6302 3016.91 55.8174C3016.31 56.0045 3015.79 56.211 3015.34 56.4355C3014.91 56.6414 3014.55 56.8382 3014.27 57.0254H3010.79V37.3691H3031.92V41.8623ZM221.23 37.3623L209.587 62.6348L206.978 66.5654H219.042V55.1367L224.934 55.6143V66.5654H230.405L229.984 71.0586H224.934V79.4824H219.042V71.0586H202.348V66.2568L215.928 36.8008L221.23 37.3623ZM276.244 37.3623L264.601 62.6348L261.991 66.5654H274.056V55.1367L279.947 55.6143V66.5654H285.419L284.998 71.0586H279.947V79.4824H274.056V71.0586H257.361V66.2568L270.941 36.8008L276.244 37.3623ZM339.563 41.0127C339.563 41.8177 339.254 42.8569 338.637 44.1299C338.038 45.3841 337.272 46.7978 336.337 48.3701C335.402 49.9426 334.372 51.6363 333.25 53.4521C332.146 55.2493 331.09 57.1032 330.08 59.0127C329.089 60.9034 328.219 62.8035 327.471 64.7129C326.723 66.6222 326.245 68.4658 326.039 70.2441C325.946 71.0116 325.872 71.8073 325.815 72.6309C325.778 73.4358 325.741 74.241 325.703 75.0459C325.684 75.8509 325.675 76.6377 325.675 77.4053V79.4824H319.923V77.2363C319.942 76.2816 319.969 75.2798 320.007 74.2314C320.044 73.1834 320.11 72.1446 320.203 71.1152C320.297 70.0857 320.419 69.2056 320.568 68.4756C320.999 66.4725 321.607 64.5063 322.393 62.5781C323.197 60.6314 324.066 58.7685 325.001 56.9902C325.955 55.1932 326.928 53.4993 327.919 51.9082C328.91 50.317 329.809 48.8757 330.613 47.584C331.418 46.2737 332.072 45.1316 332.577 44.1582C333.101 43.1849 333.362 42.4171 333.362 41.8555H313.105V37.3623H339.563V41.0127ZM162.568 58.2256C161.559 58.2256 160.577 58.3475 159.623 58.5908C158.669 58.8342 157.771 59.1624 156.93 59.5742C156.107 59.986 155.368 60.463 154.713 61.0059C154.077 61.5487 153.563 62.1198 153.17 62.7188V64.1514C153.189 64.5818 153.217 65.0033 153.254 65.415C153.291 65.8266 153.347 66.2475 153.422 66.6777C153.497 67.0895 153.6 67.5484 153.73 68.0537C153.992 69.1208 154.348 70.0948 154.797 70.9746C155.264 71.8356 155.816 72.5843 156.452 73.2207C157.107 73.8385 157.856 74.325 158.697 74.6807C159.558 75.0176 160.521 75.1865 161.587 75.1865C163.065 75.1865 164.318 74.9053 165.347 74.3438C166.394 73.7822 167.245 73.0431 167.899 72.126C168.554 71.19 169.032 70.1324 169.331 68.9531C169.649 67.7738 169.808 66.5752 169.808 65.3584C169.808 64.179 169.63 63.1398 169.274 62.2412C168.938 61.3428 168.451 60.6037 167.815 60.0234C167.179 59.4244 166.412 58.9753 165.515 58.6758C164.636 58.3763 163.653 58.2256 162.568 58.2256ZM2306.69 41.834C2305.55 41.834 2304.55 42.0586 2303.69 42.5078C2302.85 42.9383 2302.12 43.5277 2301.5 44.2764C2300.89 45.0251 2300.38 45.9052 2299.99 46.916C2299.59 47.9269 2299.28 49.0036 2299.03 50.1455C2298.81 51.2874 2298.65 52.4668 2298.56 53.6836C2298.46 54.8816 2298.42 56.0611 2298.42 57.2217C2298.42 58.3075 2298.45 59.506 2298.53 60.8164C2298.6 62.1079 2298.75 63.4181 2298.98 64.7471C2299.2 66.0575 2299.51 67.3309 2299.9 68.5664C2300.31 69.8019 2300.84 70.9065 2301.47 71.8799C2302.13 72.8345 2302.91 73.6023 2303.83 74.1826C2304.77 74.7629 2305.87 75.0527 2307.14 75.0527C2308.28 75.0527 2309.27 74.8377 2310.12 74.4072C2310.98 73.9579 2311.72 73.3582 2312.33 72.6094C2312.95 71.8421 2313.45 70.9625 2313.85 69.9707C2314.24 68.9599 2314.55 67.883 2314.77 66.7412C2315.02 65.5994 2315.18 64.4198 2315.28 63.2031C2315.37 61.9863 2315.42 60.7974 2315.42 59.6367C2315.42 58.5509 2315.38 57.362 2315.31 56.0703C2315.23 54.7601 2315.08 53.4499 2314.86 52.1396C2314.63 50.8293 2314.32 49.5558 2313.9 48.3203C2313.51 47.0661 2312.99 45.9615 2312.33 45.0068C2311.7 44.0521 2310.91 43.2844 2309.98 42.7041C2309.06 42.1239 2307.97 41.834 2306.69 41.834ZM2746.8 41.834C2745.66 41.834 2744.66 42.0586 2743.8 42.5078C2742.96 42.9383 2742.23 43.5277 2741.61 44.2764C2741 45.0251 2740.49 45.9053 2740.1 46.916C2739.71 47.9269 2739.39 49.0036 2739.15 50.1455C2738.92 51.2874 2738.76 52.4668 2738.67 53.6836C2738.57 54.8816 2738.53 56.0611 2738.53 57.2217C2738.53 58.3075 2738.57 59.506 2738.64 60.8164C2738.72 62.1079 2738.86 63.4182 2739.09 64.7471C2739.31 66.0575 2739.62 67.3309 2740.01 68.5664C2740.43 69.8019 2740.95 70.9065 2741.59 71.8799C2742.24 72.8346 2743.03 73.6023 2743.94 74.1826C2744.88 74.7629 2745.98 75.0527 2747.25 75.0527C2748.39 75.0527 2749.39 74.8376 2750.23 74.4072C2751.09 73.9579 2751.83 73.3582 2752.44 72.6094C2753.06 71.842 2753.57 70.9627 2753.96 69.9707C2754.35 68.9599 2754.66 67.8831 2754.89 66.7412C2755.13 65.5994 2755.3 64.4199 2755.39 63.2031C2755.48 61.9863 2755.53 60.7974 2755.53 59.6367C2755.53 58.5509 2755.49 57.362 2755.42 56.0703C2755.34 54.7601 2755.19 53.4499 2754.97 52.1396C2754.75 50.8292 2754.43 49.5558 2754.02 48.3203C2753.62 47.0661 2753.1 45.9616 2752.44 45.0068C2751.81 44.0522 2751.02 43.2844 2750.09 42.7041C2749.17 42.1238 2748.08 41.834 2746.8 41.834ZM46.2842 56.8779C47.1259 56.8779 47.8833 57.0094 48.5566 57.2715C49.23 57.5148 49.8384 57.8238 50.3809 58.1982C50.9417 58.5538 51.4651 58.9562 51.9512 59.4053C52.4375 59.8358 52.9334 60.2389 53.4385 60.6133C53.9434 60.9689 54.4674 61.277 55.0098 61.5391C55.5522 61.7824 56.1606 61.9043 56.834 61.9043C57.5072 61.9042 58.1149 61.7641 58.6572 61.4834C59.1997 61.2026 59.6677 60.8466 60.0605 60.416C60.4532 59.9668 60.7802 59.4705 61.042 58.9277C61.3225 58.3662 61.5379 57.8047 61.6875 57.2432L65.7842 57.6924C65.5971 58.853 65.2222 60.0228 64.6611 61.2021C64.1187 62.3815 63.4267 63.4486 62.585 64.4033C61.7432 65.358 60.7706 66.1353 59.667 66.7344C58.5635 67.3333 57.3849 67.6328 56.1318 67.6328C55.4587 67.6328 54.823 67.5109 54.2246 67.2676C53.6261 67.0055 53.0455 66.6965 52.4844 66.3408C51.9421 65.9665 51.3997 65.5642 50.8574 65.1338C50.3338 64.6846 49.7915 64.2824 49.2305 63.9268C48.688 63.5524 48.1171 63.2434 47.5186 63C46.92 62.7379 46.2837 62.6064 45.6104 62.6064C45.0307 62.6065 44.4883 62.7092 43.9834 62.915C43.4972 63.1209 43.0578 63.4022 42.665 63.7578C42.2722 64.0948 41.9349 64.4882 41.6543 64.9375C41.3739 65.3865 41.1497 65.8544 40.9814 66.3408L36.8008 65.8916C37.0066 64.8434 37.3997 63.7857 37.9795 62.7188C38.578 61.6331 39.298 60.6599 40.1396 59.7988C40.9814 58.9377 41.9262 58.2353 42.9736 57.6924C44.021 57.1496 45.1246 56.8779 46.2842 56.8779ZM106.236 41.6582C104.965 41.6582 103.823 41.8646 102.813 42.2764C101.803 42.6882 100.942 43.2592 100.231 43.9893C99.5208 44.7193 98.9689 45.5994 98.5762 46.6289C98.2021 47.6584 98.0156 48.791 98.0156 50.0264C98.0156 51.243 98.1647 52.3757 98.4639 53.4238C98.7818 54.4722 99.2499 55.3809 99.8672 56.1484C100.503 56.9159 101.298 57.5244 102.252 57.9736C103.224 58.4041 104.356 58.6191 105.646 58.6191C106.638 58.6191 107.583 58.4598 108.48 58.1416C109.397 57.8234 110.229 57.4021 110.978 56.8779C111.744 56.3351 112.418 55.7084 112.998 54.9971C113.578 54.2858 114.036 53.5276 114.373 52.7227C114.317 51.3186 114.111 49.9608 113.756 48.6504C113.419 47.3213 112.914 46.1419 112.24 45.1123C111.567 44.0641 110.734 43.231 109.743 42.6133C108.752 41.9769 107.583 41.6582 106.236 41.6582ZM381.306 41.6582C380.034 41.6582 378.893 41.8646 377.883 42.2764C376.873 42.6882 376.012 43.2592 375.302 43.9893C374.591 44.7193 374.039 45.5993 373.646 46.6289C373.272 47.6585 373.085 48.7909 373.085 50.0264C373.085 51.243 373.235 52.3756 373.534 53.4238C373.852 54.4722 374.32 55.3809 374.938 56.1484C375.573 56.9158 376.369 57.5244 377.322 57.9736C378.295 58.4041 379.426 58.6191 380.717 58.6191C381.708 58.6191 382.653 58.4598 383.551 58.1416C384.467 57.8234 385.3 57.402 386.048 56.8779C386.815 56.3352 387.488 55.7082 388.067 54.9971C388.647 54.2858 389.106 53.5275 389.442 52.7227C389.386 51.3186 389.181 49.9608 388.825 48.6504C388.489 47.3214 387.984 46.1418 387.311 45.1123C386.637 44.0641 385.805 43.231 384.813 42.6133C383.822 41.9768 382.652 41.6582 381.306 41.6582Z" fill="white"/>
</g>
<defs>
<filter id="filter0_d_4585_3" x="0.000782013" y="0.000782013" width="3073.6" height="338.6" filterUnits="userSpaceOnUse" color-interpolation-filters="sRGB">
<feFlood flood-opacity="0" result="BackgroundImageFix"/>
<feColorMatrix in="SourceAlpha" type="matrix" values="0 0 0 0 0 0 0 0 0 0 0 0 0 0 0 0 0 0 127 0" result="hardAlpha"/>
<feOffset/>
<feGaussianBlur stdDeviation="18.4"/>
<feComposite in2="hardAlpha" operator="out"/>
<feColorMatrix type="matrix" values="0 0 0 0 1 0 0 0 0 1 0 0 0 0 1 0 0 0 0.75 0"/>
<feBlend mode="normal" in2="BackgroundImageFix" result="effect1_dropShadow_4585_3"/>
<feBlend mode="normal" in="SourceGraphic" in2="effect1_dropShadow_4585_3" result="shape"/>
</filter>
</defs>
</svg>
