<svg width="592" height="84" viewBox="0 0 592 84" fill="none" xmlns="http://www.w3.org/2000/svg">
<path d="M41.7226 72.7206C58.8067 72.7206 72.6561 58.8711 72.6561 41.787C72.6561 24.7029 58.8067 10.8535 41.7226 10.8535C24.6385 10.8535 10.7891 24.7029 10.7891 41.787C10.7891 58.8711 24.6385 72.7206 41.7226 72.7206Z" fill="white"/>
<path d="M80.2019 51.527C74.7641 73.7545 52.6693 87.2805 30.8584 81.7374C9.05204 76.1942 -4.2222 53.683 1.22023 31.4555C6.65351 9.22801 28.7483 -4.29797 50.5546 1.24059C72.3655 6.78372 85.6398 29.2996 80.2019 51.527ZM58.661 35.5797C59.4712 30.0594 55.3471 27.0887 49.7078 25.1113L51.5387 17.632L47.0713 16.4968L45.2907 23.7793C44.1143 23.4818 42.9105 23.198 41.7112 22.9188L43.5055 15.5905L39.0426 14.4553L37.2117 21.9301C36.2413 21.7058 35.2847 21.4815 34.36 21.2481V21.2252L28.2035 19.6597L27.0134 24.5208C27.0134 24.5208 30.3274 25.2944 30.2588 25.3448C32.0668 25.8071 32.3964 27.0246 32.3414 27.9905L30.2588 36.5089C30.3824 36.5409 30.5471 36.5867 30.7211 36.6599C30.5746 36.6233 30.4144 36.5821 30.2496 36.5409L27.3293 48.474C27.1096 49.0324 26.5465 49.8746 25.2832 49.5542C25.329 49.6183 22.0379 48.7303 22.0379 48.7303L19.8225 53.9393L25.6357 55.4178C26.7159 55.6924 27.7779 55.9854 28.8215 56.2554L26.9722 63.8217L31.4351 64.9569L33.2661 57.473C34.4836 57.8117 35.6692 58.123 36.8272 58.4159L35.0009 65.8632L39.4683 66.9984L41.3176 59.4504C48.9342 60.9197 54.665 60.3247 57.0727 53.3076C59.0135 47.6546 56.9766 44.3956 52.9669 42.2671C55.8872 41.5805 58.0843 39.626 58.6702 35.5842L58.661 35.5797ZM48.4536 50.163C47.0713 55.816 37.7335 52.7583 34.7033 51.9939L37.1568 41.9742C40.187 42.7432 49.8955 44.2674 48.4536 50.163ZM49.836 35.4973C48.5772 40.6376 40.8003 38.0285 38.2782 37.3877L40.5028 28.2971C43.0249 28.938 51.1451 30.1326 49.836 35.4973Z" fill="#FF9500"/>
<path d="M119.307 25.1105C122.607 25.1105 125.459 25.7147 127.858 26.8956C130.265 28.0903 132.256 29.7015 133.849 31.7247C135.424 33.7616 136.591 36.1372 137.351 38.8653C138.102 41.598 138.477 44.5412 138.477 47.6858C138.477 52.5195 137.607 57.0876 135.854 61.3903C134.101 65.7021 131.721 69.4418 128.691 72.6322C125.665 75.818 122.09 78.331 117.971 80.1848C113.856 82.0432 109.383 82.9678 104.582 82.9678C103.959 82.9678 102.87 82.9495 101.327 82.9174C99.7848 82.8854 98.0134 82.7206 96.0268 82.4506C94.0311 82.1668 91.9164 81.7457 89.6873 81.1826C87.4581 80.6288 85.3388 79.8552 83.3477 78.8757L101.176 2.53968L117.142 0.0175781L110.757 27.1062C112.125 26.4791 113.503 25.9939 114.876 25.6368C116.254 25.289 117.728 25.1059 119.307 25.1059V25.1105ZM105.914 70.0643C108.317 70.0643 110.587 69.4601 112.711 68.2792C114.849 67.0936 116.689 65.4962 118.231 63.5004C119.774 61.5002 120.996 59.2435 121.889 56.726C122.781 54.2085 123.23 51.5765 123.23 48.8439C123.23 45.4841 122.676 42.8659 121.582 40.9709C120.483 39.085 118.451 38.1375 115.503 38.1375C114.538 38.1375 113.288 38.3252 111.745 38.6593C110.194 39.0164 108.807 39.7579 107.566 40.8702L100.769 69.6386C101.181 69.7119 101.543 69.7805 101.849 69.8492C102.151 69.9224 102.485 69.9728 102.82 70.0048C103.172 70.046 103.575 70.0643 104.065 70.0643C104.554 70.0643 105.163 70.0643 105.914 70.0643Z" fill="white"/>
<path d="M155.037 81.5088H139.785L152.666 26.2789H168.023L155.037 81.5088ZM162.457 19.5502C160.328 19.5502 158.397 18.9048 156.685 17.6095C154.959 16.3232 154.103 14.3412 154.103 11.6772C154.103 10.2079 154.396 8.83473 154.977 7.53477C155.568 6.23939 156.337 5.12252 157.298 4.17502C158.259 3.23209 159.376 2.48141 160.644 1.91382C161.917 1.35539 163.276 1.07617 164.722 1.07617C166.851 1.07617 168.769 1.72157 170.49 3.01696C172.202 4.31691 173.067 6.29889 173.067 8.94916C173.067 10.4231 172.774 11.8054 172.188 13.1008C171.607 14.3962 170.838 15.513 169.872 16.4605C168.915 17.4035 167.789 18.1542 166.526 18.7126C165.249 19.2802 163.898 19.5457 162.457 19.5457V19.5502Z" fill="white"/>
<path d="M181.388 12.5182L197.362 9.99609L193.44 26.2776H210.55L207.46 39.085H190.455L185.924 58.4058C185.507 60.0171 185.269 61.5184 185.2 62.9191C185.127 64.3243 185.301 65.5281 185.713 66.5443C186.121 67.5605 186.862 68.3478 187.929 68.9016C188.991 69.4646 190.515 69.7484 192.51 69.7484C194.154 69.7484 195.76 69.5882 197.308 69.2724C198.85 68.9611 200.411 68.5263 201.99 67.9633L203.125 79.9376C201.065 80.7065 198.832 81.3703 196.429 81.9287C194.021 82.4963 191.169 82.7663 187.874 82.7663C183.136 82.7663 179.461 82.0477 176.847 80.6196C174.233 79.1823 172.384 77.2186 171.281 74.7286C170.191 72.2522 169.702 69.396 169.839 66.1781C169.981 62.9511 170.457 59.5639 171.281 55.989L181.383 12.5182H181.388Z" fill="white"/>
<path d="M209.871 59.4551C209.871 54.6992 210.626 50.2135 212.137 46.0115C213.643 41.8095 215.817 38.1339 218.637 34.9756C221.443 31.8355 224.866 29.35 228.894 27.5237C232.9 25.7065 237.39 24.791 242.333 24.791C245.428 24.791 248.192 25.0885 250.628 25.6882C253.072 26.2924 255.283 27.0705 257.283 28.0501L252.024 40.2395C250.65 39.6719 249.222 39.173 247.748 38.7152C246.275 38.2529 244.471 38.0286 242.338 38.0286C237.248 38.0286 233.225 39.8184 230.226 43.3795C227.242 46.9452 225.741 51.7469 225.741 57.7706C225.741 61.3409 226.496 64.2246 228.011 66.4355C229.522 68.6417 232.309 69.7403 236.355 69.7403C238.351 69.7403 240.283 69.5297 242.127 69.1132C243.986 68.6921 245.629 68.1657 247.076 67.5386L248.215 80.0301C246.284 80.7945 244.16 81.4811 241.825 82.0853C239.486 82.6667 236.703 82.9688 233.476 82.9688C229.215 82.9688 225.608 82.3325 222.656 81.0829C219.703 79.8104 217.263 78.126 215.346 75.9883C213.414 73.8462 212.027 71.3469 211.171 68.477C210.311 65.607 209.876 62.5951 209.876 59.4505L209.871 59.4551Z" fill="white"/>
<path d="M277.622 82.974C273.983 82.974 270.82 82.4064 268.138 81.2895C265.464 80.1726 263.249 78.6026 261.496 76.5657C259.743 74.5425 258.429 72.1394 257.527 69.3747C256.626 66.61 256.195 63.5478 256.195 60.1972C256.195 55.9906 256.859 51.7841 258.2 47.5913C259.532 43.3893 261.514 39.613 264.132 36.2532C266.732 32.8889 269.936 30.1425 273.708 28.0003C277.48 25.8719 281.815 24.8008 286.685 24.8008C290.26 24.8008 293.404 25.3684 296.123 26.4852C298.828 27.6021 301.062 29.1859 302.82 31.209C304.564 33.2459 305.887 35.6353 306.779 38.4046C307.676 41.1647 308.12 44.2315 308.12 47.5913C308.12 51.7841 307.466 55.9906 306.166 60.1972C304.866 64.3854 302.939 68.1709 300.394 71.5352C297.854 74.8904 294.677 77.6414 290.864 79.7744C287.056 81.9074 282.638 82.9785 277.622 82.9785V82.974ZM285.243 38.0338C282.982 38.0338 280.986 38.7021 279.274 40.025C277.558 41.3615 276.116 43.0414 274.949 45.0692C273.772 47.1061 272.903 49.3261 272.312 51.7383C271.731 54.1551 271.442 56.4438 271.442 58.6134C271.442 62.1197 271.996 64.8478 273.086 66.8114C274.193 68.7659 276.175 69.7501 279.064 69.7501C281.334 69.7501 283.321 69.0864 285.042 67.7498C286.749 66.4224 288.195 64.7425 289.367 62.7101C290.534 60.687 291.413 58.4578 292.004 56.041C292.58 53.6287 292.873 51.3309 292.873 49.1659C292.873 45.6688 292.32 42.9361 291.221 40.9725C290.122 39.0179 288.127 38.0338 285.243 38.0338Z" fill="white"/>
<path d="M324.742 81.5088H309.477L322.357 26.2789H337.719L324.742 81.5088ZM332.153 19.5502C330.024 19.5502 328.097 18.9048 326.385 17.6095C324.669 16.3232 323.804 14.3412 323.804 11.6772C323.804 10.2079 324.101 8.83473 324.682 7.53477C325.264 6.23939 326.037 5.12252 327.003 4.17502C327.96 3.23209 329.086 2.48141 330.349 1.91382C331.617 1.35539 332.972 1.07617 334.414 1.07617C336.547 1.07617 338.474 1.72157 340.19 3.01696C341.907 4.31691 342.777 6.29889 342.777 8.94916C342.777 10.4231 342.47 11.8054 341.893 13.1008C341.316 14.3962 340.543 15.513 339.582 16.4605C338.616 17.4035 337.504 18.1542 336.236 18.7126C334.959 19.2802 333.604 19.5457 332.157 19.5457L332.153 19.5502Z" fill="white"/>
<path d="M348.72 28.7894C349.878 28.4461 351.169 28.0295 352.579 27.5764C353.988 27.1232 355.568 26.7067 357.325 26.3268C359.069 25.9377 361.033 25.6218 363.193 25.3747C365.359 25.1229 367.817 25.0039 370.554 25.0039C378.596 25.0039 384.144 27.3887 387.201 32.1491C390.259 36.9095 390.79 43.423 388.804 51.6805L381.787 81.5018H366.434L373.231 52.3076C373.648 50.4859 373.973 48.7236 374.216 47.0025C374.458 45.2952 374.444 43.7938 374.161 42.4893C373.891 41.203 373.25 40.1503 372.261 39.3355C371.254 38.5345 369.734 38.1317 367.67 38.1317C365.606 38.1317 363.66 38.3514 361.596 38.7679L351.599 81.5018H336.242L348.715 28.7894H348.72Z" fill="white"/>
<path d="M540.734 81.85C541.913 77.2602 543.619 72.5152 545.851 67.6153C548.084 62.6533 550.596 57.8463 553.387 53.1944C556.179 48.4805 559.125 44.0458 562.226 39.8901C565.327 35.7344 568.335 32.137 571.251 29.0977H543.246L546.131 17.375H591.254L588.835 27.423C586.478 29.4079 583.656 32.292 580.368 36.0755C577.143 39.8591 573.887 44.2008 570.599 49.1008C567.312 53.9387 564.242 59.1799 561.389 64.8241C558.536 70.4064 556.334 76.0817 554.783 81.85H540.734Z" fill="#FF9500"/>
<path d="M520.659 15.8867C523.14 15.8867 525.435 16.2899 527.543 17.0962C529.714 17.9025 531.575 19.019 533.126 20.4456C534.738 21.8101 535.979 23.4228 536.847 25.2835C537.715 27.1443 538.15 29.1291 538.15 31.2379C538.15 33.5949 537.902 35.7037 537.405 37.5645C536.909 39.4252 536.072 41.2239 534.893 42.9606C533.715 44.6973 532.133 46.4651 530.148 48.2638C528.226 50.0625 525.838 52.0783 522.985 54.3112C521.31 55.6137 519.604 56.8542 517.867 58.0327C516.193 59.2112 514.518 60.4207 512.843 61.6612C511.231 62.9017 509.649 64.2352 508.099 65.6618C506.548 67.0263 505.09 68.577 503.726 70.3137H531.451L528.66 81.8503H485.77C486.328 77.9427 487.289 74.5624 488.654 71.7092C490.018 68.8561 491.693 66.282 493.678 63.9871C495.725 61.6302 498.019 59.4593 500.562 57.4745C503.106 55.4277 505.866 53.2568 508.843 50.9619C511.634 48.791 513.991 46.9302 515.914 45.3796C517.898 43.767 519.48 42.3094 520.659 41.0069C521.899 39.6423 522.798 38.3708 523.357 37.1923C523.915 36.0138 524.194 34.7733 524.194 33.4708C524.194 31.8582 523.605 30.5246 522.426 29.4702C521.31 28.3537 519.852 27.7955 518.054 27.7955C515.511 27.7955 513.03 28.3537 510.611 29.4702C508.192 30.5246 505.556 32.1373 502.702 34.3081L497.957 24.1671C501.679 21.1278 505.4 18.988 509.122 17.7475C512.843 16.507 516.689 15.8867 520.659 15.8867Z" fill="#FF9500"/>
<path d="M461.395 71.244C463.38 71.244 465.21 70.6548 466.884 69.4763C468.559 68.2978 470.017 66.7472 471.257 64.8245C472.56 62.9017 473.676 60.7308 474.606 58.3118C475.599 55.8308 476.405 53.3188 477.025 50.7758C477.646 48.2328 478.111 45.7518 478.421 43.3328C478.731 40.9138 478.886 38.774 478.886 36.9132C478.886 33.7499 478.39 31.424 477.398 29.9354C476.467 28.4468 475.01 27.7025 473.025 27.7025C470.978 27.7025 469.117 28.2917 467.443 29.4702C465.768 30.6487 464.279 32.1993 462.977 34.1221C461.674 36.0448 460.527 38.2467 459.534 40.7277C458.604 43.2087 457.829 45.7207 457.208 48.2638C456.588 50.8068 456.123 53.2878 455.813 55.7068C455.503 58.1258 455.348 60.2656 455.348 62.1264C455.348 65.3517 455.844 67.6776 456.836 69.1042C457.829 70.5308 459.348 71.244 461.395 71.244ZM459.255 83.1528C456.216 83.1528 453.642 82.6256 451.533 81.5712C449.424 80.4548 447.688 78.9972 446.323 77.1984C445.021 75.3997 444.059 73.3839 443.439 71.151C442.881 68.8561 442.602 66.4991 442.602 64.0802C442.602 57.0093 443.377 50.5277 444.928 44.6353C446.54 38.7429 448.742 33.6569 451.533 29.3772C454.386 25.0974 457.798 21.7791 461.767 19.4221C465.737 17.0652 470.141 15.8867 474.979 15.8867C478.018 15.8867 480.592 16.4449 482.701 17.5614C484.81 18.6158 486.515 20.0424 487.818 21.8411C489.182 23.6398 490.144 25.6867 490.702 27.9816C491.322 30.2145 491.632 32.5404 491.632 34.9594C491.632 42.0303 490.826 48.5119 489.213 54.4042C487.663 60.2966 485.461 65.3827 482.608 69.6624C479.817 73.9421 476.436 77.2605 472.467 79.6174C468.497 81.9744 464.093 83.1528 459.255 83.1528Z" fill="#FF9500"/>
<path d="M425.288 15.8867C427.769 15.8867 430.063 16.2899 432.172 17.0962C434.343 17.9025 436.204 19.019 437.755 20.4456C439.367 21.8101 440.608 23.4228 441.476 25.2835C442.344 27.1443 442.779 29.1291 442.779 31.2379C442.779 33.5949 442.53 35.7037 442.034 37.5645C441.538 39.4252 440.701 41.2239 439.522 42.9606C438.344 44.6973 436.762 46.4651 434.777 48.2638C432.855 50.0625 430.467 52.0783 427.613 54.3112C425.939 55.6137 424.233 56.8542 422.496 58.0327C420.822 59.2112 419.147 60.4207 417.472 61.6612C415.86 62.9017 414.278 64.2352 412.727 65.6618C411.177 67.0263 409.719 68.577 408.355 70.3137H436.08L433.289 81.8503H390.398C390.957 77.9427 391.918 74.5624 393.283 71.7092C394.647 68.8561 396.322 66.282 398.307 63.9871C400.353 61.6302 402.648 59.4593 405.191 57.4745C407.734 55.4277 410.495 53.2568 413.472 50.9619C416.263 48.791 418.62 46.9302 420.543 45.3796C422.527 43.767 424.109 42.3094 425.288 41.0069C426.528 39.6423 427.427 38.3708 427.986 37.1923C428.544 36.0138 428.823 34.7733 428.823 33.4708C428.823 31.8582 428.234 30.5246 427.055 29.4702C425.939 28.3537 424.481 27.7955 422.682 27.7955C420.139 27.7955 417.658 28.3537 415.239 29.4702C412.82 30.5246 410.184 32.1373 407.331 34.3081L402.586 24.1671C406.308 21.1278 410.029 18.988 413.751 17.7475C417.472 16.507 421.318 15.8867 425.288 15.8867Z" fill="#FF9500"/>
</svg>
