<svg width="216" height="40" viewBox="0 0 216 40" fill="none" xmlns="http://www.w3.org/2000/svg">
<path d="M59.5792 14.3362C60.6746 14.3362 61.6097 14.5232 62.4112 14.9106C63.2127 15.298 63.8673 15.819 64.3883 16.487C64.9093 17.1415 65.2967 17.9163 65.5505 18.8113C65.8043 19.693 65.9245 20.6548 65.9245 21.6834C65.9245 23.2597 65.6306 24.7425 65.0429 26.1585C64.4685 27.5478 63.6936 28.7635 62.6918 29.8054C61.6899 30.834 60.5143 31.6489 59.1384 32.2634C57.7758 32.8512 56.293 33.1451 54.7034 33.1451C54.503 33.1451 54.1289 33.145 53.608 33.105C53.1137 33.105 52.5259 33.0649 51.8714 32.9714C51.2168 32.8779 50.5088 32.7443 49.7607 32.5573C49.0393 32.3703 48.3447 32.1298 47.6768 31.8092L53.5812 7.00239L58.8712 6.1875L56.7606 14.9908C57.2147 14.7904 57.669 14.6301 58.1232 14.5099C58.5773 14.3897 59.0716 14.3362 59.5926 14.3362H59.5792ZM55.1441 28.9371C55.9457 28.9371 56.6937 28.7501 57.4017 28.3627C58.1097 27.9753 58.7109 27.4677 59.2052 26.8265C59.7262 26.1719 60.1403 25.4238 60.4342 24.6089C60.728 23.7941 60.875 22.9391 60.875 22.0441C60.875 20.9487 60.6879 20.0938 60.3273 19.4793C59.9666 18.8648 59.2986 18.5575 58.3101 18.5575C57.9895 18.5575 57.5755 18.611 57.0411 18.7312C56.5468 18.8514 56.0793 19.0785 55.6785 19.4526L53.4209 28.8036C53.5545 28.8303 53.6747 28.8436 53.7683 28.8703C53.8885 28.897 53.9954 28.9104 54.1156 28.9371H55.1441Z" fill="white"/>
<path d="M71.6686 32.6638H66.6191L70.8805 14.7099H75.9701L71.6686 32.6638ZM74.1266 12.5192C73.4186 12.5192 72.7908 12.3188 72.2164 11.9046C71.642 11.4772 71.3614 10.8226 71.3614 9.9543C71.3614 9.47339 71.4549 9.03256 71.6286 8.61845C71.829 8.19097 72.0961 7.81692 72.4167 7.52303C72.7373 7.20243 73.098 6.94862 73.5121 6.77496C73.9396 6.58794 74.3938 6.50781 74.8747 6.50781C75.5827 6.50781 76.2106 6.72154 76.785 7.16237C77.3594 7.57648 77.6399 8.20433 77.6399 9.07263C77.6399 9.55354 77.5331 10.0078 77.3327 10.4352C77.1457 10.8493 76.9053 11.21 76.5846 11.5306C76.264 11.8245 75.89 12.065 75.4625 12.252C75.0484 12.439 74.6075 12.5192 74.1266 12.5192Z" fill="white"/>
<path d="M80.4854 10.2367L85.7754 9.42188L84.4796 14.7118H90.1436L89.115 18.8797H83.4911L81.9949 25.1582C81.8614 25.6792 81.7678 26.1735 81.7278 26.6277C81.701 27.0819 81.7678 27.4826 81.9014 27.8166C82.0617 28.1372 82.3289 28.391 82.6895 28.5647C83.0502 28.7517 83.5579 28.8318 84.1858 28.8318C84.7335 28.8318 85.2544 28.7918 85.7621 28.6982C86.283 28.578 86.804 28.4311 87.3384 28.2574L87.7124 32.1448C87.0311 32.3986 86.2964 32.6123 85.4949 32.7993C84.6934 32.9864 83.7583 33.0665 82.6629 33.0665C81.0866 33.0665 79.8709 32.8394 79.0159 32.3852C78.1476 31.9043 77.5332 31.2765 77.1725 30.475C76.8118 29.6601 76.6515 28.725 76.6916 27.683C76.7316 26.641 76.892 25.5323 77.1725 24.3701L80.5122 10.2367H80.4854Z" fill="white"/>
<path d="M89.6357 25.4901C89.6357 23.9405 89.8896 22.4844 90.3838 21.1219C90.8781 19.7593 91.5995 18.557 92.5346 17.5418C93.4697 16.5131 94.5918 15.7116 95.9143 15.1239C97.2501 14.5361 98.7463 14.2422 100.389 14.2422C101.418 14.2422 102.326 14.3491 103.115 14.5494C103.929 14.7365 104.677 14.9769 105.332 15.2975L103.595 19.2516C103.141 19.0646 102.66 18.9043 102.166 18.7708C101.685 18.6105 101.097 18.5303 100.389 18.5303C98.6795 18.5303 97.3437 19.1047 96.3685 20.2669C95.3933 21.4024 94.899 22.9653 94.899 24.9424C94.899 26.1046 95.1528 27.053 95.6471 27.7744C96.1414 28.4824 97.0631 28.8297 98.4123 28.8297C99.0669 28.8297 99.7081 28.763 100.323 28.6294C100.937 28.4958 101.485 28.3221 101.966 28.1217L102.34 32.1827C101.699 32.4366 101.004 32.6503 100.229 32.8373C99.481 33.0377 98.5592 33.1446 97.4638 33.1446C96.0478 33.1446 94.8589 32.9442 93.8838 32.53C92.9086 32.1159 92.0937 31.5683 91.4659 30.887C90.8246 30.179 90.3571 29.3641 90.0632 28.429C89.7961 27.4939 89.6491 26.5187 89.6491 25.4901H89.6357Z" fill="white"/>
<path d="M111.585 33.1306C110.382 33.1306 109.327 32.9435 108.445 32.5828C107.564 32.2222 106.816 31.7012 106.228 31.0466C105.653 30.3921 105.226 29.6172 104.932 28.7222C104.638 27.8138 104.491 26.8119 104.491 25.7165C104.491 24.354 104.705 22.9914 105.146 21.6155C105.6 20.2529 106.255 19.0239 107.123 17.9285C107.991 16.8331 109.047 15.9515 110.302 15.2702C111.558 14.5622 112.987 14.2148 114.604 14.2148C115.793 14.2148 116.821 14.4019 117.703 14.7625C118.611 15.1232 119.346 15.6442 119.92 16.2988C120.508 16.9533 120.949 17.7415 121.256 18.6499C121.55 19.5316 121.697 20.5201 121.697 21.6155C121.697 22.9781 121.483 24.3406 121.042 25.7165C120.615 27.0791 119.974 28.3081 119.132 29.4035C118.291 30.4989 117.235 31.3939 115.953 32.1019C114.697 32.7832 113.241 33.1306 111.585 33.1306ZM114.109 18.5297C113.361 18.5297 112.693 18.7434 112.132 19.1842C111.558 19.6117 111.09 20.1594 110.703 20.8273C110.316 21.4819 110.022 22.2166 109.821 23.0048C109.634 23.7795 109.554 24.5143 109.554 25.2223C109.554 26.3845 109.741 27.2795 110.102 27.9207C110.462 28.5352 111.13 28.8425 112.079 28.8425C112.827 28.8425 113.495 28.6287 114.056 28.1879C114.63 27.7604 115.098 27.2127 115.485 26.5448C115.873 25.8902 116.153 25.1688 116.34 24.3941C116.541 23.5925 116.648 22.8445 116.648 22.1365C116.648 20.9743 116.46 20.0926 116.1 19.4781C115.739 18.8369 115.071 18.5163 114.123 18.5163L114.109 18.5297Z" fill="white"/>
<path d="M127.427 32.6638H122.378L126.639 14.7099H131.729L127.427 32.6638ZM129.885 12.5192C129.177 12.5192 128.55 12.3188 127.975 11.9046C127.401 11.4772 127.12 10.8226 127.12 9.9543C127.12 9.47339 127.214 9.03256 127.387 8.61845C127.588 8.19097 127.855 7.81692 128.176 7.52303C128.496 7.20243 128.857 6.94862 129.271 6.77496C129.698 6.58794 130.153 6.50781 130.634 6.50781C131.342 6.50781 131.969 6.72154 132.544 7.16237C133.118 7.57648 133.399 8.20433 133.399 9.07263C133.399 9.55354 133.292 10.0078 133.092 10.4352C132.904 10.8493 132.664 11.21 132.343 11.5306C132.023 11.8245 131.649 12.065 131.221 12.252C130.807 12.439 130.366 12.5192 129.885 12.5192Z" fill="white"/>
<path d="M135.482 15.5259C135.87 15.4057 136.284 15.2854 136.751 15.1518C137.232 14.9915 137.753 14.8579 138.328 14.7377C138.915 14.6041 139.57 14.4973 140.278 14.4305C140.999 14.337 141.828 14.2969 142.736 14.2969C145.421 14.2969 147.264 15.0717 148.266 16.6212C149.268 18.1708 149.442 20.2815 148.774 22.9666L146.45 32.6515H141.36L143.618 23.167C143.751 22.5792 143.858 22.0048 143.925 21.4571C144.018 20.8827 144.018 20.4017 143.925 19.9876C143.831 19.5602 143.618 19.2128 143.27 18.959C142.95 18.6918 142.455 18.5449 141.774 18.5449C141.093 18.5449 140.438 18.6117 139.757 18.7453L136.444 32.6382H131.354L135.482 15.5125V15.5259Z" fill="white"/>
<path d="M167.825 24.9019C167.504 26.1977 167.41 27.5068 167.544 28.8293C167.678 30.1251 167.945 31.2873 168.332 32.3159L163.75 32.9705C163.617 32.7033 163.483 32.4361 163.376 32.1823C163.256 31.9285 163.149 31.648 163.029 31.3274C162.388 31.8484 161.666 32.2892 160.891 32.6231C160.103 32.9705 159.235 33.1308 158.273 33.1308C157.124 33.1308 156.136 32.9438 155.308 32.5564C154.506 32.1423 153.838 31.6079 153.304 30.9533C152.796 30.272 152.435 29.4839 152.195 28.6022C151.968 27.6938 151.848 26.7187 151.848 25.7034C151.848 24.1271 152.128 22.6577 152.676 21.2684C153.25 19.8791 154.038 18.6768 155.014 17.6482C156.029 16.6063 157.204 15.778 158.567 15.1903C159.93 14.6025 161.399 14.3086 162.975 14.3086C163.176 14.3086 163.536 14.3086 164.044 14.3487C164.578 14.3754 165.166 14.4288 165.834 14.5223C166.502 14.5891 167.197 14.7094 167.931 14.8964C168.666 15.0834 169.374 15.3238 170.029 15.6444L167.784 24.9286L167.825 24.9019ZM164.231 18.6234C163.937 18.5833 163.657 18.5432 163.403 18.5165C163.176 18.4898 162.882 18.4765 162.534 18.4765C161.746 18.4765 161.012 18.6635 160.33 19.0509C159.662 19.4383 159.075 19.9459 158.567 20.5871C158.059 21.2016 157.659 21.923 157.365 22.7378C157.084 23.5527 156.951 24.4076 156.951 25.3027C156.951 26.3981 157.138 27.2664 157.498 27.8942C157.872 28.5354 158.54 28.856 159.529 28.856C160.063 28.856 160.531 28.7492 160.945 28.5488C161.386 28.3484 161.84 28.0011 162.321 27.5202C162.361 26.9458 162.441 26.358 162.521 25.7435C162.641 25.1023 162.748 24.5279 162.868 24.0069L164.218 18.61L164.231 18.6234Z" fill="#FF9500"/>
<path d="M176.989 29.0467C178.164 29.0467 178.966 28.8864 179.407 28.5658C179.847 28.2185 180.061 27.8578 180.061 27.4704C180.061 27.2166 180.021 27.0029 179.928 26.8159C179.861 26.6288 179.727 26.4685 179.554 26.3082C179.366 26.1479 179.113 25.9876 178.792 25.8273C178.471 25.6403 178.057 25.4399 177.55 25.2128C176.975 24.959 176.441 24.7052 175.933 24.4247C175.426 24.1308 174.985 23.7835 174.584 23.3961C174.21 22.982 173.916 22.5278 173.689 22.0335C173.489 21.5125 173.382 20.898 173.382 20.19C173.382 18.3465 174.063 16.8905 175.412 15.8218C176.788 14.7531 178.792 14.2188 181.41 14.2188C182.653 14.2188 183.761 14.3523 184.723 14.6329C185.685 14.9 186.473 15.2073 187.074 15.5145L185.311 19.3084C184.83 19.0545 184.202 18.8141 183.454 18.587C182.693 18.3599 181.945 18.2397 181.21 18.2397C180.889 18.2397 180.569 18.2664 180.248 18.3065C179.954 18.3332 179.66 18.4 179.38 18.5068C179.126 18.6271 178.926 18.774 178.765 18.9878C178.605 19.1881 178.525 19.4686 178.525 19.8026C178.525 20.2568 178.699 20.6042 179.046 20.8312C179.42 21.0583 179.914 21.3255 180.569 21.6461C181.464 22.0736 182.212 22.4743 182.813 22.835C183.414 23.1957 183.882 23.5831 184.229 23.9972C184.603 24.4113 184.857 24.8789 185.017 25.3998C185.177 25.9208 185.258 26.5353 185.258 27.2433C185.258 27.9513 185.097 28.686 184.777 29.394C184.483 30.102 184.002 30.7299 183.334 31.2776C182.666 31.8253 181.811 32.2661 180.783 32.6135C179.754 32.9608 178.512 33.1211 177.055 33.1211C176.16 33.1211 175.346 33.0676 174.611 32.9474C173.903 32.8272 173.262 32.6936 172.714 32.5333C172.166 32.3463 171.685 32.1726 171.298 31.9856C170.924 31.7986 170.643 31.6517 170.43 31.5448L172.193 27.6574C172.58 27.8845 173.195 28.1651 174.023 28.5124C174.851 28.8597 175.853 29.02 177.029 29.02L176.989 29.0467Z" fill="#FF9500"/>
<path d="M192.07 32.6658H186.967L191.041 16.502H196.184L192.083 32.6658H192.07ZM194.18 14.3245C193.499 14.3245 192.885 14.1242 192.337 13.7368C191.789 13.3226 191.522 12.7082 191.522 11.8799C191.522 11.4258 191.616 10.9983 191.789 10.6109C191.99 10.1967 192.243 9.84943 192.551 9.5689C192.858 9.26165 193.205 9.02123 193.606 8.84757C194.02 8.6739 194.461 8.59375 194.915 8.59375C195.596 8.59375 196.211 8.79412 196.759 9.20823C197.306 9.59563 197.573 10.2101 197.573 11.025C197.573 11.4792 197.48 11.9066 197.28 12.3208C197.106 12.7082 196.866 13.0555 196.558 13.3627C196.251 13.6432 195.89 13.8704 195.476 14.044C195.089 14.2177 194.661 14.2978 194.194 14.2978L194.18 14.3245Z" fill="#FF9500"/>
<path d="M213.323 24.9019C213.002 26.1977 212.908 27.5068 213.042 28.8293C213.176 30.1251 213.443 31.2873 213.83 32.3159L209.248 32.9705C209.115 32.7033 208.981 32.4361 208.874 32.1823C208.754 31.9285 208.647 31.648 208.527 31.3274C207.886 31.8484 207.164 32.2892 206.389 32.6231C205.601 32.9705 204.733 33.1308 203.771 33.1308C202.622 33.1308 201.634 32.9438 200.806 32.5564C200.004 32.1423 199.336 31.6079 198.802 30.9533C198.294 30.272 197.933 29.4839 197.693 28.6022C197.466 27.6938 197.346 26.7187 197.346 25.7034C197.346 24.1271 197.626 22.6577 198.174 21.2684C198.748 19.8791 199.536 18.6768 200.512 17.6482C201.527 16.6063 202.703 15.778 204.065 15.1903C205.428 14.6025 206.897 14.3086 208.473 14.3086C208.674 14.3086 209.034 14.3086 209.542 14.3487C210.076 14.3754 210.664 14.4288 211.332 14.5223C212 14.5891 212.695 14.7094 213.429 14.8964C214.164 15.0834 214.872 15.3238 215.527 15.6444L213.282 24.9286L213.323 24.9019ZM209.742 18.6234C209.449 18.5833 209.168 18.5432 208.914 18.5165C208.687 18.4898 208.393 18.4765 208.046 18.4765C207.258 18.4765 206.523 18.6635 205.842 19.0509C205.174 19.4383 204.586 19.9459 204.078 20.5871C203.571 21.2016 203.17 21.923 202.876 22.7378C202.596 23.5527 202.462 24.4076 202.462 25.3027C202.462 26.3981 202.649 27.2664 203.01 27.8942C203.384 28.5354 204.052 28.856 205.04 28.856C205.575 28.856 206.042 28.7492 206.456 28.5488C206.897 28.3484 207.351 28.0011 207.832 27.5202C207.872 26.9458 207.952 26.358 208.033 25.7435C208.153 25.1023 208.26 24.5279 208.38 24.0069L209.729 18.61L209.742 18.6234Z" fill="#FF9500"/>
<path d="M36.3887 18.7153V18.6753H30.6845C30.6845 18.6753 30.738 19.1027 30.738 19.6371C30.738 20.1714 30.6845 20.6256 30.6845 20.6256H36.3887V20.5855C36.3887 20.5855 36.4154 20.0245 36.4154 19.6505C36.4154 19.2764 36.4154 18.7821 36.3887 18.7153ZM20.3718 2.89882C20.1447 2.88546 19.3432 2.88545 19.1428 2.88545C19.036 2.89881 18.9157 2.89882 18.8756 2.89882H18.7955V5.85105H20.5053V2.89882H20.3718ZM18.7955 33.4632V36.402H18.9958C19.1027 36.4154 19.3966 36.4154 19.6504 36.4154C19.9042 36.4154 20.1981 36.4154 20.305 36.402H20.5053V33.4632H18.7955ZM8.61628 18.6753H2.91215V18.7153C2.91215 18.7153 2.88541 19.2898 2.88541 19.6505C2.88541 20.0111 2.8988 20.5187 2.91215 20.5855V20.6256H8.61628C8.61628 20.6256 8.57617 20.1046 8.57617 19.6505C8.57617 19.1963 8.61628 18.6753 8.61628 18.6753ZM36.3887 18.6753H30.6845C30.6845 18.6753 30.738 19.1027 30.738 19.6371C30.738 20.1714 30.6845 20.6256 30.6845 20.6256H36.3887V20.5855C36.3887 20.5855 36.4154 20.0245 36.4154 19.6505C36.4154 19.2764 36.4154 18.7821 36.3887 18.7153V18.6753ZM19.6504 0C8.80323 0 0 8.78995 0 19.6505C0 30.511 8.80323 39.3009 19.6504 39.3009C30.4975 39.3009 39.3008 30.4976 39.3008 19.6505C39.3008 8.80331 30.5109 0 19.6504 0ZM17.66 8.74987C17.66 8.74987 18.0474 8.68306 18.368 8.64298C18.702 8.60291 19.0893 8.58958 19.0893 8.58958V6.97316H17.66V1.85686H17.7134C18.0073 1.81678 18.5016 1.7767 18.8489 1.76334C19.0092 1.76334 19.1428 1.75001 19.1561 1.75001C19.2095 1.75001 20.2916 1.76334 20.492 1.76334C20.8259 1.7767 21.3469 1.81678 21.5874 1.85686H21.6409V6.97316H20.2115V8.58958C20.2115 8.58958 20.5588 8.60291 20.8928 8.64298C21.2134 8.6697 21.6409 8.74987 21.6409 8.74987V9.87199H21.574C20.9462 9.75176 20.3049 9.68495 19.6504 9.68495C18.9958 9.68495 18.3547 9.75176 17.7268 9.87199H17.66V8.74987ZM15.9635 31.7399C15.9635 35.6139 15.9635 37.1769 15.9635 37.1769C15.9368 37.1769 15.4558 37.07 15.2287 37.0032C13.3852 36.5356 11.6487 35.7742 10.0457 34.759C7.01326 32.822 4.62201 30.0033 3.206 26.7038C2.79189 25.7419 2.44458 24.6732 2.21748 23.6713C2.19077 23.5778 2.17745 23.4977 2.17745 23.4844C2.17745 23.471 2.56482 23.471 4.90256 23.471H5.73079V21.7611H1.88352C1.88352 21.7611 1.85684 21.534 1.84349 21.3336C1.79005 20.8661 1.76334 20.1714 1.76334 19.6505C1.76334 19.1295 1.79005 18.4348 1.84349 17.9673C1.85684 17.7669 1.87016 17.5799 1.88352 17.5665V17.5398H5.73079V15.8299H4.90256C2.56482 15.8299 2.17745 15.8299 2.17745 15.8166C2.17745 15.8166 2.19077 15.723 2.21748 15.6295C2.44458 14.641 2.79189 13.559 3.206 12.5971C4.62201 9.29758 7.01326 6.47893 10.0457 4.54194C11.6487 3.52669 13.3852 2.77858 15.2287 2.29767C15.4558 2.24424 15.9368 2.13738 15.9635 2.13738C15.9635 2.13738 15.9635 3.68696 15.9635 7.56094V10.4063C15.5627 10.5533 15.1886 10.7403 14.828 10.9407C14.828 10.9407 14.7478 10.9807 14.6143 11.0609C14.4139 11.1811 14.2135 11.3014 14.0265 11.435C13.8261 11.5685 13.6124 11.7155 13.4387 11.8758C12.9979 12.2097 12.5971 12.5971 12.2364 12.9979H6.13153L6.22505 12.8242C6.51894 12.2632 6.75942 11.8357 7.09339 11.3281C8.42924 9.32428 10.246 7.65446 12.3567 6.4789C12.5437 6.37204 12.9044 6.18504 13.0246 6.13161L13.1181 6.07816V9.63154H11.9826V8.0285C11.9826 8.0285 11.3681 8.45599 11.101 8.66973C10.0189 9.51131 9.017 10.5666 8.2422 11.662C8.21548 11.7021 8.16203 11.7689 8.13531 11.809L8.09528 11.8624H11.7689C12.6105 11.0475 13.4387 10.3663 14.828 9.67162V7.73461C14.828 5.46366 14.828 3.59345 14.828 3.59345C14.8012 3.59345 14.2402 3.78049 13.933 3.90071C12.0761 4.56864 10.3128 5.59725 8.82998 6.86631C7.48077 8.00179 6.34531 9.32429 5.42357 10.7937C4.71556 11.9292 4.18121 13.078 3.74038 14.4139L3.63349 14.7078H11.0208C10.8071 15.0685 10.6201 15.4425 10.4598 15.8433H6.86631V17.5532H9.92539C9.77845 18.2211 9.69832 18.9291 9.69832 19.6505C9.69832 20.3718 9.77845 21.0798 9.92539 21.7611H6.86631V23.471H10.4598C10.6201 23.8717 10.8071 24.2458 11.0208 24.6065H3.63349L3.74038 24.9004C4.03427 25.782 4.32813 26.49 4.71553 27.2648C5.37009 28.5339 6.14493 29.6694 7.09339 30.7514C7.5075 31.219 8.05521 31.7666 8.52276 32.1941C10.1124 33.6101 11.9559 34.6922 13.933 35.4135C14.2402 35.5337 14.8012 35.7208 14.828 35.7208C14.828 35.7208 14.828 33.8506 14.828 31.5796V29.6293C13.1849 28.8411 12.1429 27.8259 11.7689 27.4518H8.09528L8.14868 27.5053C8.14868 27.5053 8.2155 27.6121 8.25557 27.6522C9.01701 28.7476 10.0189 29.8029 11.101 30.6445C11.3681 30.8582 11.9559 31.2857 11.9826 31.2857V29.6827H13.1181V33.2361L13.0246 33.1827C12.9044 33.1292 12.557 32.9422 12.3567 32.8353C10.246 31.6598 8.42924 29.99 7.09339 27.9862C6.77278 27.4785 6.51894 27.0511 6.22505 26.49L6.13153 26.3164H12.2364C12.6238 26.7438 13.0379 27.1312 13.4921 27.4919C13.5322 27.5186 13.5723 27.5454 13.6124 27.5854C14.3204 28.1198 15.1085 28.574 15.9635 28.9079V31.7399ZM16.097 25.8087L16.5779 23.7515C16.2974 23.6847 16.0169 23.6046 15.7363 23.5244L14.2001 23.1237L14.7879 21.721C14.7879 21.721 15.6161 21.9481 15.6428 21.9481C15.9768 22.0283 16.1238 21.8012 16.1906 21.6542L16.952 18.4214C16.952 18.4214 17.0455 18.4482 17.0856 18.4482C17.0321 18.4348 16.9921 18.4214 16.9654 18.4081L17.513 16.1104C17.5264 15.8433 17.4329 15.5093 16.9654 15.3891L16.097 15.162L16.4176 13.8528L18.0474 14.267C18.2879 14.3471 18.5417 14.4005 18.7955 14.4673L19.2764 12.4368L20.4519 12.7441L19.9843 14.7345C20.2916 14.8013 20.6122 14.8814 20.9194 14.9616L21.4004 12.9979L22.5759 13.2918L22.095 15.3223C23.5778 15.8566 24.6599 16.6581 24.4461 18.1543C24.2992 19.2497 23.7114 19.784 22.95 19.971C24.0053 20.5455 24.5396 21.4271 24.032 22.95C23.3908 24.8603 21.8813 25.0206 19.8775 24.6198L19.3833 26.6637L18.2077 26.3564L18.6886 24.3393C18.3813 24.2591 18.0741 24.179 17.7535 24.0855L17.2726 26.116L16.097 25.8087ZM21.6409 30.551C21.6409 30.551 21.2534 30.6178 20.9328 30.6579C20.5989 30.698 20.2115 30.7113 20.2115 30.7113V32.3277H21.6409V37.444H21.5874C21.3202 37.4841 20.826 37.5242 20.4519 37.5375C20.118 37.5509 19.1829 37.5509 18.8489 37.5375C18.4749 37.5242 17.9806 37.4841 17.7134 37.4574H17.66V32.3277H19.0893V30.7113C19.0893 30.7113 18.6619 30.698 18.3814 30.6579C18.1008 30.6178 17.66 30.551 17.66 30.551V29.4289H17.6733C18.3145 29.5491 18.9691 29.6159 19.6504 29.6159C20.3317 29.6159 20.9863 29.5491 21.6275 29.4289V30.551H21.6409ZM37.4307 21.7344L33.5967 21.7477V23.4576H34.4116C36.7494 23.4576 37.1367 23.4576 37.1367 23.471C37.1367 23.4843 37.1367 23.5645 37.11 23.658C36.8829 24.6599 36.5222 25.7286 36.1081 26.6904C34.7055 29.99 32.3009 32.8086 29.2685 34.7456C27.6655 35.7742 25.9423 36.5223 24.0854 36.9898C23.8583 37.0566 23.3774 37.1635 23.3641 37.1635C23.3507 37.1635 23.3641 35.6139 23.3641 31.7266V28.9079C24.7935 28.3335 26.0626 27.4385 27.0778 26.303H33.1826L33.0891 26.4767C32.8086 27.0377 32.5548 27.4652 32.2208 27.9728C30.885 29.9766 29.0682 31.6464 26.9575 32.822C26.7705 32.9288 26.4099 33.1159 26.303 33.1693L26.1961 33.2227V29.6694H27.3315V31.2724C27.3315 31.2724 27.9461 30.8449 28.2132 30.6445C29.2953 29.8029 30.3106 28.7343 31.072 27.6522C31.0987 27.5988 31.1521 27.532 31.1788 27.4919L31.2189 27.4385H27.5453C27.1045 27.8659 26.2496 28.761 24.4862 29.6293V31.5663C24.4862 33.8506 24.4995 35.7074 24.4995 35.7074C24.5262 35.7074 25.0874 35.5204 25.3946 35.4135C27.2514 34.7322 29.0148 33.717 30.4976 32.4346C31.8468 31.2991 32.9823 29.9766 33.904 28.5072C34.612 27.3717 35.1464 26.2228 35.5872 24.887L35.694 24.6065H29.5224L28.3068 24.5931C28.5205 24.2324 28.7075 23.8584 28.8678 23.471H32.4613V21.7611H29.4155V21.7344C29.5491 21.0531 29.6292 20.3585 29.6292 19.6505C29.6292 18.9424 29.5491 18.2344 29.4155 17.5665V17.5398H32.4613V15.8299H28.8678C28.7075 15.4425 28.5205 15.0551 28.3068 14.6944H35.694L35.5872 14.4005C35.2933 13.5188 34.9994 12.8109 34.612 12.0361C33.9574 10.767 33.1826 9.63155 32.2342 8.5495C31.8201 8.08195 31.2724 7.53423 30.8048 7.10676C29.2151 5.70411 27.3717 4.6087 25.3946 3.88734C25.0874 3.78047 24.5262 3.58012 24.4995 3.58012C24.4862 3.58012 24.4862 5.45029 24.4862 7.72124V9.67162C26.2629 10.4998 27.5453 11.8624 27.5453 11.8624H31.2189L31.1655 11.7956C31.1655 11.7956 31.0987 11.7021 31.072 11.6487C30.2972 10.5533 29.2953 9.49794 28.2132 8.65635C27.9461 8.44262 27.3583 8.01513 27.3315 8.01513V9.63154H26.1961V6.07816L26.2896 6.11824C26.4098 6.17167 26.7572 6.3587 26.9575 6.46557C29.0682 7.64113 30.885 9.31092 32.2208 11.3281C32.5548 11.8223 32.7953 12.2498 33.0891 12.8109L33.1826 12.9845H27.0778C26.7171 12.5838 26.303 12.1964 25.8755 11.8624C25.5683 11.5819 25.1809 11.3414 24.887 11.1544C24.8603 11.141 24.8202 11.1143 24.7935 11.101C24.6064 10.9941 24.4862 10.9273 24.4862 10.9273C24.1256 10.7269 23.7515 10.5399 23.3507 10.3929V7.56094C23.3507 3.68696 23.3641 2.12404 23.3641 2.12404C23.3908 2.12404 23.8717 2.24424 24.0988 2.29767C25.9423 2.76522 27.6789 3.52669 29.2819 4.54194C32.3143 6.47893 34.7055 9.29758 36.1215 12.5971C36.5356 13.559 36.8829 14.641 37.11 15.6295C37.1367 15.723 37.1501 15.8166 37.1501 15.8166C37.1501 15.8299 36.7627 15.8299 34.425 15.8299H33.5967V17.5398H37.444C37.444 17.5398 37.4707 17.7669 37.4841 17.9673C37.5375 18.4348 37.5642 19.1295 37.5642 19.6505C37.5642 20.1714 37.5375 20.8661 37.4841 21.3336C37.4574 21.5206 37.444 21.7077 37.4307 21.7344ZM22.1351 18.1276C22.4824 16.6848 20.345 16.3643 19.6771 16.1906L19.0893 18.6486C19.7573 18.8222 21.8012 19.5302 22.1351 18.1276ZM21.7744 22.1084C22.1485 20.5054 19.597 20.0913 18.7955 19.8909L18.1409 22.6027C18.9424 22.8031 21.4137 23.6313 21.7744 22.1084ZM18.7955 36.402H18.9958C19.1027 36.4154 19.3966 36.4154 19.6504 36.4154C19.9042 36.4154 20.1981 36.4154 20.305 36.402H20.5053V33.4632H18.7955V36.402ZM20.492 2.89882H20.3584C20.1313 2.88546 19.3298 2.88545 19.1294 2.88545C19.0226 2.89881 18.9023 2.89882 18.8623 2.89882H18.7821V5.85105H20.492V2.89882ZM8.57617 19.6505C8.57617 19.1963 8.61628 18.6753 8.61628 18.6753H2.91215V18.7153C2.91215 18.7153 2.88541 19.2898 2.88541 19.6505C2.88541 20.0111 2.8988 20.5187 2.91215 20.5855V20.6256H8.61628C8.61628 20.6256 8.57617 20.1046 8.57617 19.6505ZM18.7955 33.4632V36.402H18.9958C19.1027 36.4154 19.3966 36.4154 19.6504 36.4154C19.9042 36.4154 20.1981 36.4154 20.305 36.402H20.5053V33.4632H18.7955ZM8.61628 18.6753H2.91215V18.7153C2.91215 18.7153 2.88541 19.2898 2.88541 19.6505C2.88541 20.0111 2.8988 20.5187 2.91215 20.5855V20.6256H8.61628C8.61628 20.6256 8.57617 20.1046 8.57617 19.6505C8.57617 19.1963 8.61628 18.6753 8.61628 18.6753ZM36.3887 18.7153V18.6753H30.6845C30.6845 18.6753 30.738 19.1027 30.738 19.6371C30.738 20.1714 30.6845 20.6256 30.6845 20.6256H36.3887V20.5855C36.3887 20.5855 36.4154 20.0245 36.4154 19.6505C36.4154 19.2764 36.4154 18.7821 36.3887 18.7153ZM20.3718 2.89882C20.1447 2.88546 19.3432 2.88545 19.1428 2.88545C19.036 2.89881 18.9157 2.89882 18.8756 2.89882H18.7955V5.85105H20.5053V2.89882H20.3718Z" fill="#FF9500"/>
<path d="M24.4452 18.155C24.6589 16.6588 23.5769 15.8573 22.0941 15.3229L22.575 13.2924L21.3995 12.9985L20.9185 14.9622C20.6113 14.8821 20.2907 14.8019 19.9834 14.7351L20.451 12.7447L19.2755 12.4375L18.7946 14.468C18.5408 14.4012 18.2869 14.3477 18.0465 14.2809L16.4167 13.8535L16.0961 15.1626C16.0961 15.1626 16.9644 15.3764 16.9644 15.3897C17.432 15.51 17.5255 15.8439 17.5121 16.1111L16.9644 18.4087C16.9644 18.4087 17.0312 18.4355 17.0846 18.4488C17.0446 18.4488 17.0045 18.4355 16.9511 18.4221L16.1896 21.6549C16.1228 21.8018 15.9758 22.0289 15.6419 21.9488C15.6152 21.9488 14.787 21.7217 14.787 21.7217L14.1992 23.1243L15.7354 23.5251C16.0159 23.6052 16.2965 23.6854 16.577 23.7522L16.0961 25.8094L17.2717 26.1166L17.7526 24.0861C18.0732 24.1796 18.3804 24.2598 18.6877 24.3399L18.2068 26.3571L19.3823 26.6643L19.8766 24.6205C21.8804 25.0212 23.3899 24.8609 24.0311 22.9507C24.5387 21.4278 24.0044 20.5461 22.9491 19.9717C23.7105 19.7847 24.2983 19.2504 24.4452 18.155ZM21.7735 22.1091C21.4128 23.6319 18.9415 22.8037 18.14 22.6033L18.7946 19.8916C19.5961 20.0919 22.1475 20.5061 21.7735 22.1091ZM22.1342 18.1282C21.8002 19.5309 19.7563 18.8229 19.0884 18.6492L19.6762 16.1912C20.3441 16.3649 22.4815 16.6855 22.1342 18.1282Z" fill="white"/>
</svg>
